<ttFont>
    <TTGlyph name=".notdef" xMin="34" yMin="0" xMax="305" yMax="682">
      <contour>
        <pt x="34" y="0" on="1"/>
        <pt x="34" y="682" on="1"/>
        <pt x="305" y="682" on="1"/>
        <pt x="305" y="0" on="1"/>
      </contour>
      <contour>
        <pt x="68" y="34" on="1"/>
        <pt x="271" y="34" on="1"/>
        <pt x="271" y="648" on="1"/>
        <pt x="68" y="648" on="1"/>
      </contour>
    </TTGlyph>
    <TTGlyph name="A" xMin="0" yMin="-5" xMax="707" yMax="632">
      <contour>
        <pt x="429" y="276" on="1"/>
        <pt x="228" y="276" on="1"/>
        <pt x="133" y="53" on="1"/>
        <pt x="130" y="48" on="0"/>
        <pt x="130" y="43" on="1"/>
        <pt x="130" y="29" on="0"/>
        <pt x="174" y="12" on="0"/>
        <pt x="196" y="12" on="1"/>
        <pt x="197" y="-4" on="1"/>
        <pt x="0" y="-5" on="1"/>
        <pt x="0" y="15" on="1"/>
        <pt x="1" y="15" on="0"/>
        <pt x="2" y="15" on="1"/>
        <pt x="21" y="15" on="0"/>
        <pt x="65" y="32" on="0"/>
        <pt x="78" y="47" on="1"/>
        <pt x="95" y="67" on="0"/>
        <pt x="219" y="350" on="1"/>
        <pt x="343" y="632" on="1"/>
        <pt x="376" y="632" on="1"/>
        <pt x="595" y="113" on="1"/>
        <pt x="623" y="46" on="0"/>
        <pt x="656" y="30" on="1"/>
        <pt x="665" y="26" on="0"/>
        <pt x="685" y="23" on="0"/>
        <pt x="703" y="23" on="0"/>
        <pt x="707" y="22" on="1"/>
        <pt x="705" y="-3" on="1"/>
        <pt x="638" y="0" on="0"/>
        <pt x="554" y="0" on="1"/>
        <pt x="478" y="0" on="0"/>
        <pt x="431" y="-3" on="1"/>
        <pt x="432" y="16" on="1"/>
        <pt x="432" y="15" on="0"/>
        <pt x="450" y="15" on="1"/>
        <pt x="486" y="15" on="0"/>
        <pt x="500" y="32" on="1"/>
        <pt x="507" y="40" on="0"/>
        <pt x="507" y="54" on="1"/>
        <pt x="507" y="67" on="0"/>
        <pt x="501" y="83" on="1"/>
        <pt x="496" y="98" on="1"/>
      </contour>
      <contour>
        <pt x="240" y="300" on="1"/>
        <pt x="421" y="300" on="1"/>
        <pt x="332" y="516" on="1"/>
      </contour>
    </TTGlyph>
    <TTGlyph name="AE" xMin="38" yMin="-5" xMax="840" yMax="629">
      <contour>
        <pt x="467" y="321" on="1"/>
        <pt x="469" y="596" on="1"/>
        <pt x="445" y="555" on="0"/>
        <pt x="376" y="445" on="0"/>
        <pt x="309" y="321" on="1"/>
      </contour>
      <contour>
        <pt x="377" y="0" on="1"/>
        <pt x="377" y="16" on="1"/>
        <pt x="396" y="18" on="1"/>
        <pt x="415" y="19" on="0"/>
        <pt x="457" y="34" on="0"/>
        <pt x="459" y="45" on="1"/>
        <pt x="463" y="67" on="0"/>
        <pt x="467" y="297" on="1"/>
        <pt x="298" y="297" on="1"/>
        <pt x="168" y="74" on="1"/>
        <pt x="167" y="73" on="0"/>
        <pt x="156" y="51" on="0"/>
        <pt x="156" y="50" on="1"/>
        <pt x="156" y="20" on="0"/>
        <pt x="260" y="17" on="1"/>
        <pt x="259" y="-1" on="1"/>
        <pt x="38" y="-5" on="1"/>
        <pt x="38" y="15" on="1"/>
        <pt x="89" y="15" on="0"/>
        <pt x="116" y="47" on="1"/>
        <pt x="136" y="72" on="0"/>
        <pt x="454" y="626" on="1"/>
        <pt x="528" y="624" on="0"/>
        <pt x="597" y="624" on="1"/>
        <pt x="712" y="624" on="0"/>
        <pt x="828" y="629" on="1"/>
        <pt x="831" y="484" on="1"/>
        <pt x="812" y="484" on="1"/>
        <pt x="807" y="509" on="0"/>
        <pt x="787" y="556" on="0"/>
        <pt x="739" y="603" on="0"/>
        <pt x="709" y="603" on="1"/>
        <pt x="562" y="603" on="1"/>
        <pt x="562" y="438" on="0"/>
        <pt x="564" y="321" on="1"/>
        <pt x="699" y="321" on="1"/>
        <pt x="745" y="321" on="0"/>
        <pt x="750" y="399" on="1"/>
        <pt x="773" y="399" on="1"/>
        <pt x="773" y="220" on="1"/>
        <pt x="754" y="220" on="1"/>
        <pt x="749" y="298" on="0"/>
        <pt x="696" y="298" on="1"/>
        <pt x="564" y="298" on="1"/>
        <pt x="563" y="27" on="1"/>
        <pt x="667" y="21" on="0"/>
        <pt x="689" y="20" on="1"/>
        <pt x="715" y="20" on="0"/>
        <pt x="749" y="23" on="1"/>
        <pt x="773" y="33" on="0"/>
        <pt x="813" y="113" on="0"/>
        <pt x="817" y="152" on="1"/>
        <pt x="840" y="152" on="1"/>
        <pt x="830" y="0" on="1"/>
        <pt x="759" y="3" on="0"/>
        <pt x="656" y="3" on="1"/>
        <pt x="605" y="3" on="0"/>
      </contour>
    </TTGlyph>
    <TTGlyph name="Aacute" xMin="0" yMin="-5" xMax="707" yMax="829">
      <component glyphName="acute" x="152" y="209" flags="0x1004"/>
      <component glyphName="A" x="0" y="0" flags="0x1004"/>
    </TTGlyph>
    <TTGlyph name="Abreve" xMin="0" yMin="-5" xMax="707" yMax="632">
      <component glyphName="A" x="0" y="0" flags="0x1004"/>
    </TTGlyph>
    <TTGlyph name="Acircumflex" xMin="0" yMin="-5" xMax="707" yMax="824">
      <component glyphName="asciicircum" x="162" y="220" flags="0x1004"/>
      <component glyphName="A" x="0" y="0" flags="0x1004"/>
    </TTGlyph>
    <TTGlyph name="Adieresis" xMin="0" yMin="-5" xMax="707" yMax="739">
      <component glyphName="dieresis" x="161" y="180" flags="0x1004"/>
      <component glyphName="A" x="0" y="0" flags="0x1004"/>
    </TTGlyph>
    <TTGlyph name="Agrave" xMin="0" yMin="-5" xMax="707" yMax="826">
      <component glyphName="grave" x="170" y="205" flags="0x1004"/>
      <component glyphName="A" x="0" y="0" flags="0x1004"/>
    </TTGlyph>
    <TTGlyph name="Amacron" xMin="0" yMin="-5" xMax="707" yMax="632">
      <component glyphName="A" x="0" y="0" flags="0x1004"/>
    </TTGlyph>
    <TTGlyph name="Aogonek" xMin="0" yMin="-5" xMax="707" yMax="632">
      <component glyphName="A" x="0" y="0" flags="0x1004"/>
    </TTGlyph>
    <TTGlyph name="Aring" xMin="0" yMin="-5" xMax="707" yMax="878">
      <component glyphName="ring" x="245" y="221" flags="0x1004"/>
      <component glyphName="A" x="0" y="0" flags="0x1004"/>
    </TTGlyph>
    <TTGlyph name="Atilde" xMin="0" yMin="-5" xMax="707" yMax="768">
      <component glyphName="tilde" x="259" y="399" flags="0x1004"/>
      <component glyphName="A" x="0" y="0" flags="0x1004"/>
    </TTGlyph>
    <TTGlyph name="B" xMin="54" yMin="-3" xMax="537" yMax="639">
      <contour>
        <pt x="236" y="616" on="1"/>
        <pt x="236" y="344" on="1"/>
        <pt x="301" y="348" on="1"/>
        <pt x="334" y="350" on="0"/>
        <pt x="377" y="377" on="0"/>
        <pt x="395" y="421" on="0"/>
        <pt x="401" y="456" on="0"/>
        <pt x="401" y="478" on="1"/>
        <pt x="401" y="518" on="0"/>
        <pt x="360" y="595" on="0"/>
        <pt x="325" y="612" on="1"/>
        <pt x="312" y="618" on="0"/>
        <pt x="288" y="618" on="1"/>
        <pt x="280" y="618" on="0"/>
        <pt x="244" y="616" on="0"/>
      </contour>
      <contour>
        <pt x="537" y="162" on="1"/>
        <pt x="537" y="135" on="0"/>
        <pt x="512" y="80" on="0"/>
        <pt x="463" y="29" on="0"/>
        <pt x="373" y="-3" on="0"/>
        <pt x="314" y="-3" on="1"/>
        <pt x="307" y="-3" on="0"/>
        <pt x="241" y="-2" on="0"/>
        <pt x="123" y="-1" on="0"/>
        <pt x="54" y="-1" on="1"/>
        <pt x="54" y="15" on="1"/>
        <pt x="72" y="18" on="1"/>
        <pt x="90" y="20" on="0"/>
        <pt x="129" y="37" on="0"/>
        <pt x="131" y="48" on="1"/>
        <pt x="131" y="98" on="0"/>
        <pt x="131" y="384" on="0"/>
        <pt x="131" y="450" on="1"/>
        <pt x="131" y="555" on="0"/>
        <pt x="131" y="593" on="1"/>
        <pt x="129" y="604" on="0"/>
        <pt x="98" y="612" on="1"/>
        <pt x="68" y="622" on="1"/>
        <pt x="68" y="639" on="1"/>
        <pt x="127" y="639" on="0"/>
        <pt x="298" y="638" on="0"/>
        <pt x="323" y="638" on="1"/>
        <pt x="361" y="638" on="0"/>
        <pt x="436" y="602" on="0"/>
        <pt x="492" y="527" on="0"/>
        <pt x="492" y="480" on="1"/>
        <pt x="492" y="479" on="0"/>
        <pt x="492" y="478" on="1"/>
        <pt x="491" y="425" on="0"/>
        <pt x="418" y="336" on="0"/>
        <pt x="353" y="334" on="1"/>
        <pt x="537" y="317" on="0"/>
      </contour>
      <contour>
        <pt x="233" y="317" on="1"/>
        <pt x="234" y="68" on="1"/>
        <pt x="234" y="35" on="0"/>
        <pt x="254" y="18" on="0"/>
        <pt x="279" y="18" on="1"/>
        <pt x="362" y="18" on="0"/>
        <pt x="436" y="81" on="0"/>
        <pt x="436" y="153" on="1"/>
        <pt x="436" y="303" on="0"/>
        <pt x="300" y="316" on="1"/>
      </contour>
    </TTGlyph>
    <TTGlyph name="C" xMin="55" yMin="-23" xMax="649" yMax="648">
      <contour>
        <pt x="395" y="641" on="1"/>
        <pt x="453" y="641" on="0"/>
        <pt x="558" y="605" on="0"/>
        <pt x="574" y="586" on="1"/>
        <pt x="586" y="594" on="0"/>
        <pt x="599" y="612" on="0"/>
        <pt x="602" y="626" on="0"/>
        <pt x="605" y="648" on="1"/>
        <pt x="637" y="648" on="1"/>
        <pt x="634" y="441" on="1"/>
        <pt x="614" y="441" on="1"/>
        <pt x="601" y="522" on="0"/>
        <pt x="488" y="613" on="0"/>
        <pt x="387" y="613" on="1"/>
        <pt x="289" y="613" on="0"/>
        <pt x="189" y="451" on="0"/>
        <pt x="187" y="313" on="1"/>
        <pt x="187" y="8" on="0"/>
        <pt x="401" y="8" on="1"/>
        <pt x="450" y="8" on="0"/>
        <pt x="524" y="35" on="0"/>
        <pt x="577" y="89" on="0"/>
        <pt x="608" y="143" on="0"/>
        <pt x="626" y="184" on="1"/>
        <pt x="649" y="166" on="1"/>
        <pt x="571" y="-22" on="0"/>
        <pt x="399" y="-23" on="1"/>
        <pt x="247" y="-23" on="0"/>
        <pt x="55" y="150" on="0"/>
        <pt x="55" y="306" on="1"/>
        <pt x="55" y="381" on="0"/>
        <pt x="101" y="501" on="0"/>
        <pt x="173" y="573" on="0"/>
        <pt x="266" y="623" on="0"/>
        <pt x="353" y="641" on="0"/>
      </contour>
    </TTGlyph>
    <TTGlyph name="Cacute" xMin="55" yMin="-23" xMax="649" yMax="823">
      <component glyphName="acute" x="195" y="203" flags="0x1004"/>
      <component glyphName="C" x="0" y="0" flags="0x1004"/>
    </TTGlyph>
    <TTGlyph name="Ccaron" xMin="55" yMin="-23" xMax="649" yMax="823">
      <component glyphName="caron" x="191" y="214" flags="0x1004"/>
      <component glyphName="C" x="0" y="0" flags="0x1004"/>
    </TTGlyph>
    <TTGlyph name="Ccedilla" xMin="55" yMin="-193" xMax="649" yMax="648">
      <contour>
        <pt x="385" y="-1" on="1"/>
        <pt x="408" y="-2" on="1"/>
        <pt x="388" y="-53" on="1"/>
        <pt x="442" y="-53" on="0"/>
        <pt x="478" y="-79" on="0"/>
        <pt x="478" y="-105" on="1"/>
        <pt x="478" y="-138" on="0"/>
        <pt x="398" y="-193" on="0"/>
        <pt x="339" y="-193" on="1"/>
        <pt x="341" y="-171" on="1"/>
        <pt x="388" y="-171" on="0"/>
        <pt x="433" y="-148" on="0"/>
        <pt x="433" y="-118" on="1"/>
        <pt x="433" y="-87" on="0"/>
        <pt x="348" y="-87" on="1"/>
      </contour>
      <contour>
        <pt x="395" y="641" on="1"/>
        <pt x="453" y="641" on="0"/>
        <pt x="558" y="605" on="0"/>
        <pt x="574" y="586" on="1"/>
        <pt x="586" y="594" on="0"/>
        <pt x="599" y="612" on="0"/>
        <pt x="602" y="626" on="0"/>
        <pt x="605" y="648" on="1"/>
        <pt x="637" y="648" on="1"/>
        <pt x="634" y="441" on="1"/>
        <pt x="614" y="441" on="1"/>
        <pt x="601" y="522" on="0"/>
        <pt x="488" y="613" on="0"/>
        <pt x="387" y="613" on="1"/>
        <pt x="289" y="613" on="0"/>
        <pt x="189" y="451" on="0"/>
        <pt x="187" y="313" on="1"/>
        <pt x="187" y="8" on="0"/>
        <pt x="401" y="8" on="1"/>
        <pt x="450" y="8" on="0"/>
        <pt x="524" y="35" on="0"/>
        <pt x="577" y="89" on="0"/>
        <pt x="608" y="143" on="0"/>
        <pt x="626" y="184" on="1"/>
        <pt x="649" y="166" on="1"/>
        <pt x="571" y="-22" on="0"/>
        <pt x="399" y="-23" on="1"/>
        <pt x="247" y="-23" on="0"/>
        <pt x="55" y="150" on="0"/>
        <pt x="55" y="306" on="1"/>
        <pt x="55" y="381" on="0"/>
        <pt x="101" y="501" on="0"/>
        <pt x="173" y="573" on="0"/>
        <pt x="266" y="623" on="0"/>
        <pt x="353" y="641" on="0"/>
      </contour>
      <contour>
        <pt x="395" y="641" on="1"/>
        <pt x="453" y="641" on="0"/>
        <pt x="558" y="605" on="0"/>
        <pt x="574" y="586" on="1"/>
        <pt x="586" y="594" on="0"/>
        <pt x="599" y="612" on="0"/>
        <pt x="602" y="626" on="0"/>
        <pt x="605" y="648" on="1"/>
        <pt x="637" y="648" on="1"/>
        <pt x="634" y="441" on="1"/>
        <pt x="614" y="441" on="1"/>
        <pt x="601" y="522" on="0"/>
        <pt x="488" y="613" on="0"/>
        <pt x="387" y="613" on="1"/>
        <pt x="289" y="613" on="0"/>
        <pt x="189" y="451" on="0"/>
        <pt x="187" y="313" on="1"/>
        <pt x="187" y="8" on="0"/>
        <pt x="401" y="8" on="1"/>
        <pt x="450" y="8" on="0"/>
        <pt x="524" y="35" on="0"/>
        <pt x="577" y="89" on="0"/>
        <pt x="608" y="143" on="0"/>
        <pt x="626" y="184" on="1"/>
        <pt x="649" y="166" on="1"/>
        <pt x="571" y="-22" on="0"/>
        <pt x="399" y="-23" on="1"/>
        <pt x="247" y="-23" on="0"/>
        <pt x="55" y="150" on="0"/>
        <pt x="55" y="306" on="1"/>
        <pt x="55" y="381" on="0"/>
        <pt x="101" y="501" on="0"/>
        <pt x="173" y="573" on="0"/>
        <pt x="266" y="623" on="0"/>
        <pt x="353" y="641" on="0"/>
      </contour>
    </TTGlyph>
    <TTGlyph name="Ccircumflex" xMin="55" yMin="-23" xMax="649" yMax="813">
      <component glyphName="asciicircum" x="201" y="209" flags="0x1004"/>
      <component glyphName="C" x="0" y="0" flags="0x1004"/>
    </TTGlyph>
    <TTGlyph name="Cdotaccent" xMin="55" yMin="-23" xMax="649" yMax="648">
      <component glyphName="C" x="0" y="0" flags="0x1004"/>
    </TTGlyph>
    <TTGlyph name="D" xMin="49" yMin="-3" xMax="635" yMax="631">
      <contour>
        <pt x="635" y="296" on="1"/>
        <pt x="635" y="242" on="0"/>
        <pt x="596" y="139" on="0"/>
        <pt x="520" y="50" on="0"/>
        <pt x="392" y="-3" on="0"/>
        <pt x="310" y="-3" on="1"/>
        <pt x="303" y="-3" on="0"/>
        <pt x="236" y="-2" on="0"/>
        <pt x="118" y="-1" on="0"/>
        <pt x="49" y="-1" on="1"/>
        <pt x="49" y="15" on="1"/>
        <pt x="130" y="22" on="0"/>
        <pt x="137" y="61" on="1"/>
        <pt x="137" y="565" on="1"/>
        <pt x="136" y="578" on="0"/>
        <pt x="124" y="597" on="0"/>
        <pt x="95" y="606" on="0"/>
        <pt x="82" y="609" on="0"/>
        <pt x="62" y="611" on="1"/>
        <pt x="62" y="629" on="1"/>
        <pt x="121" y="629" on="0"/>
        <pt x="311" y="631" on="0"/>
        <pt x="336" y="631" on="1"/>
        <pt x="385" y="631" on="0"/>
        <pt x="483" y="596" on="0"/>
        <pt x="577" y="523" on="0"/>
        <pt x="635" y="386" on="0"/>
      </contour>
      <contour>
        <pt x="526" y="290" on="1"/>
        <pt x="526" y="293" on="0"/>
        <pt x="526" y="296" on="1"/>
        <pt x="526" y="375" on="0"/>
        <pt x="507" y="481" on="0"/>
        <pt x="457" y="564" on="0"/>
        <pt x="366" y="603" on="0"/>
        <pt x="297" y="603" on="1"/>
        <pt x="267" y="603" on="0"/>
        <pt x="234" y="600" on="1"/>
        <pt x="234" y="574" on="0"/>
        <pt x="234" y="510" on="1"/>
        <pt x="234" y="455" on="0"/>
        <pt x="234" y="189" on="0"/>
        <pt x="234" y="142" on="1"/>
        <pt x="234" y="84" on="0"/>
        <pt x="234" y="68" on="1"/>
        <pt x="234" y="49" on="0"/>
        <pt x="265" y="18" on="0"/>
        <pt x="289" y="18" on="1"/>
        <pt x="362" y="18" on="0"/>
        <pt x="455" y="48" on="0"/>
        <pt x="506" y="119" on="0"/>
        <pt x="525" y="214" on="0"/>
      </contour>
    </TTGlyph>
    <TTGlyph name="Dcaron" xMin="49" yMin="-3" xMax="635" yMax="818">
      <component glyphName="caron" x="113" y="209" flags="0x1004"/>
      <component glyphName="D" x="0" y="0" flags="0x1004"/>
    </TTGlyph>
    <TTGlyph name="Dcroat" xMin="49" yMin="-3" xMax="635" yMax="631">
      <component glyphName="D" x="0" y="0" flags="0x1004"/>
    </TTGlyph>
    <TTGlyph name="E" xMin="49" yMin="0" xMax="522" yMax="629">
      <contour>
        <pt x="513" y="0" on="1"/>
        <pt x="49" y="0" on="1"/>
        <pt x="49" y="16" on="1"/>
        <pt x="49" y="15" on="0"/>
        <pt x="77" y="15" on="1"/>
        <pt x="126" y="15" on="0"/>
        <pt x="131" y="39" on="1"/>
        <pt x="140" y="93" on="0"/>
        <pt x="140" y="425" on="1"/>
        <pt x="140" y="571" on="0"/>
        <pt x="136" y="585" on="1"/>
        <pt x="134" y="596" on="0"/>
        <pt x="98" y="604" on="1"/>
        <pt x="62" y="611" on="1"/>
        <pt x="62" y="629" on="1"/>
        <pt x="168" y="626" on="0"/>
        <pt x="429" y="626" on="0"/>
        <pt x="511" y="629" on="1"/>
        <pt x="514" y="484" on="1"/>
        <pt x="495" y="484" on="1"/>
        <pt x="490" y="509" on="0"/>
        <pt x="470" y="556" on="0"/>
        <pt x="422" y="603" on="0"/>
        <pt x="391" y="603" on="1"/>
        <pt x="234" y="603" on="1"/>
        <pt x="234" y="331" on="1"/>
        <pt x="382" y="331" on="1"/>
        <pt x="428" y="331" on="0"/>
        <pt x="432" y="410" on="1"/>
        <pt x="456" y="410" on="1"/>
        <pt x="456" y="230" on="1"/>
        <pt x="436" y="230" on="1"/>
        <pt x="431" y="308" on="0"/>
        <pt x="379" y="308" on="1"/>
        <pt x="234" y="308" on="1"/>
        <pt x="234" y="69" on="1"/>
        <pt x="234" y="21" on="0"/>
        <pt x="269" y="20" on="1"/>
        <pt x="420" y="20" on="1"/>
        <pt x="446" y="21" on="0"/>
        <pt x="495" y="108" on="0"/>
        <pt x="500" y="152" on="1"/>
        <pt x="522" y="152" on="1"/>
      </contour>
    </TTGlyph>
    <TTGlyph name="Eacute" xMin="49" yMin="0" xMax="522" yMax="813">
      <component glyphName="acute" x="68" y="193" flags="0x1004"/>
      <component glyphName="E" x="0" y="0" flags="0x1004"/>
    </TTGlyph>
    <TTGlyph name="Ebreve" xMin="49" yMin="0" xMax="522" yMax="629">
      <component glyphName="E" x="0" y="0" flags="0x1004"/>
    </TTGlyph>
    <TTGlyph name="Ecaron" xMin="49" yMin="0" xMax="522" yMax="629">
      <component glyphName="E" x="0" y="0" flags="0x1004"/>
    </TTGlyph>
    <TTGlyph name="Ecircumflex" xMin="49" yMin="0" xMax="522" yMax="807">
      <component glyphName="asciicircum" x="111" y="203" flags="0x1004"/>
      <component glyphName="E" x="0" y="0" flags="0x1004"/>
    </TTGlyph>
    <TTGlyph name="Edieresis" xMin="49" yMin="0" xMax="522" yMax="738">
      <component glyphName="dieresis" x="106" y="179" flags="0x1004"/>
      <component glyphName="E" x="0" y="0" flags="0x1004"/>
    </TTGlyph>
    <TTGlyph name="Edotaccent" xMin="49" yMin="0" xMax="522" yMax="629">
      <component glyphName="E" x="0" y="0" flags="0x1004"/>
    </TTGlyph>
    <TTGlyph name="Egrave" xMin="49" yMin="0" xMax="522" yMax="816">
      <component glyphName="grave" x="92" y="195" flags="0x1004"/>
      <component glyphName="E" x="0" y="0" flags="0x1004"/>
    </TTGlyph>
    <TTGlyph name="Emacron" xMin="49" yMin="0" xMax="522" yMax="629">
      <component glyphName="E" x="0" y="0" flags="0x1004"/>
    </TTGlyph>
    <TTGlyph name="Eogonek" xMin="49" yMin="0" xMax="522" yMax="629">
      <component glyphName="E" x="0" y="0" flags="0x1004"/>
    </TTGlyph>
    <TTGlyph name="F" xMin="49" yMin="-4" xMax="514" yMax="629">
      <contour>
        <pt x="317" y="-4" on="1"/>
        <pt x="267" y="0" on="0"/>
        <pt x="113" y="0" on="0"/>
        <pt x="49" y="-4" on="1"/>
        <pt x="49" y="12" on="1"/>
        <pt x="74" y="12" on="0"/>
        <pt x="130" y="23" on="0"/>
        <pt x="131" y="35" on="1"/>
        <pt x="133" y="59" on="0"/>
        <pt x="139" y="338" on="0"/>
        <pt x="139" y="443" on="1"/>
        <pt x="139" y="568" on="0"/>
        <pt x="136" y="585" on="1"/>
        <pt x="134" y="596" on="0"/>
        <pt x="98" y="604" on="1"/>
        <pt x="62" y="611" on="1"/>
        <pt x="62" y="629" on="1"/>
        <pt x="166" y="625" on="0"/>
        <pt x="429" y="625" on="0"/>
        <pt x="511" y="629" on="1"/>
        <pt x="514" y="484" on="1"/>
        <pt x="495" y="484" on="1"/>
        <pt x="490" y="509" on="0"/>
        <pt x="470" y="556" on="0"/>
        <pt x="422" y="603" on="0"/>
        <pt x="391" y="603" on="1"/>
        <pt x="234" y="603" on="1"/>
        <pt x="234" y="331" on="1"/>
        <pt x="372" y="331" on="1"/>
        <pt x="418" y="331" on="0"/>
        <pt x="422" y="410" on="1"/>
        <pt x="445" y="410" on="1"/>
        <pt x="445" y="230" on="1"/>
        <pt x="426" y="230" on="1"/>
        <pt x="421" y="308" on="0"/>
        <pt x="369" y="308" on="1"/>
        <pt x="234" y="308" on="1"/>
        <pt x="234" y="65" on="1"/>
        <pt x="234" y="20" on="0"/>
        <pt x="269" y="15" on="1"/>
        <pt x="277" y="14" on="0"/>
        <pt x="291" y="14" on="1"/>
        <pt x="317" y="15" on="1"/>
        <pt x="317" y="15" on="0"/>
        <pt x="317" y="10" on="1"/>
        <pt x="317" y="5" on="0"/>
        <pt x="317" y="2" on="1"/>
        <pt x="317" y="-2" on="0"/>
      </contour>
    </TTGlyph>
    <TTGlyph name="G" xMin="51" yMin="-23" xMax="726" yMax="642">
      <contour>
        <pt x="402" y="642" on="1"/>
        <pt x="439" y="642" on="0"/>
        <pt x="516" y="612" on="0"/>
        <pt x="558" y="582" on="0"/>
        <pt x="575" y="571" on="1"/>
        <pt x="589" y="577" on="0"/>
        <pt x="611" y="617" on="0"/>
        <pt x="613" y="638" on="1"/>
        <pt x="639" y="638" on="1"/>
        <pt x="636" y="431" on="1"/>
        <pt x="605" y="431" on="1"/>
        <pt x="576" y="613" on="0"/>
        <pt x="399" y="613" on="1"/>
        <pt x="295" y="613" on="0"/>
        <pt x="182" y="467" on="0"/>
        <pt x="182" y="295" on="1"/>
        <pt x="182" y="219" on="0"/>
        <pt x="223" y="94" on="0"/>
        <pt x="318" y="10" on="0"/>
        <pt x="386" y="10" on="1"/>
        <pt x="435" y="10" on="0"/>
        <pt x="528" y="53" on="0"/>
        <pt x="553" y="88" on="1"/>
        <pt x="556" y="127" on="0"/>
        <pt x="556" y="169" on="1"/>
        <pt x="556" y="206" on="0"/>
        <pt x="553" y="227" on="1"/>
        <pt x="514" y="250" on="0"/>
        <pt x="459" y="253" on="1"/>
        <pt x="459" y="275" on="1"/>
        <pt x="726" y="275" on="1"/>
        <pt x="726" y="253" on="1"/>
        <pt x="671" y="247" on="0"/>
        <pt x="655" y="227" on="1"/>
        <pt x="651" y="219" on="0"/>
        <pt x="651" y="139" on="1"/>
        <pt x="651" y="73" on="0"/>
        <pt x="653" y="-3" on="1"/>
        <pt x="636" y="-3" on="1"/>
        <pt x="631" y="12" on="1"/>
        <pt x="627" y="28" on="0"/>
        <pt x="593" y="61" on="0"/>
        <pt x="569" y="61" on="1"/>
        <pt x="547" y="28" on="0"/>
        <pt x="440" y="-23" on="0"/>
        <pt x="385" y="-23" on="1"/>
        <pt x="238" y="-23" on="0"/>
        <pt x="51" y="151" on="0"/>
        <pt x="51" y="296" on="1"/>
        <pt x="51" y="373" on="0"/>
        <pt x="95" y="496" on="0"/>
        <pt x="166" y="571" on="0"/>
        <pt x="260" y="622" on="0"/>
        <pt x="353" y="642" on="0"/>
      </contour>
    </TTGlyph>
    <TTGlyph name="Gbreve" xMin="51" yMin="-23" xMax="726" yMax="642">
      <component glyphName="G" x="0" y="0" flags="0x1004"/>
    </TTGlyph>
    <TTGlyph name="Gcircumflex" xMin="51" yMin="-23" xMax="726" yMax="642">
      <component glyphName="G" x="0" y="0" flags="0x1004"/>
    </TTGlyph>
    <TTGlyph name="Gcommaaccent" xMin="51" yMin="-23" xMax="726" yMax="642">
      <component glyphName="G" x="0" y="0" flags="0x1004"/>
    </TTGlyph>
    <TTGlyph name="Gdotaccent" xMin="51" yMin="-23" xMax="726" yMax="642">
      <component glyphName="G" x="0" y="0" flags="0x1004"/>
    </TTGlyph>
    <TTGlyph name="H" xMin="59" yMin="-4" xMax="700" yMax="626">
      <contour>
        <pt x="512" y="584" on="1"/>
        <pt x="512" y="606" on="0"/>
        <pt x="446" y="608" on="1"/>
        <pt x="444" y="623" on="1"/>
        <pt x="478" y="621" on="0"/>
        <pt x="528" y="621" on="1"/>
        <pt x="629" y="621" on="0"/>
        <pt x="685" y="626" on="1"/>
        <pt x="685" y="611" on="1"/>
        <pt x="685" y="611" on="0"/>
        <pt x="649" y="604" on="1"/>
        <pt x="612" y="596" on="0"/>
        <pt x="611" y="585" on="1"/>
        <pt x="610" y="576" on="0"/>
        <pt x="610" y="487" on="1"/>
        <pt x="610" y="66" on="0"/>
        <pt x="616" y="35" on="1"/>
        <pt x="620" y="12" on="0"/>
        <pt x="694" y="12" on="1"/>
        <pt x="698" y="12" on="1"/>
        <pt x="700" y="-1" on="1"/>
        <pt x="652" y="3" on="0"/>
        <pt x="574" y="3" on="1"/>
        <pt x="485" y="3" on="0"/>
        <pt x="436" y="-2" on="1"/>
        <pt x="437" y="15" on="1"/>
        <pt x="513" y="15" on="0"/>
        <pt x="513" y="44" on="1"/>
        <pt x="513" y="308" on="1"/>
        <pt x="234" y="308" on="1"/>
        <pt x="234" y="44" on="1"/>
        <pt x="234" y="15" on="0"/>
        <pt x="310" y="15" on="1"/>
        <pt x="311" y="-1" on="1"/>
        <pt x="279" y="0" on="0"/>
        <pt x="234" y="0" on="1"/>
        <pt x="135" y="0" on="0"/>
        <pt x="59" y="-4" on="1"/>
        <pt x="59" y="12" on="1"/>
        <pt x="59" y="12" on="0"/>
        <pt x="63" y="12" on="1"/>
        <pt x="126" y="12" on="0"/>
        <pt x="131" y="35" on="1"/>
        <pt x="133" y="47" on="0"/>
        <pt x="137" y="389" on="0"/>
        <pt x="137" y="502" on="1"/>
        <pt x="137" y="579" on="0"/>
        <pt x="136" y="585" on="1"/>
        <pt x="133" y="596" on="0"/>
        <pt x="102" y="604" on="1"/>
        <pt x="73" y="611" on="1"/>
        <pt x="73" y="626" on="1"/>
        <pt x="120" y="622" on="0"/>
        <pt x="193" y="622" on="1"/>
        <pt x="269" y="622" on="0"/>
        <pt x="312" y="626" on="1"/>
        <pt x="312" y="606" on="1"/>
        <pt x="235" y="601" on="0"/>
        <pt x="234" y="583" on="1"/>
        <pt x="234" y="331" on="1"/>
        <pt x="513" y="331" on="1"/>
      </contour>
    </TTGlyph>
    <TTGlyph name="Hbar" xMin="59" yMin="-4" xMax="700" yMax="626">
      <component glyphName="H" x="0" y="0" flags="0x1004"/>
    </TTGlyph>
    <TTGlyph name="Hcircumflex" xMin="59" yMin="-4" xMax="700" yMax="626">
      <component glyphName="H" x="0" y="0" flags="0x1004"/>
    </TTGlyph>
    <TTGlyph name="I" xMin="59" yMin="-3" xMax="322" yMax="626">
      <contour>
        <pt x="245" y="583" on="1"/>
        <pt x="245" y="582" on="0"/>
        <pt x="244" y="472" on="0"/>
        <pt x="243" y="307" on="0"/>
        <pt x="243" y="239" on="1"/>
        <pt x="243" y="103" on="0"/>
        <pt x="245" y="45" on="1"/>
        <pt x="246" y="16" on="0"/>
        <pt x="321" y="16" on="1"/>
        <pt x="322" y="0" on="1"/>
        <pt x="290" y="1" on="0"/>
        <pt x="243" y="1" on="1"/>
        <pt x="135" y="1" on="0"/>
        <pt x="59" y="-3" on="1"/>
        <pt x="59" y="13" on="1"/>
        <pt x="59" y="13" on="0"/>
        <pt x="63" y="13" on="1"/>
        <pt x="137" y="13" on="0"/>
        <pt x="141" y="36" on="1"/>
        <pt x="146" y="66" on="0"/>
        <pt x="146" y="585" on="1"/>
        <pt x="146" y="596" on="0"/>
        <pt x="110" y="604" on="1"/>
        <pt x="73" y="611" on="1"/>
        <pt x="73" y="626" on="1"/>
        <pt x="120" y="622" on="0"/>
        <pt x="194" y="622" on="1"/>
        <pt x="271" y="622" on="0"/>
        <pt x="314" y="626" on="1"/>
        <pt x="314" y="606" on="1"/>
        <pt x="245" y="601" on="0"/>
      </contour>
    </TTGlyph>
    <TTGlyph name="IJ" xMin="40" yMin="-214" xMax="566" yMax="626">
      <component glyphName="J" x="245" y="0" flags="0x1004"/>
      <component glyphName="I" x="-19" y="0" flags="0x1004"/>
    </TTGlyph>
    <TTGlyph name="Iacute" xMin="59" yMin="-3" xMax="322" yMax="809">
      <component glyphName="acute" x="0" y="189" flags="0x1004"/>
      <component glyphName="I" x="0" y="0" flags="0x1004"/>
    </TTGlyph>
    <TTGlyph name="Ibreve" xMin="59" yMin="-3" xMax="322" yMax="626">
      <component glyphName="I" x="0" y="0" flags="0x1004"/>
    </TTGlyph>
    <TTGlyph name="Icircumflex" xMin="59" yMin="-3" xMax="325" yMax="801">
      <component glyphName="asciicircum" x="-8" y="197" flags="0x1004"/>
      <component glyphName="I" x="0" y="0" flags="0x1004"/>
    </TTGlyph>
    <TTGlyph name="Idieresis" xMin="59" yMin="-3" xMax="322" yMax="735">
      <component glyphName="dieresis" x="-4" y="176" flags="0x1004"/>
      <component glyphName="I" x="0" y="0" flags="0x1004"/>
    </TTGlyph>
    <TTGlyph name="Idotaccent" xMin="59" yMin="-3" xMax="322" yMax="626">
      <component glyphName="I" x="0" y="0" flags="0x1004"/>
    </TTGlyph>
    <TTGlyph name="Igrave" xMin="59" yMin="-3" xMax="322" yMax="807">
      <component glyphName="grave" x="12" y="186" flags="0x1004"/>
      <component glyphName="I" x="0" y="0" flags="0x1004"/>
    </TTGlyph>
    <TTGlyph name="Imacron" xMin="59" yMin="-3" xMax="322" yMax="626">
      <component glyphName="I" x="0" y="0" flags="0x1004"/>
    </TTGlyph>
    <TTGlyph name="Iogonek" xMin="59" yMin="-3" xMax="322" yMax="626">
      <component glyphName="I" x="0" y="0" flags="0x1004"/>
    </TTGlyph>
    <TTGlyph name="Itilde" xMin="59" yMin="-3" xMax="322" yMax="766">
      <component glyphName="tilde" x="70" y="397" flags="0x1004"/>
      <component glyphName="I" x="0" y="0" flags="0x1004"/>
    </TTGlyph>
    <TTGlyph name="J" xMin="-75" yMin="-214" xMax="321" yMax="626">
      <contour>
        <pt x="253" y="583" on="1"/>
        <pt x="249" y="523" on="0"/>
        <pt x="249" y="265" on="1"/>
        <pt x="249" y="233" on="0"/>
        <pt x="250" y="127" on="0"/>
        <pt x="250" y="104" on="1"/>
        <pt x="250" y="11" on="0"/>
        <pt x="230" y="-102" on="0"/>
        <pt x="201" y="-143" on="1"/>
        <pt x="150" y="-214" on="0"/>
        <pt x="54" y="-214" on="1"/>
        <pt x="-11" y="-214" on="0"/>
        <pt x="-75" y="-165" on="0"/>
        <pt x="-75" y="-131" on="1"/>
        <pt x="-75" y="-104" on="0"/>
        <pt x="-38" y="-65" on="0"/>
        <pt x="-10" y="-65" on="1"/>
        <pt x="21" y="-65" on="0"/>
        <pt x="57" y="-100" on="0"/>
        <pt x="57" y="-126" on="1"/>
        <pt x="57" y="-166" on="0"/>
        <pt x="17" y="-191" on="1"/>
        <pt x="30" y="-198" on="0"/>
        <pt x="73" y="-199" on="0"/>
        <pt x="113" y="-184" on="0"/>
        <pt x="121" y="-172" on="1"/>
        <pt x="138" y="-144" on="0"/>
        <pt x="150" y="-92" on="0"/>
        <pt x="154" y="-27" on="1"/>
        <pt x="159" y="65" on="0"/>
        <pt x="159" y="313" on="1"/>
        <pt x="159" y="554" on="0"/>
        <pt x="155" y="585" on="1"/>
        <pt x="153" y="596" on="0"/>
        <pt x="117" y="604" on="1"/>
        <pt x="81" y="611" on="1"/>
        <pt x="81" y="626" on="1"/>
        <pt x="128" y="622" on="0"/>
        <pt x="201" y="622" on="1"/>
        <pt x="277" y="622" on="0"/>
        <pt x="321" y="626" on="1"/>
        <pt x="321" y="606" on="1"/>
        <pt x="310" y="606" on="0"/>
        <pt x="286" y="603" on="0"/>
        <pt x="266" y="600" on="0"/>
        <pt x="254" y="590" on="0"/>
      </contour>
    </TTGlyph>
    <TTGlyph name="Jcircumflex" xMin="-75" yMin="-214" xMax="337" yMax="795">
      <component glyphName="circumflex" x="0" y="186" flags="0x1004"/>
      <component glyphName="J" x="0" y="0" flags="0x1004"/>
    </TTGlyph>
    <TTGlyph name="K" xMin="59" yMin="-4" xMax="686" yMax="626">
      <contour>
        <pt x="471" y="545" on="1"/>
        <pt x="472" y="548" on="0"/>
        <pt x="480" y="566" on="0"/>
        <pt x="480" y="569" on="1"/>
        <pt x="479" y="588" on="0"/>
        <pt x="446" y="607" on="0"/>
        <pt x="429" y="608" on="1"/>
        <pt x="427" y="623" on="1"/>
        <pt x="461" y="621" on="0"/>
        <pt x="500" y="621" on="1"/>
        <pt x="569" y="621" on="0"/>
        <pt x="624" y="626" on="1"/>
        <pt x="624" y="611" on="1"/>
        <pt x="609" y="610" on="1"/>
        <pt x="595" y="608" on="0"/>
        <pt x="553" y="594" on="0"/>
        <pt x="541" y="582" on="1"/>
        <pt x="493" y="537" on="0"/>
        <pt x="402" y="428" on="0"/>
        <pt x="350" y="360" on="1"/>
        <pt x="391" y="307" on="0"/>
        <pt x="469" y="198" on="0"/>
        <pt x="529" y="119" on="0"/>
        <pt x="577" y="66" on="1"/>
        <pt x="600" y="40" on="0"/>
        <pt x="647" y="22" on="0"/>
        <pt x="686" y="18" on="1"/>
        <pt x="684" y="-1" on="1"/>
        <pt x="540" y="5" on="0"/>
        <pt x="539" y="5" on="1"/>
        <pt x="507" y="5" on="0"/>
        <pt x="479" y="2" on="1"/>
        <pt x="353" y="205" on="0"/>
        <pt x="287" y="297" on="1"/>
        <pt x="236" y="231" on="1"/>
        <pt x="234" y="44" on="1"/>
        <pt x="234" y="15" on="0"/>
        <pt x="310" y="15" on="1"/>
        <pt x="311" y="-1" on="1"/>
        <pt x="279" y="0" on="0"/>
        <pt x="234" y="0" on="1"/>
        <pt x="135" y="0" on="0"/>
        <pt x="59" y="-4" on="1"/>
        <pt x="59" y="12" on="1"/>
        <pt x="59" y="12" on="0"/>
        <pt x="63" y="12" on="1"/>
        <pt x="124" y="12" on="0"/>
        <pt x="131" y="35" on="1"/>
        <pt x="138" y="65" on="0"/>
        <pt x="138" y="433" on="1"/>
        <pt x="138" y="574" on="0"/>
        <pt x="136" y="585" on="1"/>
        <pt x="133" y="596" on="0"/>
        <pt x="98" y="604" on="1"/>
        <pt x="62" y="611" on="1"/>
        <pt x="62" y="626" on="1"/>
        <pt x="109" y="622" on="0"/>
        <pt x="186" y="622" on="1"/>
        <pt x="268" y="622" on="0"/>
        <pt x="312" y="626" on="1"/>
        <pt x="312" y="606" on="1"/>
        <pt x="238" y="601" on="0"/>
        <pt x="234" y="583" on="1"/>
        <pt x="234" y="259" on="1"/>
        <pt x="350" y="394" on="1"/>
        <pt x="465" y="530" on="0"/>
      </contour>
    </TTGlyph>
    <TTGlyph name="Kcommaaccent" xMin="59" yMin="-4" xMax="686" yMax="626">
      <component glyphName="K" x="0" y="0" flags="0x1004"/>
    </TTGlyph>
    <TTGlyph name="L" xMin="49" yMin="-3" xMax="526" yMax="630">
      <contour>
        <pt x="245" y="68" on="1"/>
        <pt x="245" y="23" on="0"/>
        <pt x="281" y="23" on="1"/>
        <pt x="281" y="23" on="0"/>
        <pt x="410" y="22" on="1"/>
        <pt x="445" y="22" on="0"/>
        <pt x="498" y="100" on="0"/>
        <pt x="504" y="152" on="1"/>
        <pt x="526" y="152" on="1"/>
        <pt x="510" y="-3" on="1"/>
        <pt x="49" y="-3" on="1"/>
        <pt x="49" y="13" on="1"/>
        <pt x="72" y="14" on="1"/>
        <pt x="96" y="16" on="0"/>
        <pt x="142" y="30" on="0"/>
        <pt x="143" y="41" on="1"/>
        <pt x="148" y="95" on="0"/>
        <pt x="148" y="386" on="1"/>
        <pt x="148" y="551" on="0"/>
        <pt x="146" y="585" on="1"/>
        <pt x="145" y="598" on="0"/>
        <pt x="104" y="604" on="1"/>
        <pt x="62" y="611" on="1"/>
        <pt x="62" y="629" on="1"/>
        <pt x="319" y="630" on="1"/>
        <pt x="319" y="614" on="1"/>
        <pt x="249" y="610" on="0"/>
        <pt x="247" y="585" on="1"/>
        <pt x="244" y="346" on="0"/>
        <pt x="244" y="297" on="1"/>
        <pt x="244" y="272" on="0"/>
        <pt x="245" y="130" on="0"/>
      </contour>
    </TTGlyph>
    <TTGlyph name="Lacute" xMin="49" yMin="-3" xMax="526" yMax="630">
      <component glyphName="L" x="0" y="0" flags="0x1004"/>
    </TTGlyph>
    <TTGlyph name="Lcaron" xMin="49" yMin="-3" xMax="526" yMax="630">
      <component glyphName="L" x="0" y="0" flags="0x1004"/>
    </TTGlyph>
    <TTGlyph name="Lcommaaccent" xMin="49" yMin="-3" xMax="526" yMax="630">
      <component glyphName="L" x="0" y="0" flags="0x1004"/>
    </TTGlyph>
    <TTGlyph name="Ldot" xMin="49" yMin="-3" xMax="526" yMax="630">
      <component glyphName="L" x="0" y="0" flags="0x1004"/>
    </TTGlyph>
    <TTGlyph name="Lslash" xMin="49" yMin="-3" xMax="526" yMax="630">
      <component glyphName="L" x="0" y="0" flags="0x1004"/>
    </TTGlyph>
    <TTGlyph name="M" xMin="20" yMin="-14" xMax="861" yMax="630">
      <contour>
        <pt x="208" y="627" on="1"/>
        <pt x="455" y="151" on="0"/>
        <pt x="468" y="121" on="1"/>
        <pt x="689" y="623" on="1"/>
        <pt x="861" y="630" on="1"/>
        <pt x="861" y="610" on="1"/>
        <pt x="848" y="609" on="0"/>
        <pt x="811" y="603" on="0"/>
        <pt x="766" y="586" on="0"/>
        <pt x="766" y="574" on="1"/>
        <pt x="766" y="59" on="1"/>
        <pt x="774" y="45" on="1"/>
        <pt x="782" y="31" on="0"/>
        <pt x="796" y="23" on="1"/>
        <pt x="811" y="15" on="0"/>
        <pt x="835" y="14" on="1"/>
        <pt x="859" y="16" on="1"/>
        <pt x="859" y="-2" on="1"/>
        <pt x="802" y="0" on="0"/>
        <pt x="724" y="0" on="1"/>
        <pt x="637" y="0" on="0"/>
        <pt x="591" y="-3" on="1"/>
        <pt x="591" y="13" on="1"/>
        <pt x="593" y="13" on="0"/>
        <pt x="637" y="17" on="0"/>
        <pt x="648" y="23" on="1"/>
        <pt x="675" y="35" on="0"/>
        <pt x="675" y="55" on="1"/>
        <pt x="675" y="508" on="1"/>
        <pt x="440" y="-14" on="1"/>
        <pt x="424" y="-14" on="1"/>
        <pt x="161" y="502" on="1"/>
        <pt x="161" y="502" on="0"/>
        <pt x="161" y="239" on="1"/>
        <pt x="161" y="126" on="0"/>
        <pt x="161" y="70" on="1"/>
        <pt x="161" y="52" on="0"/>
        <pt x="165" y="39" on="0"/>
        <pt x="180" y="30" on="0"/>
        <pt x="185" y="25" on="1"/>
        <pt x="207" y="17" on="0"/>
        <pt x="239" y="16" on="1"/>
        <pt x="240" y="16" on="0"/>
        <pt x="244" y="16" on="0"/>
        <pt x="245" y="16" on="1"/>
        <pt x="245" y="-2" on="1"/>
        <pt x="196" y="1" on="0"/>
        <pt x="139" y="1" on="1"/>
        <pt x="76" y="1" on="0"/>
        <pt x="28" y="-3" on="1"/>
        <pt x="28" y="13" on="1"/>
        <pt x="68" y="18" on="1"/>
        <pt x="108" y="24" on="0"/>
        <pt x="120" y="35" on="1"/>
        <pt x="127" y="41" on="0"/>
        <pt x="131" y="51" on="1"/>
        <pt x="134" y="61" on="1"/>
        <pt x="136" y="61" on="0"/>
        <pt x="136" y="530" on="1"/>
        <pt x="131" y="560" on="0"/>
        <pt x="57" y="602" on="0"/>
        <pt x="20" y="605" on="1"/>
        <pt x="20" y="623" on="1"/>
      </contour>
    </TTGlyph>
    <TTGlyph name="N" xMin="20" yMin="-11" xMax="667" yMax="629">
      <contour>
        <pt x="667" y="604" on="1"/>
        <pt x="653" y="603" on="0"/>
        <pt x="618" y="598" on="0"/>
        <pt x="578" y="584" on="0"/>
        <pt x="578" y="573" on="1"/>
        <pt x="576" y="540" on="0"/>
        <pt x="575" y="389" on="1"/>
        <pt x="578" y="-11" on="1"/>
        <pt x="543" y="-11" on="1"/>
        <pt x="352" y="250" on="1"/>
        <pt x="162" y="511" on="0"/>
        <pt x="151" y="522" on="1"/>
        <pt x="150" y="437" on="0"/>
        <pt x="150" y="383" on="1"/>
        <pt x="150" y="315" on="0"/>
        <pt x="155" y="191" on="0"/>
        <pt x="155" y="99" on="1"/>
        <pt x="155" y="81" on="0"/>
        <pt x="155" y="59" on="1"/>
        <pt x="155" y="18" on="0"/>
        <pt x="190" y="18" on="1"/>
        <pt x="247" y="18" on="0"/>
        <pt x="248" y="16" on="1"/>
        <pt x="248" y="-2" on="1"/>
        <pt x="199" y="1" on="0"/>
        <pt x="137" y="1" on="1"/>
        <pt x="68" y="1" on="0"/>
        <pt x="20" y="-3" on="1"/>
        <pt x="20" y="13" on="1"/>
        <pt x="20" y="13" on="0"/>
        <pt x="26" y="13" on="1"/>
        <pt x="108" y="13" on="0"/>
        <pt x="113" y="36" on="1"/>
        <pt x="118" y="334" on="0"/>
        <pt x="118" y="385" on="1"/>
        <pt x="118" y="462" on="0"/>
        <pt x="116" y="563" on="1"/>
        <pt x="114" y="574" on="0"/>
        <pt x="69" y="593" on="1"/>
        <pt x="24" y="611" on="1"/>
        <pt x="24" y="629" on="1"/>
        <pt x="209" y="628" on="1"/>
        <pt x="268" y="546" on="0"/>
        <pt x="403" y="370" on="1"/>
        <pt x="540" y="194" on="1"/>
        <pt x="541" y="573" on="1"/>
        <pt x="540" y="587" on="0"/>
        <pt x="492" y="604" on="0"/>
        <pt x="459" y="604" on="1"/>
        <pt x="452" y="604" on="0"/>
        <pt x="444" y="604" on="1"/>
        <pt x="442" y="627" on="1"/>
        <pt x="484" y="622" on="0"/>
        <pt x="546" y="622" on="1"/>
        <pt x="603" y="622" on="0"/>
        <pt x="667" y="626" on="1"/>
      </contour>
    </TTGlyph>
    <TTGlyph name="Nacute" xMin="20" yMin="-11" xMax="667" yMax="786">
      <component glyphName="acute" x="152" y="166" flags="0x1004"/>
      <component glyphName="N" x="0" y="0" flags="0x1004"/>
    </TTGlyph>
    <TTGlyph name="Ncaron" xMin="20" yMin="-11" xMax="667" yMax="791">
      <component glyphName="caron" x="145" y="182" flags="0x1004"/>
      <component glyphName="N" x="0" y="0" flags="0x1004"/>
    </TTGlyph>
    <TTGlyph name="Ncommaaccent" xMin="20" yMin="-11" xMax="667" yMax="629">
      <component glyphName="N" x="0" y="0" flags="0x1004"/>
    </TTGlyph>
    <TTGlyph name="Ntilde" xMin="20" yMin="-11" xMax="667" yMax="764">
      <component glyphName="tilde" x="213" y="395" flags="0x1004"/>
      <component glyphName="N" x="0" y="0" flags="0x1004"/>
    </TTGlyph>
    <TTGlyph name="O" xMin="49" yMin="-12" xMax="743" yMax="651">
      <contour>
        <pt x="416" y="8" on="1"/>
        <pt x="510" y="8" on="0"/>
        <pt x="629" y="179" on="0"/>
        <pt x="629" y="312" on="1"/>
        <pt x="629" y="470" on="0"/>
        <pt x="513" y="634" on="0"/>
        <pt x="408" y="634" on="1"/>
        <pt x="358" y="634" on="0"/>
        <pt x="279" y="606" on="0"/>
        <pt x="207" y="540" on="0"/>
        <pt x="168" y="407" on="0"/>
        <pt x="168" y="311" on="1"/>
        <pt x="168" y="275" on="0"/>
        <pt x="181" y="200" on="0"/>
        <pt x="217" y="116" on="0"/>
        <pt x="270" y="51" on="0"/>
        <pt x="360" y="8" on="0"/>
      </contour>
      <contour>
        <pt x="416" y="651" on="1"/>
        <pt x="452" y="651" on="0"/>
        <pt x="530" y="635" on="0"/>
        <pt x="624" y="588" on="0"/>
        <pt x="695" y="516" on="0"/>
        <pt x="743" y="391" on="0"/>
        <pt x="743" y="312" on="1"/>
        <pt x="743" y="235" on="0"/>
        <pt x="682" y="109" on="0"/>
        <pt x="584" y="30" on="0"/>
        <pt x="470" y="-12" on="0"/>
        <pt x="414" y="-12" on="1"/>
        <pt x="263" y="-12" on="0"/>
        <pt x="49" y="161" on="0"/>
        <pt x="49" y="304" on="1"/>
        <pt x="49" y="386" on="0"/>
        <pt x="96" y="512" on="0"/>
        <pt x="170" y="587" on="0"/>
        <pt x="271" y="634" on="0"/>
        <pt x="366" y="651" on="0"/>
      </contour>
    </TTGlyph>
    <TTGlyph name="OE" xMin="49" yMin="-12" xMax="743" yMax="651">
      <component glyphName="O" x="0" y="0" flags="0x1004"/>
    </TTGlyph>
    <TTGlyph name="Oacute" xMin="49" yMin="-12" xMax="743" yMax="826">
      <component glyphName="acute" x="195" y="206" flags="0x1004"/>
      <component glyphName="O" x="0" y="0" flags="0x1004"/>
    </TTGlyph>
    <TTGlyph name="Obreve" xMin="49" yMin="-12" xMax="743" yMax="651">
      <component glyphName="O" x="0" y="0" flags="0x1004"/>
    </TTGlyph>
    <TTGlyph name="Ocircumflex" xMin="49" yMin="-12" xMax="743" yMax="814">
      <component glyphName="asciicircum" x="203" y="210" flags="0x1004"/>
      <component glyphName="O" x="0" y="0" flags="0x1004"/>
    </TTGlyph>
    <TTGlyph name="Odieresis" xMin="49" yMin="-12" xMax="743" yMax="734">
      <component glyphName="dieresis" x="205" y="175" flags="0x1004"/>
      <component glyphName="O" x="0" y="0" flags="0x1004"/>
    </TTGlyph>
    <TTGlyph name="Ograve" xMin="49" yMin="-12" xMax="743" yMax="821">
      <component glyphName="grave" x="233" y="200" flags="0x1004"/>
      <component glyphName="O" x="0" y="0" flags="0x1004"/>
    </TTGlyph>
    <TTGlyph name="Ohungarumlaut" xMin="49" yMin="-12" xMax="743" yMax="862">
      <component glyphName="hungarumlaut" x="221" y="224" flags="0x1004"/>
      <component glyphName="O" x="0" y="0" flags="0x1004"/>
    </TTGlyph>
    <TTGlyph name="Omacron" xMin="49" yMin="-12" xMax="743" yMax="651">
      <component glyphName="O" x="0" y="0" flags="0x1004"/>
    </TTGlyph>
    <TTGlyph name="Oslash" xMin="49" yMin="-12" xMax="743" yMax="651">
      <component glyphName="O" x="0" y="0" flags="0x1004"/>
    </TTGlyph>
    <TTGlyph name="Otilde" xMin="49" yMin="-12" xMax="743" yMax="762">
      <component glyphName="tilde" x="319" y="393" flags="0x1004"/>
      <component glyphName="O" x="0" y="0" flags="0x1004"/>
    </TTGlyph>
    <TTGlyph name="P" xMin="60" yMin="-3" xMax="534" yMax="629">
      <contour>
        <pt x="534" y="447" on="1"/>
        <pt x="534" y="372" on="0"/>
        <pt x="420" y="284" on="0"/>
        <pt x="321" y="284" on="1"/>
        <pt x="286" y="284" on="0"/>
        <pt x="266" y="289" on="1"/>
        <pt x="246" y="295" on="1"/>
        <pt x="245" y="47" on="1"/>
        <pt x="245" y="29" on="0"/>
        <pt x="287" y="11" on="0"/>
        <pt x="317" y="11" on="1"/>
        <pt x="325" y="11" on="0"/>
        <pt x="334" y="12" on="1"/>
        <pt x="334" y="-3" on="1"/>
        <pt x="334" y="-1" on="0"/>
        <pt x="60" y="-1" on="1"/>
        <pt x="60" y="15" on="1"/>
        <pt x="60" y="15" on="0"/>
        <pt x="65" y="15" on="1"/>
        <pt x="140" y="15" on="0"/>
        <pt x="142" y="38" on="1"/>
        <pt x="145" y="68" on="0"/>
        <pt x="145" y="531" on="0"/>
        <pt x="142" y="585" on="1"/>
        <pt x="141" y="598" on="0"/>
        <pt x="108" y="604" on="1"/>
        <pt x="74" y="611" on="1"/>
        <pt x="74" y="629" on="1"/>
        <pt x="133" y="629" on="0"/>
        <pt x="319" y="627" on="0"/>
        <pt x="344" y="627" on="1"/>
        <pt x="412" y="627" on="0"/>
        <pt x="534" y="529" on="0"/>
      </contour>
      <contour>
        <pt x="433" y="447" on="1"/>
        <pt x="433" y="478" on="0"/>
        <pt x="428" y="521" on="0"/>
        <pt x="411" y="567" on="0"/>
        <pt x="372" y="596" on="0"/>
        <pt x="342" y="601" on="1"/>
        <pt x="325" y="604" on="0"/>
        <pt x="300" y="604" on="1"/>
        <pt x="291" y="604" on="0"/>
        <pt x="255" y="603" on="0"/>
        <pt x="246" y="603" on="1"/>
        <pt x="246" y="310" on="1"/>
        <pt x="246" y="305" on="0"/>
        <pt x="313" y="305" on="1"/>
        <pt x="371" y="305" on="0"/>
        <pt x="432" y="390" on="0"/>
      </contour>
    </TTGlyph>
    <TTGlyph name="Q" xMin="37" yMin="-216" xMax="743" yMax="651">
      <contour>
        <pt x="650" y="-139" on="1"/>
        <pt x="686" y="-139" on="0"/>
        <pt x="715" y="-95" on="0"/>
        <pt x="715" y="-54" on="1"/>
        <pt x="715" y="-52" on="0"/>
        <pt x="715" y="-49" on="1"/>
        <pt x="743" y="-43" on="1"/>
        <pt x="743" y="-49" on="0"/>
        <pt x="743" y="-55" on="1"/>
        <pt x="743" y="-122" on="0"/>
        <pt x="691" y="-216" on="0"/>
        <pt x="638" y="-216" on="1"/>
        <pt x="594" y="-216" on="0"/>
        <pt x="514" y="-183" on="0"/>
        <pt x="457" y="-137" on="0"/>
        <pt x="403" y="-91" on="0"/>
        <pt x="346" y="-58" on="0"/>
        <pt x="317" y="-58" on="1"/>
        <pt x="295" y="-58" on="0"/>
        <pt x="260" y="-101" on="0"/>
        <pt x="247" y="-138" on="0"/>
        <pt x="246" y="-146" on="1"/>
        <pt x="227" y="-142" on="1"/>
        <pt x="227" y="-124" on="0"/>
        <pt x="252" y="-62" on="0"/>
        <pt x="270" y="-44" on="1"/>
        <pt x="281" y="-34" on="0"/>
        <pt x="331" y="-19" on="0"/>
        <pt x="354" y="-19" on="1"/>
        <pt x="354" y="-19" on="0"/>
        <pt x="355" y="-19" on="1"/>
        <pt x="396" y="-19" on="0"/>
        <pt x="500" y="-80" on="0"/>
        <pt x="605" y="-139" on="0"/>
      </contour>
      <contour>
        <pt x="381" y="-12" on="1"/>
        <pt x="233" y="-12" on="0"/>
        <pt x="37" y="162" on="0"/>
        <pt x="37" y="306" on="1"/>
        <pt x="37" y="388" on="0"/>
        <pt x="82" y="513" on="0"/>
        <pt x="153" y="588" on="0"/>
        <pt x="251" y="635" on="0"/>
        <pt x="343" y="651" on="0"/>
        <pt x="393" y="651" on="1"/>
        <pt x="429" y="651" on="0"/>
        <pt x="505" y="634" on="0"/>
        <pt x="594" y="587" on="0"/>
        <pt x="662" y="514" on="0"/>
        <pt x="708" y="390" on="0"/>
        <pt x="708" y="312" on="1"/>
        <pt x="708" y="179" on="0"/>
        <pt x="504" y="-12" on="0"/>
      </contour>
      <contour>
        <pt x="385" y="634" on="1"/>
        <pt x="335" y="634" on="0"/>
        <pt x="259" y="607" on="0"/>
        <pt x="191" y="541" on="0"/>
        <pt x="156" y="409" on="0"/>
        <pt x="156" y="313" on="1"/>
        <pt x="156" y="276" on="0"/>
        <pt x="165" y="204" on="0"/>
        <pt x="194" y="117" on="0"/>
        <pt x="239" y="52" on="0"/>
        <pt x="321" y="8" on="0"/>
        <pt x="375" y="8" on="1"/>
        <pt x="410" y="8" on="0"/>
        <pt x="467" y="18" on="0"/>
        <pt x="510" y="36" on="0"/>
        <pt x="543" y="66" on="0"/>
        <pt x="564" y="93" on="0"/>
        <pt x="580" y="138" on="0"/>
        <pt x="588" y="173" on="0"/>
        <pt x="592" y="228" on="0"/>
        <pt x="593" y="265" on="0"/>
        <pt x="593" y="295" on="1"/>
        <pt x="593" y="354" on="0"/>
        <pt x="582" y="451" on="0"/>
        <pt x="553" y="540" on="0"/>
        <pt x="507" y="599" on="0"/>
        <pt x="433" y="634" on="0"/>
      </contour>
    </TTGlyph>
    <TTGlyph name="R" xMin="49" yMin="-2" xMax="630" yMax="627">
      <contour>
        <pt x="630" y="-2" on="1"/>
        <pt x="449" y="1" on="1"/>
        <pt x="449" y="5" on="0"/>
        <pt x="449" y="9" on="1"/>
        <pt x="449" y="46" on="0"/>
        <pt x="422" y="147" on="1"/>
        <pt x="376" y="315" on="0"/>
        <pt x="300" y="316" on="1"/>
        <pt x="233" y="317" on="1"/>
        <pt x="234" y="69" on="1"/>
        <pt x="234" y="54" on="0"/>
        <pt x="238" y="35" on="0"/>
        <pt x="254" y="19" on="0"/>
        <pt x="269" y="19" on="1"/>
        <pt x="313" y="18" on="0"/>
        <pt x="313" y="17" on="1"/>
        <pt x="312" y="-2" on="1"/>
        <pt x="256" y="2" on="0"/>
        <pt x="163" y="2" on="1"/>
        <pt x="89" y="2" on="0"/>
        <pt x="49" y="-1" on="1"/>
        <pt x="49" y="16" on="1"/>
        <pt x="127" y="16" on="0"/>
        <pt x="131" y="39" on="1"/>
        <pt x="135" y="55" on="0"/>
        <pt x="135" y="74" on="1"/>
        <pt x="139" y="175" on="0"/>
        <pt x="139" y="329" on="1"/>
        <pt x="139" y="558" on="0"/>
        <pt x="135" y="582" on="1"/>
        <pt x="133" y="593" on="0"/>
        <pt x="98" y="601" on="1"/>
        <pt x="62" y="609" on="1"/>
        <pt x="62" y="627" on="1"/>
        <pt x="121" y="625" on="0"/>
        <pt x="202" y="625" on="1"/>
        <pt x="235" y="625" on="0"/>
        <pt x="335" y="626" on="0"/>
        <pt x="349" y="626" on="1"/>
        <pt x="387" y="626" on="0"/>
        <pt x="463" y="591" on="0"/>
        <pt x="518" y="517" on="0"/>
        <pt x="518" y="470" on="1"/>
        <pt x="518" y="419" on="0"/>
        <pt x="420" y="336" on="0"/>
        <pt x="353" y="334" on="1"/>
        <pt x="384" y="331" on="0"/>
        <pt x="436" y="302" on="0"/>
        <pt x="468" y="270" on="0"/>
        <pt x="501" y="210" on="0"/>
        <pt x="514" y="174" on="0"/>
        <pt x="527" y="139" on="1"/>
        <pt x="558" y="57" on="0"/>
        <pt x="567" y="45" on="1"/>
        <pt x="589" y="14" on="0"/>
        <pt x="630" y="12" on="1"/>
      </contour>
      <contour>
        <pt x="344" y="600" on="1"/>
        <pt x="322" y="605" on="0"/>
        <pt x="289" y="605" on="1"/>
        <pt x="259" y="605" on="0"/>
        <pt x="234" y="602" on="1"/>
        <pt x="234" y="341" on="1"/>
        <pt x="302" y="340" on="0"/>
        <pt x="303" y="340" on="1"/>
        <pt x="359" y="340" on="0"/>
        <pt x="418" y="418" on="0"/>
        <pt x="418" y="472" on="1"/>
        <pt x="418" y="518" on="0"/>
        <pt x="378" y="592" on="0"/>
      </contour>
    </TTGlyph>
    <TTGlyph name="Racute" xMin="49" yMin="-2" xMax="630" yMax="627">
      <component glyphName="R" x="0" y="0" flags="0x1004"/>
    </TTGlyph>
    <TTGlyph name="Rcaron" xMin="49" yMin="-2" xMax="630" yMax="797">
      <component glyphName="caron" x="94" y="188" flags="0x1004"/>
      <component glyphName="R" x="0" y="0" flags="0x1004"/>
    </TTGlyph>
    <TTGlyph name="Rcommaaccent" xMin="49" yMin="-2" xMax="630" yMax="627">
      <component glyphName="R" x="0" y="0" flags="0x1004"/>
    </TTGlyph>
    <TTGlyph name="S" xMin="83" yMin="-15" xMax="534" yMax="653">
      <contour>
        <pt x="301" y="653" on="1"/>
        <pt x="378" y="653" on="0"/>
        <pt x="432" y="596" on="1"/>
        <pt x="457" y="599" on="0"/>
        <pt x="472" y="638" on="1"/>
        <pt x="486" y="638" on="1"/>
        <pt x="483" y="444" on="1"/>
        <pt x="483" y="444" on="0"/>
        <pt x="464" y="444" on="1"/>
        <pt x="461" y="479" on="0"/>
        <pt x="451" y="542" on="0"/>
        <pt x="434" y="565" on="1"/>
        <pt x="387" y="634" on="0"/>
        <pt x="299" y="634" on="1"/>
        <pt x="252" y="634" on="0"/>
        <pt x="186" y="561" on="0"/>
        <pt x="186" y="522" on="1"/>
        <pt x="186" y="480" on="0"/>
        <pt x="266" y="406" on="0"/>
        <pt x="332" y="382" on="1"/>
        <pt x="423" y="348" on="0"/>
        <pt x="534" y="242" on="0"/>
        <pt x="534" y="176" on="1"/>
        <pt x="534" y="91" on="0"/>
        <pt x="422" y="-15" on="0"/>
        <pt x="292" y="-15" on="1"/>
        <pt x="264" y="-15" on="0"/>
        <pt x="212" y="-3" on="0"/>
        <pt x="179" y="15" on="0"/>
        <pt x="148" y="34" on="0"/>
        <pt x="141" y="40" on="1"/>
        <pt x="121" y="31" on="0"/>
        <pt x="104" y="-1" on="1"/>
        <pt x="83" y="-1" on="1"/>
        <pt x="85" y="181" on="1"/>
        <pt x="105" y="181" on="1"/>
        <pt x="122" y="99" on="0"/>
        <pt x="205" y="9" on="0"/>
        <pt x="288" y="9" on="1"/>
        <pt x="428" y="9" on="0"/>
        <pt x="428" y="144" on="1"/>
        <pt x="428" y="232" on="0"/>
        <pt x="280" y="284" on="1"/>
        <pt x="200" y="312" on="0"/>
        <pt x="108" y="415" on="0"/>
        <pt x="108" y="473" on="1"/>
        <pt x="107" y="653" on="0"/>
      </contour>
    </TTGlyph>
    <TTGlyph name="Sacute" xMin="83" yMin="-15" xMax="534" yMax="829">
      <component glyphName="acute" x="72" y="209" flags="0x1004"/>
      <component glyphName="S" x="0" y="0" flags="0x1004"/>
    </TTGlyph>
    <TTGlyph name="Scaron" xMin="83" yMin="-15" xMax="534" yMax="827">
      <component glyphName="caron" x="111" y="218" flags="0x1004"/>
      <component glyphName="S" x="0" y="0" flags="0x1004"/>
    </TTGlyph>
    <TTGlyph name="Scedilla" xMin="83" yMin="-193" xMax="534" yMax="653">
      <contour>
        <pt x="291" y="-1" on="1"/>
        <pt x="313" y="-2" on="1"/>
        <pt x="294" y="-53" on="1"/>
        <pt x="348" y="-53" on="0"/>
        <pt x="384" y="-79" on="0"/>
        <pt x="384" y="-105" on="1"/>
        <pt x="384" y="-138" on="0"/>
        <pt x="304" y="-193" on="0"/>
        <pt x="245" y="-193" on="1"/>
        <pt x="247" y="-171" on="1"/>
        <pt x="294" y="-171" on="0"/>
        <pt x="339" y="-148" on="0"/>
        <pt x="339" y="-118" on="1"/>
        <pt x="339" y="-87" on="0"/>
        <pt x="254" y="-87" on="1"/>
      </contour>
      <contour>
        <pt x="301" y="653" on="1"/>
        <pt x="378" y="653" on="0"/>
        <pt x="432" y="596" on="1"/>
        <pt x="457" y="599" on="0"/>
        <pt x="472" y="638" on="1"/>
        <pt x="486" y="638" on="1"/>
        <pt x="483" y="444" on="1"/>
        <pt x="464" y="444" on="1"/>
        <pt x="461" y="479" on="0"/>
        <pt x="451" y="542" on="0"/>
        <pt x="434" y="565" on="1"/>
        <pt x="387" y="634" on="0"/>
        <pt x="299" y="634" on="1"/>
        <pt x="252" y="634" on="0"/>
        <pt x="186" y="561" on="0"/>
        <pt x="186" y="522" on="1"/>
        <pt x="186" y="480" on="0"/>
        <pt x="266" y="406" on="0"/>
        <pt x="332" y="382" on="1"/>
        <pt x="423" y="348" on="0"/>
        <pt x="534" y="242" on="0"/>
        <pt x="534" y="176" on="1"/>
        <pt x="534" y="91" on="0"/>
        <pt x="422" y="-15" on="0"/>
        <pt x="292" y="-15" on="1"/>
        <pt x="264" y="-15" on="0"/>
        <pt x="212" y="-3" on="0"/>
        <pt x="179" y="15" on="0"/>
        <pt x="148" y="34" on="0"/>
        <pt x="141" y="40" on="1"/>
        <pt x="121" y="31" on="0"/>
        <pt x="104" y="-1" on="1"/>
        <pt x="83" y="-1" on="1"/>
        <pt x="85" y="181" on="1"/>
        <pt x="105" y="181" on="1"/>
        <pt x="122" y="99" on="0"/>
        <pt x="205" y="9" on="0"/>
        <pt x="288" y="9" on="1"/>
        <pt x="428" y="9" on="0"/>
        <pt x="428" y="144" on="1"/>
        <pt x="428" y="232" on="0"/>
        <pt x="280" y="284" on="1"/>
        <pt x="200" y="312" on="0"/>
        <pt x="108" y="415" on="0"/>
        <pt x="108" y="473" on="1"/>
        <pt x="107" y="653" on="0"/>
      </contour>
    </TTGlyph>
    <TTGlyph name="Scircumflex" xMin="83" yMin="-15" xMax="534" yMax="653">
      <component glyphName="S" x="0" y="0" flags="0x1004"/>
    </TTGlyph>
    <TTGlyph name="T" xMin="35" yMin="-1" xMax="578" yMax="629">
      <contour>
        <pt x="232" y="37" on="1"/>
        <pt x="254" y="65" on="0"/>
        <pt x="254" y="94" on="1"/>
        <pt x="255" y="605" on="1"/>
        <pt x="151" y="606" on="0"/>
        <pt x="150" y="606" on="1"/>
        <pt x="126" y="606" on="0"/>
        <pt x="88" y="570" on="0"/>
        <pt x="68" y="517" on="0"/>
        <pt x="55" y="466" on="0"/>
        <pt x="54" y="443" on="1"/>
        <pt x="35" y="443" on="1"/>
        <pt x="39" y="629" on="1"/>
        <pt x="151" y="626" on="0"/>
        <pt x="324" y="626" on="1"/>
        <pt x="487" y="626" on="0"/>
        <pt x="575" y="629" on="1"/>
        <pt x="578" y="443" on="1"/>
        <pt x="558" y="443" on="1"/>
        <pt x="549" y="603" on="0"/>
        <pt x="475" y="604" on="1"/>
        <pt x="358" y="605" on="1"/>
        <pt x="359" y="94" on="1"/>
        <pt x="359" y="59" on="0"/>
        <pt x="378" y="37" on="1"/>
        <pt x="393" y="19" on="0"/>
        <pt x="460" y="18" on="1"/>
        <pt x="460" y="-1" on="1"/>
        <pt x="153" y="-1" on="1"/>
        <pt x="153" y="18" on="1"/>
        <pt x="155" y="18" on="0"/>
        <pt x="163" y="18" on="0"/>
        <pt x="165" y="18" on="1"/>
        <pt x="218" y="19" on="0"/>
      </contour>
    </TTGlyph>
    <TTGlyph name="Tbar" xMin="35" yMin="-1" xMax="578" yMax="629">
      <component glyphName="T" x="0" y="0" flags="0x1004"/>
    </TTGlyph>
    <TTGlyph name="Tcaron" xMin="35" yMin="-1" xMax="578" yMax="827">
      <component glyphName="caron" x="108" y="218" flags="0x1004"/>
      <component glyphName="T" x="0" y="0" flags="0x1004"/>
    </TTGlyph>
    <TTGlyph name="Tcommaaccent" xMin="35" yMin="-1" xMax="578" yMax="629">
      <component glyphName="T" x="0" y="0" flags="0x1004"/>
    </TTGlyph>
    <TTGlyph name="U" xMin="52" yMin="-19" xMax="712" yMax="626">
      <contour>
        <pt x="240" y="218" on="1"/>
        <pt x="240" y="164" on="0"/>
        <pt x="261" y="85" on="0"/>
        <pt x="293" y="42" on="0"/>
        <pt x="342" y="17" on="0"/>
        <pt x="384" y="10" on="0"/>
        <pt x="412" y="10" on="1"/>
        <pt x="451" y="10" on="0"/>
        <pt x="508" y="30" on="0"/>
        <pt x="556" y="76" on="0"/>
        <pt x="581" y="163" on="0"/>
        <pt x="581" y="227" on="1"/>
        <pt x="581" y="238" on="0"/>
        <pt x="581" y="271" on="0"/>
        <pt x="581" y="299" on="1"/>
        <pt x="581" y="437" on="0"/>
        <pt x="577" y="585" on="1"/>
        <pt x="575" y="596" on="0"/>
        <pt x="534" y="604" on="1"/>
        <pt x="493" y="611" on="1"/>
        <pt x="493" y="626" on="1"/>
        <pt x="540" y="622" on="0"/>
        <pt x="602" y="622" on="1"/>
        <pt x="668" y="622" on="0"/>
        <pt x="712" y="626" on="1"/>
        <pt x="712" y="606" on="1"/>
        <pt x="665" y="603" on="0"/>
        <pt x="624" y="583" on="1"/>
        <pt x="621" y="520" on="0"/>
        <pt x="621" y="430" on="1"/>
        <pt x="624" y="239" on="1"/>
        <pt x="624" y="118" on="0"/>
        <pt x="508" y="-15" on="0"/>
        <pt x="394" y="-19" on="1"/>
        <pt x="359" y="-19" on="0"/>
        <pt x="291" y="-6" on="0"/>
        <pt x="219" y="28" on="0"/>
        <pt x="166" y="81" on="0"/>
        <pt x="131" y="168" on="0"/>
        <pt x="131" y="223" on="1"/>
        <pt x="131" y="226" on="0"/>
        <pt x="134" y="285" on="0"/>
        <pt x="138" y="395" on="0"/>
        <pt x="138" y="462" on="1"/>
        <pt x="138" y="523" on="0"/>
        <pt x="136" y="585" on="1"/>
        <pt x="134" y="596" on="0"/>
        <pt x="93" y="604" on="1"/>
        <pt x="52" y="611" on="1"/>
        <pt x="52" y="626" on="1"/>
        <pt x="99" y="622" on="0"/>
        <pt x="183" y="622" on="1"/>
        <pt x="273" y="622" on="0"/>
        <pt x="317" y="626" on="1"/>
        <pt x="317" y="606" on="1"/>
        <pt x="258" y="601" on="0"/>
        <pt x="240" y="583" on="1"/>
        <pt x="239" y="517" on="0"/>
        <pt x="239" y="423" on="1"/>
      </contour>
    </TTGlyph>
    <TTGlyph name="Uacute" xMin="52" yMin="-19" xMax="712" yMax="813">
      <component glyphName="acute" x="227" y="193" flags="0x1004"/>
      <component glyphName="U" x="0" y="0" flags="0x1004"/>
    </TTGlyph>
    <TTGlyph name="Ubreve" xMin="52" yMin="-19" xMax="712" yMax="626">
      <component glyphName="U" x="0" y="0" flags="0x1004"/>
    </TTGlyph>
    <TTGlyph name="Ucircumflex" xMin="52" yMin="-19" xMax="712" yMax="815">
      <component glyphName="asciicircum" x="203" y="211" flags="0x1004"/>
      <component glyphName="U" x="0" y="0" flags="0x1004"/>
    </TTGlyph>
    <TTGlyph name="Udieresis" xMin="52" yMin="-19" xMax="712" yMax="734">
      <component glyphName="dieresis" x="205" y="175" flags="0x1004"/>
      <component glyphName="U" x="0" y="0" flags="0x1004"/>
    </TTGlyph>
    <TTGlyph name="Ugrave" xMin="52" yMin="-19" xMax="712" yMax="810">
      <component glyphName="grave" x="186" y="189" flags="0x1004"/>
      <component glyphName="U" x="0" y="0" flags="0x1004"/>
    </TTGlyph>
    <TTGlyph name="Uhungarumlaut" xMin="52" yMin="-19" xMax="712" yMax="841">
      <component glyphName="hungarumlaut" x="218" y="203" flags="0x1004"/>
      <component glyphName="U" x="0" y="0" flags="0x1004"/>
    </TTGlyph>
    <TTGlyph name="Umacron" xMin="52" yMin="-19" xMax="712" yMax="626">
      <component glyphName="U" x="0" y="0" flags="0x1004"/>
    </TTGlyph>
    <TTGlyph name="Uogonek" xMin="52" yMin="-19" xMax="712" yMax="626">
      <component glyphName="U" x="0" y="0" flags="0x1004"/>
    </TTGlyph>
    <TTGlyph name="Uring" xMin="52" yMin="-19" xMax="712" yMax="626">
      <component glyphName="U" x="0" y="0" flags="0x1004"/>
    </TTGlyph>
    <TTGlyph name="Utilde" xMin="52" yMin="-19" xMax="712" yMax="758">
      <component glyphName="tilde" x="267" y="389" flags="0x1004"/>
      <component glyphName="U" x="0" y="0" flags="0x1004"/>
    </TTGlyph>
    <TTGlyph name="V" xMin="0" yMin="-15" xMax="700" yMax="626">
      <contour>
        <pt x="208" y="551" on="1"/>
        <pt x="293" y="340" on="0"/>
        <pt x="390" y="124" on="1"/>
        <pt x="572" y="547" on="0"/>
        <pt x="572" y="573" on="1"/>
        <pt x="572" y="587" on="0"/>
        <pt x="552" y="595" on="1"/>
        <pt x="492" y="611" on="1"/>
        <pt x="492" y="626" on="1"/>
        <pt x="539" y="622" on="0"/>
        <pt x="597" y="622" on="1"/>
        <pt x="656" y="622" on="0"/>
        <pt x="700" y="626" on="1"/>
        <pt x="700" y="606" on="1"/>
        <pt x="659" y="604" on="0"/>
        <pt x="634" y="589" on="1"/>
        <pt x="625" y="583" on="0"/>
        <pt x="609" y="559" on="1"/>
        <pt x="594" y="536" on="1"/>
        <pt x="567" y="457" on="0"/>
        <pt x="411" y="82" on="0"/>
        <pt x="380" y="-14" on="1"/>
        <pt x="340" y="-15" on="1"/>
        <pt x="290" y="107" on="0"/>
        <pt x="135" y="460" on="0"/>
        <pt x="116" y="508" on="1"/>
        <pt x="89" y="576" on="0"/>
        <pt x="56" y="592" on="1"/>
        <pt x="31" y="604" on="0"/>
        <pt x="0" y="611" on="1"/>
        <pt x="0" y="626" on="1"/>
        <pt x="47" y="622" on="0"/>
        <pt x="143" y="622" on="1"/>
        <pt x="246" y="622" on="0"/>
        <pt x="291" y="626" on="1"/>
        <pt x="291" y="606" on="1"/>
        <pt x="223" y="600" on="0"/>
        <pt x="217" y="589" on="1"/>
        <pt x="212" y="579" on="0"/>
        <pt x="210" y="565" on="1"/>
      </contour>
    </TTGlyph>
    <TTGlyph name="W" xMin="24" yMin="-11" xMax="1016" yMax="636">
      <contour>
        <pt x="367" y="-11" on="1"/>
        <pt x="328" y="-11" on="1"/>
        <pt x="328" y="-11" on="0"/>
        <pt x="139" y="509" on="1"/>
        <pt x="114" y="575" on="0"/>
        <pt x="80" y="592" on="1"/>
        <pt x="55" y="604" on="0"/>
        <pt x="24" y="611" on="1"/>
        <pt x="24" y="626" on="1"/>
        <pt x="71" y="622" on="0"/>
        <pt x="176" y="622" on="1"/>
        <pt x="291" y="622" on="0"/>
        <pt x="335" y="626" on="1"/>
        <pt x="335" y="606" on="1"/>
        <pt x="322" y="605" on="0"/>
        <pt x="256" y="589" on="0"/>
        <pt x="253" y="583" on="1"/>
        <pt x="248" y="572" on="0"/>
        <pt x="248" y="552" on="1"/>
        <pt x="248" y="524" on="0"/>
        <pt x="258" y="494" on="1"/>
        <pt x="277" y="439" on="0"/>
        <pt x="323" y="316" on="0"/>
        <pt x="374" y="185" on="0"/>
        <pt x="384" y="158" on="1"/>
        <pt x="432" y="289" on="0"/>
        <pt x="504" y="519" on="1"/>
        <pt x="540" y="636" on="1"/>
        <pt x="566" y="635" on="1"/>
        <pt x="583" y="568" on="0"/>
        <pt x="729" y="201" on="0"/>
        <pt x="751" y="138" on="1"/>
        <pt x="758" y="161" on="0"/>
        <pt x="834" y="384" on="0"/>
        <pt x="888" y="556" on="0"/>
        <pt x="888" y="571" on="1"/>
        <pt x="888" y="585" on="0"/>
        <pt x="867" y="593" on="1"/>
        <pt x="807" y="609" on="1"/>
        <pt x="807" y="624" on="1"/>
        <pt x="854" y="620" on="0"/>
        <pt x="912" y="620" on="1"/>
        <pt x="971" y="620" on="0"/>
        <pt x="1016" y="624" on="1"/>
        <pt x="1016" y="604" on="1"/>
        <pt x="975" y="602" on="0"/>
        <pt x="949" y="587" on="1"/>
        <pt x="940" y="581" on="0"/>
        <pt x="925" y="557" on="1"/>
        <pt x="909" y="534" on="1"/>
        <pt x="889" y="471" on="0"/>
        <pt x="816" y="251" on="0"/>
        <pt x="759" y="71" on="0"/>
        <pt x="735" y="-11" on="1"/>
        <pt x="701" y="-11" on="1"/>
        <pt x="681" y="51" on="0"/>
        <pt x="618" y="208" on="0"/>
        <pt x="536" y="397" on="0"/>
        <pt x="519" y="438" on="1"/>
        <pt x="508" y="402" on="0"/>
        <pt x="389" y="66" on="0"/>
      </contour>
    </TTGlyph>
    <TTGlyph name="Wcircumflex" xMin="24" yMin="-11" xMax="1016" yMax="819">
      <component glyphName="asciicircum" x="353" y="215" flags="0x1004"/>
      <component glyphName="W" x="0" y="0" flags="0x1004"/>
    </TTGlyph>
    <TTGlyph name="X" xMin="38" yMin="-6" xMax="710" yMax="626">
      <contour>
        <pt x="565" y="545" on="1"/>
        <pt x="417" y="337" on="1"/>
        <pt x="417" y="337" on="0"/>
        <pt x="481" y="240" on="1"/>
        <pt x="544" y="143" on="0"/>
        <pt x="588" y="82" on="1"/>
        <pt x="622" y="35" on="0"/>
        <pt x="637" y="29" on="1"/>
        <pt x="662" y="19" on="0"/>
        <pt x="710" y="8" on="1"/>
        <pt x="710" y="-6" on="1"/>
        <pt x="663" y="-2" on="0"/>
        <pt x="566" y="-2" on="1"/>
        <pt x="463" y="-2" on="0"/>
        <pt x="419" y="-6" on="1"/>
        <pt x="419" y="13" on="1"/>
        <pt x="478" y="18" on="0"/>
        <pt x="483" y="29" on="1"/>
        <pt x="486" y="35" on="0"/>
        <pt x="486" y="44" on="1"/>
        <pt x="486" y="60" on="0"/>
        <pt x="481" y="69" on="1"/>
        <pt x="448" y="121" on="0"/>
        <pt x="341" y="280" on="0"/>
        <pt x="341" y="279" on="1"/>
        <pt x="304" y="229" on="0"/>
        <pt x="242" y="142" on="0"/>
        <pt x="210" y="99" on="0"/>
        <pt x="186" y="68" on="0"/>
        <pt x="179" y="57" on="0"/>
        <pt x="177" y="52" on="0"/>
        <pt x="177" y="50" on="1"/>
        <pt x="177" y="31" on="0"/>
        <pt x="197" y="25" on="1"/>
        <pt x="257" y="8" on="1"/>
        <pt x="257" y="-6" on="1"/>
        <pt x="210" y="-2" on="0"/>
        <pt x="152" y="-2" on="1"/>
        <pt x="93" y="-2" on="0"/>
        <pt x="48" y="-6" on="1"/>
        <pt x="48" y="13" on="1"/>
        <pt x="89" y="15" on="0"/>
        <pt x="115" y="31" on="1"/>
        <pt x="124" y="37" on="0"/>
        <pt x="141" y="55" on="1"/>
        <pt x="160" y="75" on="1"/>
        <pt x="329" y="299" on="1"/>
        <pt x="162" y="549" on="1"/>
        <pt x="146" y="571" on="0"/>
        <pt x="102" y="598" on="1"/>
        <pt x="96" y="602" on="0"/>
        <pt x="70" y="607" on="0"/>
        <pt x="40" y="611" on="0"/>
        <pt x="38" y="611" on="1"/>
        <pt x="38" y="626" on="1"/>
        <pt x="85" y="622" on="0"/>
        <pt x="186" y="622" on="1"/>
        <pt x="295" y="622" on="0"/>
        <pt x="339" y="626" on="1"/>
        <pt x="339" y="606" on="1"/>
        <pt x="283" y="601" on="0"/>
        <pt x="275" y="589" on="1"/>
        <pt x="272" y="582" on="0"/>
        <pt x="272" y="573" on="1"/>
        <pt x="272" y="565" on="0"/>
        <pt x="274" y="558" on="1"/>
        <pt x="276" y="551" on="1"/>
        <pt x="396" y="355" on="1"/>
        <pt x="510" y="511" on="0"/>
        <pt x="548" y="564" on="0"/>
        <pt x="548" y="569" on="1"/>
        <pt x="548" y="588" on="0"/>
        <pt x="528" y="595" on="1"/>
        <pt x="468" y="611" on="1"/>
        <pt x="468" y="626" on="1"/>
        <pt x="515" y="622" on="0"/>
        <pt x="573" y="622" on="1"/>
        <pt x="632" y="622" on="0"/>
        <pt x="677" y="626" on="1"/>
        <pt x="677" y="606" on="1"/>
        <pt x="636" y="604" on="0"/>
        <pt x="610" y="589" on="1"/>
        <pt x="601" y="583" on="0"/>
        <pt x="584" y="563" on="1"/>
      </contour>
    </TTGlyph>
    <TTGlyph name="Y" xMin="13" yMin="-9" xMax="632" yMax="626">
      <contour>
        <pt x="286" y="247" on="1"/>
        <pt x="218" y="406" on="0"/>
        <pt x="115" y="549" on="1"/>
        <pt x="92" y="581" on="0"/>
        <pt x="70" y="592" on="1"/>
        <pt x="45" y="604" on="0"/>
        <pt x="13" y="611" on="1"/>
        <pt x="13" y="626" on="1"/>
        <pt x="60" y="622" on="0"/>
        <pt x="152" y="622" on="1"/>
        <pt x="250" y="622" on="0"/>
        <pt x="294" y="626" on="1"/>
        <pt x="294" y="606" on="1"/>
        <pt x="238" y="601" on="0"/>
        <pt x="230" y="589" on="1"/>
        <pt x="225" y="579" on="0"/>
        <pt x="223" y="565" on="1"/>
        <pt x="221" y="553" on="1"/>
        <pt x="289" y="421" on="0"/>
        <pt x="360" y="301" on="1"/>
        <pt x="505" y="560" on="0"/>
        <pt x="506" y="574" on="1"/>
        <pt x="506" y="588" on="0"/>
        <pt x="483" y="595" on="1"/>
        <pt x="423" y="611" on="1"/>
        <pt x="423" y="626" on="1"/>
        <pt x="470" y="622" on="0"/>
        <pt x="528" y="622" on="1"/>
        <pt x="587" y="622" on="0"/>
        <pt x="632" y="626" on="1"/>
        <pt x="632" y="606" on="1"/>
        <pt x="591" y="604" on="0"/>
        <pt x="565" y="589" on="1"/>
        <pt x="556" y="583" on="0"/>
        <pt x="541" y="567" on="1"/>
        <pt x="526" y="551" on="1"/>
        <pt x="408" y="347" on="0"/>
        <pt x="381" y="289" on="1"/>
        <pt x="381" y="251" on="0"/>
        <pt x="385" y="35" on="1"/>
        <pt x="385" y="10" on="0"/>
        <pt x="467" y="10" on="1"/>
        <pt x="467" y="-9" on="1"/>
        <pt x="195" y="-9" on="1"/>
        <pt x="195" y="7" on="1"/>
        <pt x="198" y="7" on="0"/>
        <pt x="206" y="7" on="1"/>
        <pt x="280" y="7" on="0"/>
        <pt x="281" y="30" on="1"/>
        <pt x="283" y="147" on="0"/>
      </contour>
    </TTGlyph>
    <TTGlyph name="Yacute" xMin="13" yMin="-9" xMax="632" yMax="823">
      <component glyphName="acute" x="166" y="203" flags="0x1004"/>
      <component glyphName="Y" x="0" y="0" flags="0x1004"/>
    </TTGlyph>
    <TTGlyph name="Ycircumflex" xMin="13" yMin="-9" xMax="632" yMax="819">
      <component glyphName="asciicircum" x="150" y="215" flags="0x1004"/>
      <component glyphName="Y" x="0" y="0" flags="0x1004"/>
    </TTGlyph>
    <TTGlyph name="Ydieresis" xMin="13" yMin="-9" xMax="632" yMax="735">
      <component glyphName="dieresis" x="152" y="176" flags="0x1004"/>
      <component glyphName="Y" x="0" y="0" flags="0x1004"/>
    </TTGlyph>
    <TTGlyph name="Z" xMin="51" yMin="-9" xMax="559" yMax="629">
      <contour>
        <pt x="51" y="7" on="1"/>
        <pt x="257" y="314" on="0"/>
        <pt x="424" y="607" on="1"/>
        <pt x="188" y="603" on="1"/>
        <pt x="169" y="603" on="0"/>
        <pt x="138" y="584" on="0"/>
        <pt x="120" y="561" on="0"/>
        <pt x="104" y="521" on="0"/>
        <pt x="99" y="502" on="0"/>
        <pt x="95" y="484" on="1"/>
        <pt x="76" y="484" on="1"/>
        <pt x="79" y="629" on="1"/>
        <pt x="171" y="623" on="0"/>
        <pt x="286" y="623" on="1"/>
        <pt x="376" y="623" on="0"/>
        <pt x="548" y="629" on="1"/>
        <pt x="548" y="607" on="1"/>
        <pt x="248" y="111" on="1"/>
        <pt x="209" y="42" on="0"/>
        <pt x="209" y="16" on="1"/>
        <pt x="209" y="6" on="0"/>
        <pt x="217" y="6" on="1"/>
        <pt x="395" y="6" on="0"/>
        <pt x="442" y="12" on="1"/>
        <pt x="468" y="15" on="0"/>
        <pt x="531" y="110" on="0"/>
        <pt x="537" y="152" on="1"/>
        <pt x="559" y="152" on="1"/>
        <pt x="536" y="-9" on="1"/>
        <pt x="421" y="-7" on="0"/>
        <pt x="309" y="-7" on="1"/>
        <pt x="242" y="-7" on="0"/>
        <pt x="51" y="-9" on="1"/>
      </contour>
    </TTGlyph>
    <TTGlyph name="Zacute" xMin="51" yMin="-9" xMax="559" yMax="821">
      <component glyphName="acute" x="132" y="201" flags="0x1004"/>
      <component glyphName="Z" x="0" y="0" flags="0x1004"/>
    </TTGlyph>
    <TTGlyph name="Zcaron" xMin="51" yMin="-9" xMax="559" yMax="826">
      <component glyphName="caron" x="142" y="217" flags="0x1004"/>
      <component glyphName="Z" x="0" y="0" flags="0x1004"/>
    </TTGlyph>
    <TTGlyph name="Zdotaccent" xMin="51" yMin="-9" xMax="559" yMax="629">
      <component glyphName="Z" x="0" y="0" flags="0x1004"/>
    </TTGlyph>
    <TTGlyph name="a" xMin="51" yMin="-9" xMax="468" yMax="414">
      <contour>
        <pt x="453" y="83" on="1"/>
        <pt x="468" y="74" on="1"/>
        <pt x="455" y="-7" on="0"/>
        <pt x="372" y="-7" on="1"/>
        <pt x="338" y="-7" on="0"/>
        <pt x="304" y="38" on="0"/>
        <pt x="301" y="69" on="1"/>
        <pt x="281" y="46" on="0"/>
        <pt x="260" y="26" on="0"/>
        <pt x="202" y="-9" on="0"/>
        <pt x="173" y="-9" on="1"/>
        <pt x="123" y="-9" on="0"/>
        <pt x="51" y="47" on="0"/>
        <pt x="51" y="108" on="1"/>
        <pt x="51" y="135" on="0"/>
        <pt x="74" y="175" on="0"/>
        <pt x="115" y="200" on="0"/>
        <pt x="157" y="216" on="0"/>
        <pt x="213" y="223" on="0"/>
        <pt x="250" y="225" on="0"/>
        <pt x="295" y="226" on="0"/>
        <pt x="297" y="226" on="1"/>
        <pt x="300" y="226" on="0"/>
        <pt x="300" y="300" on="1"/>
        <pt x="300" y="395" on="0"/>
        <pt x="213" y="395" on="1"/>
        <pt x="183" y="395" on="0"/>
        <pt x="147" y="369" on="0"/>
        <pt x="143" y="351" on="1"/>
        <pt x="172" y="351" on="0"/>
        <pt x="172" y="307" on="1"/>
        <pt x="172" y="280" on="0"/>
        <pt x="136" y="257" on="0"/>
        <pt x="119" y="257" on="1"/>
        <pt x="100" y="257" on="0"/>
        <pt x="70" y="292" on="0"/>
        <pt x="70" y="313" on="1"/>
        <pt x="70" y="350" on="0"/>
        <pt x="117" y="385" on="1"/>
        <pt x="155" y="414" on="0"/>
        <pt x="222" y="414" on="1"/>
        <pt x="285" y="414" on="0"/>
        <pt x="383" y="336" on="0"/>
        <pt x="383" y="269" on="1"/>
        <pt x="383" y="236" on="0"/>
        <pt x="379" y="118" on="0"/>
        <pt x="379" y="92" on="1"/>
        <pt x="379" y="25" on="0"/>
        <pt x="410" y="26" on="1"/>
        <pt x="428" y="26" on="0"/>
        <pt x="446" y="52" on="0"/>
      </contour>
      <contour>
        <pt x="297" y="94" on="1"/>
        <pt x="297" y="212" on="1"/>
        <pt x="262" y="209" on="0"/>
        <pt x="203" y="202" on="0"/>
        <pt x="161" y="187" on="0"/>
        <pt x="137" y="151" on="0"/>
        <pt x="137" y="119" on="1"/>
        <pt x="137" y="76" on="0"/>
        <pt x="180" y="36" on="0"/>
        <pt x="213" y="36" on="1"/>
        <pt x="265" y="36" on="0"/>
      </contour>
    </TTGlyph>
    <TTGlyph name="aacute" xMin="51" yMin="-9" xMax="468" yMax="620">
      <component glyphName="a" x="0" y="0" flags="0x1004"/>
      <component glyphName="acute" x="18" y="0" flags="0x1004"/>
    </TTGlyph>
    <TTGlyph name="abreve" xMin="51" yMin="-9" xMax="468" yMax="414">
      <component glyphName="a" x="0" y="0" flags="0x1004"/>
    </TTGlyph>
    <TTGlyph name="acircumflex" xMin="51" yMin="-9" xMax="468" yMax="604">
      <component glyphName="asciicircum" x="18" y="0" flags="0x1004"/>
      <component glyphName="a" x="0" y="0" flags="0x1004"/>
    </TTGlyph>
    <TTGlyph name="acute" xMin="118" yMin="457" xMax="318" yMax="620">
      <contour>
        <pt x="118" y="475" on="1"/>
        <pt x="287" y="620" on="1"/>
        <pt x="318" y="572" on="1"/>
        <pt x="129" y="457" on="1"/>
      </contour>
    </TTGlyph>
    <TTGlyph name="adieresis" xMin="51" yMin="-9" xMax="468" yMax="559">
      <component glyphName="dieresis" x="37" y="0" flags="0x1004"/>
      <component glyphName="a" x="0" y="0" flags="0x1004"/>
    </TTGlyph>
    <TTGlyph name="ae" xMin="41" yMin="-18" xMax="656" yMax="414">
      <contour>
        <pt x="389" y="232" on="1"/>
        <pt x="566" y="233" on="1"/>
        <pt x="567" y="250" on="0"/>
        <pt x="567" y="265" on="1"/>
        <pt x="567" y="296" on="0"/>
        <pt x="562" y="315" on="1"/>
        <pt x="554" y="347" on="0"/>
        <pt x="506" y="388" on="0"/>
        <pt x="470" y="388" on="1"/>
        <pt x="397" y="388" on="0"/>
      </contour>
      <contour>
        <pt x="317" y="73" on="1"/>
        <pt x="302" y="39" on="0"/>
        <pt x="209" y="-17" on="0"/>
        <pt x="163" y="-18" on="1"/>
        <pt x="114" y="-18" on="0"/>
        <pt x="41" y="47" on="0"/>
        <pt x="41" y="108" on="1"/>
        <pt x="41" y="132" on="0"/>
        <pt x="61" y="169" on="0"/>
        <pt x="91" y="195" on="0"/>
        <pt x="138" y="214" on="0"/>
        <pt x="176" y="224" on="0"/>
        <pt x="231" y="231" on="0"/>
        <pt x="259" y="232" on="0"/>
        <pt x="281" y="233" on="1"/>
        <pt x="302" y="234" on="1"/>
        <pt x="303" y="234" on="0"/>
        <pt x="303" y="300" on="1"/>
        <pt x="303" y="342" on="0"/>
        <pt x="250" y="395" on="0"/>
        <pt x="203" y="395" on="1"/>
        <pt x="173" y="395" on="0"/>
        <pt x="137" y="369" on="0"/>
        <pt x="133" y="351" on="1"/>
        <pt x="162" y="351" on="0"/>
        <pt x="162" y="304" on="1"/>
        <pt x="162" y="286" on="0"/>
        <pt x="127" y="257" on="0"/>
        <pt x="109" y="257" on="1"/>
        <pt x="90" y="257" on="0"/>
        <pt x="59" y="292" on="0"/>
        <pt x="59" y="313" on="1"/>
        <pt x="59" y="350" on="0"/>
        <pt x="106" y="385" on="1"/>
        <pt x="144" y="414" on="0"/>
        <pt x="212" y="414" on="1"/>
        <pt x="252" y="414" on="0"/>
        <pt x="328" y="382" on="0"/>
        <pt x="350" y="352" on="1"/>
        <pt x="407" y="406" on="0"/>
        <pt x="492" y="407" on="1"/>
        <pt x="546" y="407" on="0"/>
        <pt x="639" y="349" on="0"/>
        <pt x="652" y="284" on="1"/>
        <pt x="656" y="264" on="0"/>
        <pt x="656" y="244" on="1"/>
        <pt x="656" y="233" on="0"/>
        <pt x="655" y="218" on="1"/>
        <pt x="388" y="217" on="1"/>
        <pt x="388" y="208" on="0"/>
        <pt x="388" y="196" on="0"/>
        <pt x="388" y="190" on="0"/>
        <pt x="388" y="189" on="1"/>
        <pt x="388" y="142" on="0"/>
        <pt x="408" y="62" on="0"/>
        <pt x="455" y="7" on="0"/>
        <pt x="488" y="7" on="1"/>
        <pt x="546" y="7" on="0"/>
        <pt x="614" y="75" on="0"/>
        <pt x="628" y="112" on="1"/>
        <pt x="655" y="92" on="1"/>
        <pt x="640" y="54" on="0"/>
        <pt x="555" y="-17" on="0"/>
        <pt x="484" y="-17" on="1"/>
        <pt x="378" y="-17" on="0"/>
      </contour>
      <contour>
        <pt x="306" y="84" on="1"/>
        <pt x="306" y="103" on="0"/>
        <pt x="302" y="175" on="0"/>
        <pt x="302" y="204" on="1"/>
        <pt x="302" y="212" on="0"/>
        <pt x="302" y="220" on="1"/>
        <pt x="282" y="218" on="0"/>
        <pt x="244" y="214" on="0"/>
        <pt x="209" y="208" on="0"/>
        <pt x="178" y="200" on="0"/>
        <pt x="154" y="184" on="0"/>
        <pt x="136" y="166" on="0"/>
        <pt x="127" y="137" on="0"/>
        <pt x="127" y="119" on="1"/>
        <pt x="127" y="73" on="0"/>
        <pt x="168" y="27" on="0"/>
        <pt x="203" y="27" on="1"/>
        <pt x="233" y="27" on="0"/>
        <pt x="295" y="64" on="0"/>
      </contour>
    </TTGlyph>
    <TTGlyph name="agrave" xMin="51" yMin="-9" xMax="468" yMax="621">
      <component glyphName="grave" x="18" y="0" flags="0x1004"/>
      <component glyphName="a" x="0" y="0" flags="0x1004"/>
    </TTGlyph>
    <TTGlyph name="amacron" xMin="51" yMin="-9" xMax="468" yMax="414">
      <component glyphName="a" x="0" y="0" flags="0x1004"/>
    </TTGlyph>
    <TTGlyph name="ampersand" xMin="28" yMin="-11" xMax="615" yMax="625">
      <contour>
        <pt x="229" y="381" on="1"/>
        <pt x="288" y="412" on="0"/>
        <pt x="324" y="451" on="0"/>
        <pt x="324" y="503" on="1"/>
        <pt x="324" y="549" on="0"/>
        <pt x="282" y="602" on="0"/>
        <pt x="245" y="602" on="1"/>
        <pt x="211" y="602" on="0"/>
        <pt x="169" y="539" on="0"/>
        <pt x="169" y="495" on="1"/>
        <pt x="169" y="450" on="0"/>
      </contour>
      <contour>
        <pt x="437" y="24" on="1"/>
        <pt x="398" y="67" on="1"/>
        <pt x="322" y="-11" on="0"/>
        <pt x="227" y="-11" on="1"/>
        <pt x="106" y="-11" on="0"/>
        <pt x="62" y="51" on="1"/>
        <pt x="53" y="64" on="0"/>
        <pt x="38" y="84" on="0"/>
        <pt x="28" y="125" on="0"/>
        <pt x="28" y="156" on="1"/>
        <pt x="28" y="156" on="0"/>
        <pt x="28" y="157" on="1"/>
        <pt x="28" y="212" on="0"/>
        <pt x="71" y="282" on="0"/>
        <pt x="118" y="318" on="1"/>
        <pt x="138" y="332" on="0"/>
        <pt x="165" y="348" on="1"/>
        <pt x="141" y="375" on="0"/>
        <pt x="105" y="456" on="0"/>
        <pt x="105" y="494" on="1"/>
        <pt x="105" y="557" on="0"/>
        <pt x="195" y="625" on="0"/>
        <pt x="243" y="625" on="1"/>
        <pt x="309" y="625" on="0"/>
        <pt x="388" y="571" on="0"/>
        <pt x="388" y="515" on="1"/>
        <pt x="388" y="468" on="0"/>
        <pt x="323" y="400" on="0"/>
        <pt x="249" y="356" on="1"/>
        <pt x="314" y="268" on="0"/>
        <pt x="425" y="137" on="1"/>
        <pt x="444" y="162" on="0"/>
        <pt x="457" y="208" on="0"/>
        <pt x="457" y="245" on="1"/>
        <pt x="457" y="263" on="0"/>
        <pt x="444" y="281" on="1"/>
        <pt x="425" y="308" on="0"/>
        <pt x="388" y="307" on="1"/>
        <pt x="385" y="323" on="1"/>
        <pt x="580" y="323" on="1"/>
        <pt x="579" y="304" on="1"/>
        <pt x="527" y="304" on="0"/>
        <pt x="515" y="293" on="1"/>
        <pt x="498" y="276" on="0"/>
        <pt x="498" y="243" on="1"/>
        <pt x="498" y="214" on="0"/>
        <pt x="459" y="138" on="0"/>
        <pt x="443" y="119" on="1"/>
        <pt x="468" y="88" on="1"/>
        <pt x="472" y="81" on="0"/>
        <pt x="490" y="61" on="0"/>
        <pt x="508" y="43" on="0"/>
        <pt x="532" y="30" on="0"/>
        <pt x="544" y="30" on="1"/>
        <pt x="575" y="30" on="0"/>
        <pt x="595" y="66" on="0"/>
        <pt x="595" y="102" on="1"/>
        <pt x="615" y="99" on="1"/>
        <pt x="615" y="-11" on="0"/>
        <pt x="534" y="-10" on="1"/>
        <pt x="466" y="-10" on="0"/>
      </contour>
      <contour>
        <pt x="260" y="31" on="1"/>
        <pt x="299" y="31" on="0"/>
        <pt x="347" y="52" on="0"/>
        <pt x="381" y="83" on="1"/>
        <pt x="330" y="146" on="0"/>
        <pt x="187" y="321" on="0"/>
        <pt x="186" y="321" on="1"/>
        <pt x="154" y="306" on="0"/>
        <pt x="117" y="254" on="0"/>
        <pt x="106" y="214" on="0"/>
        <pt x="106" y="195" on="1"/>
        <pt x="106" y="149" on="0"/>
        <pt x="141" y="99" on="1"/>
        <pt x="190" y="31" on="0"/>
      </contour>
    </TTGlyph>
    <TTGlyph name="aogonek" xMin="51" yMin="-227" xMax="468" yMax="414">
      <contour>
        <pt x="197" y="-134" on="1"/>
        <pt x="197" y="-96" on="0"/>
        <pt x="256" y="-37" on="0"/>
        <pt x="286" y="-24" on="1"/>
        <pt x="348" y="4" on="0"/>
        <pt x="371" y="4" on="1"/>
        <pt x="377" y="4" on="0"/>
        <pt x="380" y="-5" on="1"/>
        <pt x="369" y="-10" on="0"/>
        <pt x="342" y="-28" on="0"/>
        <pt x="301" y="-58" on="0"/>
        <pt x="275" y="-100" on="0"/>
        <pt x="275" y="-123" on="1"/>
        <pt x="275" y="-166" on="0"/>
        <pt x="309" y="-203" on="0"/>
        <pt x="333" y="-203" on="1"/>
        <pt x="358" y="-203" on="0"/>
        <pt x="406" y="-154" on="0"/>
        <pt x="407" y="-132" on="1"/>
        <pt x="408" y="-133" on="0"/>
        <pt x="428" y="-142" on="0"/>
        <pt x="431" y="-145" on="1"/>
        <pt x="420" y="-176" on="0"/>
        <pt x="359" y="-227" on="0"/>
        <pt x="315" y="-227" on="1"/>
        <pt x="261" y="-227" on="0"/>
        <pt x="197" y="-175" on="0"/>
      </contour>
      <contour>
        <pt x="453" y="83" on="1"/>
        <pt x="468" y="74" on="1"/>
        <pt x="455" y="-7" on="0"/>
        <pt x="372" y="-7" on="1"/>
        <pt x="338" y="-7" on="0"/>
        <pt x="304" y="38" on="0"/>
        <pt x="301" y="69" on="1"/>
        <pt x="281" y="46" on="0"/>
        <pt x="260" y="26" on="0"/>
        <pt x="202" y="-9" on="0"/>
        <pt x="173" y="-9" on="1"/>
        <pt x="123" y="-9" on="0"/>
        <pt x="51" y="47" on="0"/>
        <pt x="51" y="108" on="1"/>
        <pt x="51" y="135" on="0"/>
        <pt x="74" y="175" on="0"/>
        <pt x="115" y="200" on="0"/>
        <pt x="157" y="216" on="0"/>
        <pt x="213" y="223" on="0"/>
        <pt x="250" y="225" on="0"/>
        <pt x="295" y="226" on="0"/>
        <pt x="297" y="226" on="1"/>
        <pt x="300" y="226" on="0"/>
        <pt x="300" y="300" on="1"/>
        <pt x="300" y="395" on="0"/>
        <pt x="213" y="395" on="1"/>
        <pt x="183" y="395" on="0"/>
        <pt x="147" y="369" on="0"/>
        <pt x="143" y="351" on="1"/>
        <pt x="172" y="351" on="0"/>
        <pt x="172" y="307" on="1"/>
        <pt x="172" y="280" on="0"/>
        <pt x="136" y="257" on="0"/>
        <pt x="119" y="257" on="1"/>
        <pt x="100" y="257" on="0"/>
        <pt x="70" y="292" on="0"/>
        <pt x="70" y="313" on="1"/>
        <pt x="70" y="350" on="0"/>
        <pt x="117" y="385" on="1"/>
        <pt x="155" y="414" on="0"/>
        <pt x="222" y="414" on="1"/>
        <pt x="285" y="414" on="0"/>
        <pt x="383" y="336" on="0"/>
        <pt x="383" y="269" on="1"/>
        <pt x="383" y="236" on="0"/>
        <pt x="379" y="118" on="0"/>
        <pt x="379" y="92" on="1"/>
        <pt x="379" y="25" on="0"/>
        <pt x="410" y="26" on="1"/>
        <pt x="428" y="26" on="0"/>
        <pt x="446" y="52" on="0"/>
      </contour>
      <contour>
        <pt x="297" y="94" on="1"/>
        <pt x="297" y="212" on="1"/>
        <pt x="262" y="209" on="0"/>
        <pt x="203" y="202" on="0"/>
        <pt x="161" y="187" on="0"/>
        <pt x="137" y="151" on="0"/>
        <pt x="137" y="119" on="1"/>
        <pt x="137" y="76" on="0"/>
        <pt x="180" y="36" on="0"/>
        <pt x="213" y="36" on="1"/>
        <pt x="265" y="36" on="0"/>
      </contour>
    </TTGlyph>
    <TTGlyph name="aring" xMin="51" yMin="-9" xMax="468" yMax="657">
      <component glyphName="ring" x="111" y="0" flags="0x1004"/>
      <component glyphName="a" x="0" y="0" flags="0x1004"/>
    </TTGlyph>
    <TTGlyph name="asciicircum" xMin="72" yMin="444" xMax="333" yMax="604">
      <contour>
        <pt x="72" y="453" on="1"/>
        <pt x="210" y="604" on="1"/>
        <pt x="333" y="456" on="1"/>
        <pt x="319" y="444" on="1"/>
        <pt x="207" y="548" on="1"/>
        <pt x="86" y="444" on="1"/>
      </contour>
    </TTGlyph>
    <TTGlyph name="asterisk" xMin="79" yMin="165" xMax="432" yMax="548">
      <contour>
        <pt x="247" y="548" on="1"/>
        <pt x="263" y="548" on="0"/>
        <pt x="284" y="525" on="0"/>
        <pt x="284" y="511" on="1"/>
        <pt x="284" y="453" on="0"/>
        <pt x="257" y="361" on="1"/>
        <pt x="233" y="422" on="1"/>
        <pt x="210" y="481" on="0"/>
        <pt x="211" y="508" on="1"/>
        <pt x="211" y="525" on="0"/>
        <pt x="223" y="544" on="0"/>
        <pt x="237" y="548" on="0"/>
      </contour>
      <contour>
        <pt x="254" y="165" on="1"/>
        <pt x="244" y="165" on="0"/>
        <pt x="230" y="169" on="0"/>
        <pt x="218" y="187" on="0"/>
        <pt x="218" y="205" on="1"/>
        <pt x="218" y="232" on="0"/>
        <pt x="238" y="293" on="1"/>
        <pt x="257" y="354" on="1"/>
        <pt x="258" y="349" on="0"/>
        <pt x="278" y="287" on="0"/>
        <pt x="291" y="225" on="0"/>
        <pt x="291" y="202" on="1"/>
        <pt x="291" y="188" on="0"/>
        <pt x="270" y="165" on="0"/>
      </contour>
      <contour>
        <pt x="86" y="443" on="1"/>
        <pt x="97" y="461" on="0"/>
        <pt x="118" y="462" on="1"/>
        <pt x="128" y="462" on="0"/>
        <pt x="136" y="457" on="1"/>
        <pt x="193" y="424" on="0"/>
        <pt x="254" y="359" on="1"/>
        <pt x="190" y="369" on="1"/>
        <pt x="125" y="379" on="0"/>
        <pt x="102" y="392" on="1"/>
        <pt x="78" y="405" on="0"/>
        <pt x="79" y="423" on="1"/>
        <pt x="79" y="431" on="0"/>
      </contour>
      <contour>
        <pt x="421" y="258" on="1"/>
        <pt x="410" y="239" on="0"/>
        <pt x="394" y="239" on="1"/>
        <pt x="383" y="239" on="0"/>
        <pt x="369" y="247" on="1"/>
        <pt x="346" y="260" on="0"/>
        <pt x="303" y="308" on="1"/>
        <pt x="259" y="356" on="1"/>
        <pt x="273" y="354" on="0"/>
        <pt x="379" y="325" on="0"/>
        <pt x="408" y="308" on="1"/>
        <pt x="426" y="298" on="0"/>
        <pt x="426" y="276" on="1"/>
        <pt x="426" y="267" on="0"/>
      </contour>
      <contour>
        <pt x="97" y="254" on="1"/>
        <pt x="92" y="263" on="0"/>
        <pt x="92" y="272" on="1"/>
        <pt x="92" y="294" on="0"/>
        <pt x="111" y="304" on="1"/>
        <pt x="161" y="333" on="0"/>
        <pt x="254" y="356" on="1"/>
        <pt x="236" y="333" on="1"/>
        <pt x="219" y="309" on="0"/>
        <pt x="166" y="252" on="0"/>
        <pt x="150" y="243" on="1"/>
        <pt x="136" y="235" on="0"/>
        <pt x="124" y="234" on="1"/>
        <pt x="108" y="235" on="0"/>
      </contour>
      <contour>
        <pt x="425" y="452" on="1"/>
        <pt x="432" y="441" on="0"/>
        <pt x="432" y="431" on="1"/>
        <pt x="432" y="414" on="0"/>
        <pt x="409" y="400" on="1"/>
        <pt x="385" y="387" on="0"/>
        <pt x="323" y="373" on="1"/>
        <pt x="260" y="359" on="1"/>
        <pt x="264" y="362" on="0"/>
        <pt x="309" y="412" on="0"/>
        <pt x="354" y="453" on="0"/>
        <pt x="375" y="465" on="1"/>
        <pt x="384" y="470" on="0"/>
        <pt x="394" y="470" on="1"/>
        <pt x="415" y="470" on="0"/>
      </contour>
    </TTGlyph>
    <TTGlyph name="at" xMin="50" yMin="-135" xMax="588" yMax="418">
      <contour>
        <pt x="456" y="2" on="1"/>
        <pt x="456" y="2" on="0"/>
        <pt x="384" y="-7" on="1"/>
        <pt x="384" y="-7" on="0"/>
        <pt x="397" y="68" on="1"/>
        <pt x="391" y="59" on="0"/>
        <pt x="367" y="33" on="0"/>
        <pt x="341" y="9" on="0"/>
        <pt x="300" y="-7" on="0"/>
        <pt x="279" y="-7" on="1"/>
        <pt x="233" y="-7" on="0"/>
        <pt x="175" y="61" on="0"/>
        <pt x="175" y="124" on="1"/>
        <pt x="175" y="171" on="0"/>
        <pt x="208" y="244" on="0"/>
        <pt x="258" y="282" on="0"/>
        <pt x="305" y="299" on="0"/>
        <pt x="325" y="299" on="1"/>
        <pt x="390" y="299" on="0"/>
        <pt x="424" y="269" on="1"/>
        <pt x="428" y="299" on="1"/>
        <pt x="497" y="299" on="1"/>
        <pt x="487" y="228" on="0"/>
        <pt x="464" y="35" on="1"/>
        <pt x="499" y="39" on="0"/>
        <pt x="559" y="111" on="0"/>
        <pt x="559" y="182" on="1"/>
        <pt x="559" y="211" on="0"/>
        <pt x="555" y="253" on="0"/>
        <pt x="531" y="319" on="0"/>
        <pt x="489" y="362" on="0"/>
        <pt x="404" y="395" on="0"/>
        <pt x="345" y="395" on="1"/>
        <pt x="287" y="395" on="0"/>
        <pt x="197" y="346" on="0"/>
        <pt x="145" y="267" on="0"/>
        <pt x="120" y="181" on="0"/>
        <pt x="120" y="137" on="1"/>
        <pt x="120" y="82" on="0"/>
        <pt x="135" y="1" on="0"/>
        <pt x="176" y="-71" on="0"/>
        <pt x="259" y="-109" on="0"/>
        <pt x="321" y="-109" on="1"/>
        <pt x="360" y="-109" on="0"/>
        <pt x="421" y="-92" on="0"/>
        <pt x="456" y="-68" on="0"/>
        <pt x="487" y="-39" on="0"/>
        <pt x="497" y="-27" on="1"/>
        <pt x="517" y="-55" on="1"/>
        <pt x="513" y="-58" on="0"/>
        <pt x="463" y="-102" on="0"/>
        <pt x="436" y="-117" on="0"/>
        <pt x="365" y="-135" on="0"/>
        <pt x="318" y="-135" on="1"/>
        <pt x="200" y="-135" on="0"/>
        <pt x="50" y="16" on="0"/>
        <pt x="50" y="123" on="1"/>
        <pt x="50" y="214" on="0"/>
        <pt x="141" y="352" on="0"/>
        <pt x="279" y="418" on="0"/>
        <pt x="355" y="418" on="1"/>
        <pt x="470" y="418" on="0"/>
        <pt x="588" y="275" on="0"/>
        <pt x="588" y="184" on="1"/>
        <pt x="588" y="127" on="0"/>
        <pt x="504" y="8" on="0"/>
      </contour>
      <contour>
        <pt x="402" y="98" on="1"/>
        <pt x="423" y="248" on="1"/>
        <pt x="371" y="282" on="0"/>
        <pt x="331" y="282" on="1"/>
        <pt x="300" y="282" on="0"/>
        <pt x="253" y="199" on="0"/>
        <pt x="253" y="135" on="1"/>
        <pt x="253" y="85" on="0"/>
        <pt x="276" y="42" on="0"/>
        <pt x="308" y="42" on="1"/>
        <pt x="337" y="42" on="0"/>
        <pt x="391" y="78" on="0"/>
      </contour>
    </TTGlyph>
    <TTGlyph name="atilde" xMin="51" yMin="-9" xMax="468" yMax="556">
      <component glyphName="tilde" x="122" y="187" flags="0x1004"/>
      <component glyphName="a" x="0" y="0" flags="0x1004"/>
    </TTGlyph>
    <TTGlyph name="b" xMin="31" yMin="-10" xMax="492" yMax="659">
      <contour>
        <pt x="492" y="205" on="1"/>
        <pt x="492" y="109" on="0"/>
        <pt x="377" y="-10" on="0"/>
        <pt x="305" y="-10" on="1"/>
        <pt x="244" y="-10" on="0"/>
        <pt x="176" y="63" on="1"/>
        <pt x="163" y="49" on="0"/>
        <pt x="135" y="-3" on="0"/>
        <pt x="132" y="-7" on="1"/>
        <pt x="124" y="-8" on="0"/>
        <pt x="117" y="-8" on="1"/>
        <pt x="103" y="-7" on="1"/>
        <pt x="106" y="125" on="0"/>
        <pt x="106" y="312" on="1"/>
        <pt x="106" y="486" on="0"/>
        <pt x="103" y="596" on="1"/>
        <pt x="103" y="613" on="0"/>
        <pt x="31" y="617" on="1"/>
        <pt x="31" y="630" on="1"/>
        <pt x="135" y="635" on="0"/>
        <pt x="187" y="659" on="1"/>
        <pt x="183" y="328" on="1"/>
        <pt x="202" y="355" on="0"/>
        <pt x="229" y="383" on="0"/>
        <pt x="284" y="413" on="0"/>
        <pt x="315" y="413" on="1"/>
        <pt x="392" y="413" on="0"/>
        <pt x="492" y="310" on="0"/>
      </contour>
      <contour>
        <pt x="397" y="208" on="1"/>
        <pt x="397" y="239" on="0"/>
        <pt x="388" y="293" on="0"/>
        <pt x="368" y="348" on="0"/>
        <pt x="324" y="382" on="0"/>
        <pt x="293" y="382" on="1"/>
        <pt x="266" y="382" on="0"/>
        <pt x="217" y="342" on="0"/>
        <pt x="206" y="323" on="1"/>
        <pt x="195" y="303" on="1"/>
        <pt x="187" y="211" on="1"/>
        <pt x="190" y="86" on="1"/>
        <pt x="199" y="72" on="1"/>
        <pt x="207" y="57" on="0"/>
        <pt x="253" y="27" on="0"/>
        <pt x="284" y="27" on="1"/>
        <pt x="334" y="27" on="0"/>
        <pt x="397" y="129" on="0"/>
      </contour>
    </TTGlyph>
    <TTGlyph name="backslash" xMin="13" yMin="-145" xMax="296" yMax="726">
      <contour>
        <pt x="67" y="726" on="1"/>
        <pt x="296" y="-131" on="1"/>
        <pt x="243" y="-145" on="1"/>
        <pt x="13" y="712" on="1"/>
      </contour>
    </TTGlyph>
    <TTGlyph name="bar" xMin="127" yMin="-154" xMax="182" yMax="734">
      <contour>
        <pt x="127" y="734" on="1"/>
        <pt x="182" y="734" on="1"/>
        <pt x="182" y="-154" on="1"/>
        <pt x="127" y="-154" on="1"/>
      </contour>
    </TTGlyph>
    <TTGlyph name="braceleft" xMin="23" yMin="-131" xMax="262" yMax="684">
      <contour>
        <pt x="103" y="264" on="1"/>
        <pt x="23" y="264" on="1"/>
        <pt x="23" y="303" on="1"/>
        <pt x="103" y="303" on="1"/>
        <pt x="103" y="684" on="1"/>
        <pt x="262" y="684" on="1"/>
        <pt x="262" y="662" on="1"/>
        <pt x="166" y="662" on="1"/>
        <pt x="166" y="-104" on="1"/>
        <pt x="262" y="-104" on="1"/>
        <pt x="262" y="-131" on="1"/>
        <pt x="103" y="-131" on="1"/>
      </contour>
    </TTGlyph>
    <TTGlyph name="braceright" xMin="32" yMin="-131" xMax="267" yMax="684">
      <contour>
        <pt x="190" y="684" on="1"/>
        <pt x="190" y="303" on="1"/>
        <pt x="267" y="303" on="1"/>
        <pt x="267" y="264" on="1"/>
        <pt x="190" y="264" on="1"/>
        <pt x="190" y="-131" on="1"/>
        <pt x="32" y="-131" on="1"/>
        <pt x="32" y="-104" on="1"/>
        <pt x="128" y="-104" on="1"/>
        <pt x="128" y="662" on="1"/>
        <pt x="32" y="662" on="1"/>
        <pt x="32" y="684" on="1"/>
      </contour>
    </TTGlyph>
    <TTGlyph name="bracketleft" xMin="103" yMin="-131" xMax="262" yMax="684">
      <contour>
        <pt x="103" y="684" on="1"/>
        <pt x="262" y="684" on="1"/>
        <pt x="262" y="662" on="1"/>
        <pt x="166" y="662" on="1"/>
        <pt x="166" y="-104" on="1"/>
        <pt x="262" y="-104" on="1"/>
        <pt x="262" y="-131" on="1"/>
        <pt x="103" y="-131" on="1"/>
      </contour>
    </TTGlyph>
    <TTGlyph name="bracketright" xMin="32" yMin="-131" xMax="190" yMax="684">
      <contour>
        <pt x="190" y="684" on="1"/>
        <pt x="190" y="-131" on="1"/>
        <pt x="32" y="-131" on="1"/>
        <pt x="32" y="-104" on="1"/>
        <pt x="128" y="-104" on="1"/>
        <pt x="128" y="662" on="1"/>
        <pt x="32" y="662" on="1"/>
        <pt x="32" y="684" on="1"/>
      </contour>
    </TTGlyph>
    <TTGlyph name="brokenbar" xMin="127" yMin="-154" xMax="182" yMax="734">
      <contour>
        <pt x="127" y="734" on="1"/>
        <pt x="182" y="734" on="1"/>
        <pt x="182" y="385" on="1"/>
        <pt x="127" y="385" on="1"/>
      </contour>
      <contour>
        <pt x="182" y="210" on="1"/>
        <pt x="182" y="-154" on="1"/>
        <pt x="127" y="-154" on="1"/>
        <pt x="127" y="210" on="1"/>
      </contour>
    </TTGlyph>
    <TTGlyph name="c" xMin="51" yMin="-15" xMax="414" yMax="415">
      <contour>
        <pt x="257" y="415" on="1"/>
        <pt x="314" y="415" on="0"/>
        <pt x="413" y="348" on="0"/>
        <pt x="413" y="299" on="1"/>
        <pt x="413" y="260" on="0"/>
        <pt x="373" y="220" on="0"/>
        <pt x="353" y="220" on="1"/>
        <pt x="297" y="220" on="0"/>
        <pt x="297" y="274" on="1"/>
        <pt x="297" y="296" on="0"/>
        <pt x="323" y="327" on="0"/>
        <pt x="339" y="327" on="1"/>
        <pt x="357" y="327" on="0"/>
        <pt x="373" y="313" on="1"/>
        <pt x="353" y="397" on="0"/>
        <pt x="255" y="397" on="1"/>
        <pt x="207" y="397" on="0"/>
        <pt x="141" y="279" on="0"/>
        <pt x="141" y="190" on="1"/>
        <pt x="141" y="123" on="0"/>
        <pt x="212" y="18" on="0"/>
        <pt x="264" y="18" on="1"/>
        <pt x="296" y="18" on="0"/>
        <pt x="342" y="38" on="0"/>
        <pt x="370" y="79" on="0"/>
        <pt x="378" y="97" on="0"/>
        <pt x="386" y="118" on="1"/>
        <pt x="414" y="98" on="1"/>
        <pt x="399" y="59" on="0"/>
        <pt x="318" y="-15" on="0"/>
        <pt x="255" y="-15" on="1"/>
        <pt x="161" y="-15" on="0"/>
        <pt x="51" y="99" on="0"/>
        <pt x="51" y="210" on="1"/>
        <pt x="51" y="264" on="0"/>
        <pt x="93" y="347" on="0"/>
        <pt x="159" y="392" on="0"/>
        <pt x="225" y="415" on="0"/>
      </contour>
    </TTGlyph>
    <TTGlyph name="cacute" xMin="51" yMin="-15" xMax="414" yMax="620">
      <component glyphName="acute" x="29" y="0" flags="0x1004"/>
      <component glyphName="c" x="0" y="0" flags="0x1004"/>
    </TTGlyph>
    <TTGlyph name="caron" xMin="73" yMin="450" xMax="332" yMax="609">
      <contour>
        <pt x="332" y="596" on="1"/>
        <pt x="199" y="450" on="1"/>
        <pt x="73" y="598" on="1"/>
        <pt x="86" y="609" on="1"/>
        <pt x="203" y="503" on="1"/>
        <pt x="319" y="609" on="1"/>
      </contour>
    </TTGlyph>
    <TTGlyph name="ccaron" xMin="51" yMin="-15" xMax="414" yMax="609">
      <component glyphName="caron" x="37" y="0" flags="0x1004"/>
      <component glyphName="c" x="0" y="0" flags="0x1004"/>
    </TTGlyph>
    <TTGlyph name="ccedilla" xMin="51" yMin="-193" xMax="414" yMax="415">
      <contour>
        <pt x="239" y="-1" on="1"/>
        <pt x="261" y="-2" on="1"/>
        <pt x="242" y="-53" on="1"/>
        <pt x="296" y="-53" on="0"/>
        <pt x="332" y="-79" on="0"/>
        <pt x="332" y="-105" on="1"/>
        <pt x="332" y="-138" on="0"/>
        <pt x="252" y="-193" on="0"/>
        <pt x="193" y="-193" on="1"/>
        <pt x="195" y="-171" on="1"/>
        <pt x="242" y="-171" on="0"/>
        <pt x="287" y="-148" on="0"/>
        <pt x="287" y="-118" on="1"/>
        <pt x="287" y="-87" on="0"/>
        <pt x="202" y="-87" on="1"/>
      </contour>
      <contour>
        <pt x="257" y="415" on="1"/>
        <pt x="314" y="415" on="0"/>
        <pt x="413" y="348" on="0"/>
        <pt x="413" y="299" on="1"/>
        <pt x="413" y="260" on="0"/>
        <pt x="373" y="220" on="0"/>
        <pt x="353" y="220" on="1"/>
        <pt x="297" y="220" on="0"/>
        <pt x="297" y="274" on="1"/>
        <pt x="297" y="296" on="0"/>
        <pt x="323" y="327" on="0"/>
        <pt x="339" y="327" on="1"/>
        <pt x="357" y="327" on="0"/>
        <pt x="373" y="313" on="1"/>
        <pt x="353" y="397" on="0"/>
        <pt x="255" y="397" on="1"/>
        <pt x="207" y="397" on="0"/>
        <pt x="141" y="279" on="0"/>
        <pt x="141" y="190" on="1"/>
        <pt x="141" y="123" on="0"/>
        <pt x="212" y="18" on="0"/>
        <pt x="264" y="18" on="1"/>
        <pt x="296" y="18" on="0"/>
        <pt x="342" y="38" on="0"/>
        <pt x="370" y="79" on="0"/>
        <pt x="378" y="97" on="0"/>
        <pt x="386" y="118" on="1"/>
        <pt x="414" y="98" on="1"/>
        <pt x="399" y="59" on="0"/>
        <pt x="318" y="-15" on="0"/>
        <pt x="255" y="-15" on="1"/>
        <pt x="161" y="-15" on="0"/>
        <pt x="51" y="99" on="0"/>
        <pt x="51" y="210" on="1"/>
        <pt x="51" y="264" on="0"/>
        <pt x="93" y="347" on="0"/>
        <pt x="159" y="392" on="0"/>
        <pt x="225" y="415" on="0"/>
      </contour>
    </TTGlyph>
    <TTGlyph name="ccircumflex" xMin="51" yMin="-15" xMax="414" yMax="604">
      <component glyphName="asciicircum" x="42" y="0" flags="0x1004"/>
      <component glyphName="c" x="0" y="0" flags="0x1004"/>
    </TTGlyph>
    <TTGlyph name="cdotaccent" xMin="51" yMin="-15" xMax="414" yMax="415">
      <component glyphName="c" x="0" y="0" flags="0x1004"/>
    </TTGlyph>
    <TTGlyph name="circumflex" xMin="76" yMin="450" xMax="337" yMax="609">
      <contour>
        <pt x="76" y="458" on="1"/>
        <pt x="214" y="609" on="1"/>
        <pt x="337" y="461" on="1"/>
        <pt x="324" y="450" on="1"/>
        <pt x="211" y="553" on="1"/>
        <pt x="90" y="450" on="1"/>
      </contour>
    </TTGlyph>
    <TTGlyph name="colon" xMin="59" yMin="-12" xMax="197" yMax="415">
      <contour>
        <pt x="126" y="415" on="1"/>
        <pt x="153" y="415" on="0"/>
        <pt x="197" y="384" on="0"/>
        <pt x="197" y="350" on="1"/>
        <pt x="197" y="314" on="0"/>
        <pt x="158" y="270" on="0"/>
        <pt x="122" y="270" on="1"/>
        <pt x="92" y="270" on="0"/>
        <pt x="59" y="316" on="0"/>
        <pt x="59" y="378" on="0"/>
        <pt x="102" y="415" on="0"/>
      </contour>
      <contour>
        <pt x="126" y="123" on="1"/>
        <pt x="153" y="123" on="0"/>
        <pt x="197" y="92" on="0"/>
        <pt x="197" y="25" on="0"/>
        <pt x="156" y="-12" on="0"/>
        <pt x="122" y="-12" on="1"/>
        <pt x="98" y="-12" on="0"/>
        <pt x="59" y="31" on="0"/>
        <pt x="59" y="55" on="1"/>
        <pt x="59" y="86" on="0"/>
        <pt x="102" y="123" on="0"/>
      </contour>
    </TTGlyph>
    <TTGlyph name="comma" xMin="59" yMin="-108" xMax="197" yMax="126">
      <contour>
        <pt x="117" y="-9" on="1"/>
        <pt x="94" y="-9" on="0"/>
        <pt x="59" y="32" on="0"/>
        <pt x="59" y="56" on="1"/>
        <pt x="59" y="89" on="0"/>
        <pt x="102" y="126" on="0"/>
        <pt x="126" y="126" on="1"/>
        <pt x="151" y="126" on="0"/>
        <pt x="197" y="82" on="0"/>
        <pt x="197" y="46" on="1"/>
        <pt x="197" y="-7" on="0"/>
        <pt x="127" y="-103" on="0"/>
        <pt x="93" y="-108" on="1"/>
        <pt x="87" y="-92" on="1"/>
        <pt x="112" y="-81" on="0"/>
        <pt x="159" y="-19" on="0"/>
        <pt x="160" y="5" on="1"/>
        <pt x="136" y="-9" on="0"/>
      </contour>
    </TTGlyph>
    <TTGlyph name="copyright" xMin="14" yMin="-32" xMax="494" yMax="447">
      <contour>
        <pt x="265" y="356" on="1"/>
        <pt x="293" y="356" on="0"/>
        <pt x="343" y="339" on="0"/>
        <pt x="351" y="330" on="1"/>
        <pt x="362" y="336" on="0"/>
        <pt x="366" y="359" on="1"/>
        <pt x="381" y="359" on="1"/>
        <pt x="380" y="260" on="1"/>
        <pt x="365" y="260" on="1"/>
        <pt x="355" y="335" on="0"/>
        <pt x="163" y="335" on="0"/>
        <pt x="163" y="199" on="1"/>
        <pt x="163" y="136" on="0"/>
        <pt x="207" y="61" on="0"/>
        <pt x="264" y="61" on="1"/>
        <pt x="309" y="61" on="0"/>
        <pt x="347" y="96" on="0"/>
        <pt x="365" y="136" on="1"/>
        <pt x="384" y="128" on="1"/>
        <pt x="346" y="38" on="0"/>
        <pt x="264" y="38" on="1"/>
        <pt x="191" y="38" on="0"/>
        <pt x="99" y="120" on="0"/>
        <pt x="99" y="196" on="1"/>
        <pt x="99" y="254" on="0"/>
        <pt x="159" y="331" on="0"/>
        <pt x="229" y="356" on="0"/>
      </contour>
      <contour>
        <pt x="155" y="447" on="0"/>
        <pt x="353" y="447" on="0"/>
        <pt x="494" y="307" on="0"/>
        <pt x="494" y="109" on="0"/>
        <pt x="353" y="-32" on="0"/>
        <pt x="155" y="-32" on="0"/>
        <pt x="14" y="109" on="0"/>
        <pt x="14" y="307" on="0"/>
      </contour>
      <contour>
        <pt x="343" y="423" on="0"/>
        <pt x="165" y="423" on="0"/>
        <pt x="39" y="297" on="0"/>
        <pt x="39" y="119" on="0"/>
        <pt x="165" y="-7" on="0"/>
        <pt x="343" y="-7" on="0"/>
        <pt x="469" y="119" on="0"/>
        <pt x="469" y="297" on="0"/>
      </contour>
    </TTGlyph>
    <TTGlyph name="currency" xMin="39" yMin="-9" xMax="465" yMax="547">
      <contour>
        <pt x="224" y="59" on="1"/>
        <pt x="224" y="10" on="0"/>
        <pt x="259" y="10" on="1"/>
        <pt x="259" y="10" on="0"/>
        <pt x="348" y="10" on="1"/>
        <pt x="374" y="11" on="0"/>
        <pt x="437" y="109" on="0"/>
        <pt x="442" y="152" on="1"/>
        <pt x="465" y="152" on="1"/>
        <pt x="441" y="-9" on="1"/>
        <pt x="39" y="-9" on="1"/>
        <pt x="39" y="7" on="1"/>
        <pt x="80" y="13" on="1"/>
        <pt x="120" y="19" on="0"/>
        <pt x="121" y="30" on="1"/>
        <pt x="125" y="61" on="0"/>
        <pt x="128" y="203" on="1"/>
        <pt x="39" y="203" on="1"/>
        <pt x="39" y="248" on="1"/>
        <pt x="129" y="248" on="1"/>
        <pt x="129" y="276" on="0"/>
        <pt x="129" y="302" on="1"/>
        <pt x="39" y="302" on="1"/>
        <pt x="39" y="347" on="1"/>
        <pt x="130" y="347" on="1"/>
        <pt x="130" y="356" on="0"/>
        <pt x="130" y="365" on="1"/>
        <pt x="130" y="490" on="0"/>
        <pt x="126" y="503" on="1"/>
        <pt x="124" y="514" on="0"/>
        <pt x="88" y="522" on="1"/>
        <pt x="52" y="529" on="1"/>
        <pt x="52" y="547" on="1"/>
        <pt x="158" y="544" on="0"/>
        <pt x="357" y="544" on="0"/>
        <pt x="439" y="547" on="1"/>
        <pt x="442" y="402" on="1"/>
        <pt x="423" y="402" on="1"/>
        <pt x="418" y="427" on="0"/>
        <pt x="398" y="474" on="0"/>
        <pt x="350" y="521" on="0"/>
        <pt x="319" y="521" on="1"/>
        <pt x="224" y="521" on="1"/>
        <pt x="224" y="347" on="1"/>
        <pt x="403" y="347" on="1"/>
        <pt x="403" y="302" on="1"/>
        <pt x="224" y="302" on="1"/>
        <pt x="224" y="248" on="1"/>
        <pt x="403" y="248" on="1"/>
        <pt x="403" y="203" on="1"/>
        <pt x="224" y="203" on="1"/>
      </contour>
    </TTGlyph>
    <TTGlyph name="d" xMin="61" yMin="-10" xMax="502" yMax="656">
      <contour>
        <pt x="450" y="656" on="1"/>
        <pt x="445" y="487" on="0"/>
        <pt x="444" y="265" on="1"/>
        <pt x="444" y="113" on="0"/>
        <pt x="447" y="33" on="1"/>
        <pt x="447" y="26" on="0"/>
        <pt x="463" y="17" on="0"/>
        <pt x="479" y="14" on="0"/>
        <pt x="500" y="12" on="0"/>
        <pt x="502" y="12" on="1"/>
        <pt x="502" y="0" on="1"/>
        <pt x="398" y="-4" on="0"/>
        <pt x="374" y="-10" on="1"/>
        <pt x="366" y="63" on="1"/>
        <pt x="344" y="35" on="0"/>
        <pt x="274" y="-6" on="0"/>
        <pt x="239" y="-6" on="1"/>
        <pt x="160" y="-6" on="0"/>
        <pt x="61" y="105" on="0"/>
        <pt x="61" y="195" on="1"/>
        <pt x="61" y="290" on="0"/>
        <pt x="173" y="412" on="0"/>
        <pt x="260" y="412" on="1"/>
        <pt x="287" y="412" on="0"/>
        <pt x="331" y="392" on="0"/>
        <pt x="352" y="370" on="0"/>
        <pt x="358" y="360" on="1"/>
        <pt x="364" y="350" on="1"/>
        <pt x="364" y="599" on="1"/>
        <pt x="360" y="619" on="0"/>
        <pt x="292" y="620" on="1"/>
        <pt x="293" y="637" on="1"/>
        <pt x="395" y="637" on="0"/>
      </contour>
      <contour>
        <pt x="357" y="131" on="1"/>
        <pt x="364" y="223" on="1"/>
        <pt x="359" y="313" on="1"/>
        <pt x="354" y="326" on="1"/>
        <pt x="348" y="337" on="0"/>
        <pt x="328" y="367" on="0"/>
        <pt x="286" y="390" on="0"/>
        <pt x="261" y="390" on="1"/>
        <pt x="163" y="390" on="0"/>
        <pt x="163" y="204" on="1"/>
        <pt x="163" y="27" on="0"/>
        <pt x="264" y="27" on="1"/>
        <pt x="300" y="27" on="0"/>
        <pt x="357" y="98" on="0"/>
      </contour>
    </TTGlyph>
    <TTGlyph name="dcaron" xMin="61" yMin="-10" xMax="608" yMax="662">
      <component glyphName="quoteright" x="398" y="0" flags="0x1004"/>
      <component glyphName="d" x="0" y="0" flags="0x1004"/>
    </TTGlyph>
    <TTGlyph name="dcroat" xMin="61" yMin="-10" xMax="502" yMax="656">
      <component glyphName="d" x="0" y="0" flags="0x1004"/>
    </TTGlyph>
    <TTGlyph name="dieresis" xMin="98" yMin="490" xMax="313" yMax="559">
      <contour>
        <pt x="98" y="524" on="1"/>
        <pt x="98" y="539" on="0"/>
        <pt x="117" y="559" on="0"/>
        <pt x="129" y="559" on="1"/>
        <pt x="142" y="559" on="0"/>
        <pt x="162" y="540" on="0"/>
        <pt x="162" y="510" on="0"/>
        <pt x="143" y="490" on="0"/>
        <pt x="131" y="490" on="1"/>
        <pt x="118" y="490" on="0"/>
        <pt x="98" y="510" on="0"/>
      </contour>
      <contour>
        <pt x="251" y="524" on="1"/>
        <pt x="251" y="539" on="0"/>
        <pt x="269" y="559" on="0"/>
        <pt x="295" y="559" on="0"/>
        <pt x="313" y="540" on="0"/>
        <pt x="313" y="510" on="0"/>
        <pt x="295" y="490" on="0"/>
        <pt x="283" y="490" on="1"/>
        <pt x="270" y="490" on="0"/>
        <pt x="251" y="510" on="0"/>
      </contour>
    </TTGlyph>
    <TTGlyph name="divide" xMin="46" yMin="51" xMax="475" yMax="395">
      <contour>
        <pt x="244" y="395" on="1"/>
        <pt x="291" y="395" on="0"/>
        <pt x="291" y="352" on="1"/>
        <pt x="291" y="302" on="0"/>
        <pt x="244" y="302" on="1"/>
        <pt x="224" y="302" on="0"/>
        <pt x="201" y="332" on="0"/>
        <pt x="201" y="350" on="1"/>
        <pt x="201" y="369" on="0"/>
        <pt x="229" y="395" on="0"/>
      </contour>
      <contour>
        <pt x="46" y="250" on="1"/>
        <pt x="475" y="250" on="1"/>
        <pt x="475" y="188" on="1"/>
        <pt x="46" y="188" on="1"/>
      </contour>
      <contour>
        <pt x="244" y="144" on="1"/>
        <pt x="291" y="144" on="0"/>
        <pt x="291" y="101" on="1"/>
        <pt x="291" y="51" on="0"/>
        <pt x="244" y="51" on="1"/>
        <pt x="224" y="51" on="0"/>
        <pt x="201" y="81" on="0"/>
        <pt x="201" y="99" on="1"/>
        <pt x="201" y="118" on="0"/>
        <pt x="229" y="144" on="0"/>
      </contour>
    </TTGlyph>
    <TTGlyph name="dollar" xMin="115" yMin="-180" xMax="475" yMax="539">
      <contour>
        <pt x="471" y="314" on="1"/>
        <pt x="471" y="287" on="0"/>
        <pt x="429" y="237" on="0"/>
        <pt x="407" y="237" on="1"/>
        <pt x="382" y="237" on="0"/>
        <pt x="352" y="267" on="0"/>
        <pt x="352" y="295" on="1"/>
        <pt x="352" y="318" on="0"/>
        <pt x="381" y="342" on="0"/>
        <pt x="393" y="342" on="1"/>
        <pt x="421" y="342" on="0"/>
        <pt x="440" y="319" on="1"/>
        <pt x="440" y="366" on="0"/>
        <pt x="372" y="414" on="0"/>
        <pt x="328" y="417" on="1"/>
        <pt x="328" y="203" on="1"/>
        <pt x="475" y="147" on="0"/>
        <pt x="475" y="59" on="1"/>
        <pt x="475" y="31" on="0"/>
        <pt x="461" y="-18" on="0"/>
        <pt x="428" y="-65" on="0"/>
        <pt x="368" y="-96" on="0"/>
        <pt x="328" y="-101" on="1"/>
        <pt x="328" y="-180" on="1"/>
        <pt x="280" y="-180" on="1"/>
        <pt x="280" y="-103" on="1"/>
        <pt x="253" y="-101" on="0"/>
        <pt x="201" y="-86" on="0"/>
        <pt x="147" y="-57" on="0"/>
        <pt x="115" y="-5" on="0"/>
        <pt x="115" y="29" on="1"/>
        <pt x="115" y="61" on="0"/>
        <pt x="157" y="96" on="0"/>
        <pt x="178" y="96" on="1"/>
        <pt x="202" y="96" on="0"/>
        <pt x="240" y="62" on="0"/>
        <pt x="240" y="41" on="1"/>
        <pt x="240" y="16" on="0"/>
        <pt x="215" y="-16" on="0"/>
        <pt x="196" y="-16" on="1"/>
        <pt x="163" y="-16" on="0"/>
        <pt x="145" y="11" on="1"/>
        <pt x="153" y="-31" on="0"/>
        <pt x="233" y="-75" on="0"/>
        <pt x="279" y="-77" on="1"/>
        <pt x="278" y="137" on="1"/>
        <pt x="226" y="161" on="0"/>
        <pt x="148" y="243" on="0"/>
        <pt x="148" y="283" on="1"/>
        <pt x="148" y="344" on="0"/>
        <pt x="213" y="427" on="0"/>
        <pt x="276" y="437" on="1"/>
        <pt x="275" y="539" on="1"/>
        <pt x="328" y="539" on="1"/>
        <pt x="328" y="439" on="1"/>
        <pt x="350" y="437" on="0"/>
        <pt x="396" y="421" on="0"/>
        <pt x="441" y="392" on="0"/>
        <pt x="471" y="344" on="0"/>
      </contour>
      <contour>
        <pt x="278" y="226" on="1"/>
        <pt x="276" y="409" on="1"/>
        <pt x="249" y="398" on="0"/>
        <pt x="218" y="348" on="0"/>
        <pt x="218" y="314" on="1"/>
        <pt x="219" y="263" on="0"/>
      </contour>
      <contour>
        <pt x="328" y="114" on="1"/>
        <pt x="328" y="-72" on="1"/>
        <pt x="366" y="-61" on="0"/>
        <pt x="397" y="-2" on="0"/>
        <pt x="397" y="32" on="1"/>
        <pt x="398" y="78" on="0"/>
      </contour>
    </TTGlyph>
    <TTGlyph name="dotlessi" xMin="40" yMin="0" xMax="253" yMax="422">
      <contour>
        <pt x="185" y="422" on="1"/>
        <pt x="183" y="249" on="0"/>
        <pt x="183" y="37" on="1"/>
        <pt x="187" y="17" on="0"/>
        <pt x="253" y="16" on="1"/>
        <pt x="253" y="0" on="1"/>
        <pt x="212" y="3" on="0"/>
        <pt x="144" y="3" on="1"/>
        <pt x="79" y="3" on="0"/>
        <pt x="40" y="0" on="1"/>
        <pt x="40" y="16" on="1"/>
        <pt x="100" y="18" on="0"/>
        <pt x="103" y="37" on="1"/>
        <pt x="103" y="373" on="1"/>
        <pt x="72" y="383" on="0"/>
        <pt x="40" y="383" on="1"/>
        <pt x="40" y="399" on="1"/>
        <pt x="130" y="404" on="0"/>
      </contour>
    </TTGlyph>
    <TTGlyph name="e" xMin="51" yMin="-17" xMax="421" yMax="407">
      <contour>
        <pt x="151" y="232" on="1"/>
        <pt x="331" y="233" on="1"/>
        <pt x="332" y="250" on="0"/>
        <pt x="332" y="265" on="1"/>
        <pt x="332" y="296" on="0"/>
        <pt x="327" y="315" on="1"/>
        <pt x="319" y="347" on="0"/>
        <pt x="270" y="388" on="0"/>
        <pt x="234" y="388" on="1"/>
        <pt x="197" y="388" on="0"/>
        <pt x="155" y="304" on="0"/>
      </contour>
      <contour>
        <pt x="150" y="217" on="1"/>
        <pt x="150" y="195" on="1"/>
        <pt x="150" y="123" on="0"/>
        <pt x="203" y="7" on="0"/>
        <pt x="253" y="7" on="1"/>
        <pt x="311" y="7" on="0"/>
        <pt x="379" y="75" on="0"/>
        <pt x="392" y="112" on="1"/>
        <pt x="420" y="92" on="1"/>
        <pt x="405" y="54" on="0"/>
        <pt x="319" y="-17" on="0"/>
        <pt x="249" y="-17" on="1"/>
        <pt x="164" y="-17" on="0"/>
        <pt x="51" y="89" on="0"/>
        <pt x="51" y="190" on="1"/>
        <pt x="51" y="249" on="0"/>
        <pt x="90" y="338" on="0"/>
        <pt x="155" y="385" on="0"/>
        <pt x="221" y="407" on="0"/>
        <pt x="256" y="407" on="1"/>
        <pt x="310" y="407" on="0"/>
        <pt x="403" y="349" on="0"/>
        <pt x="417" y="284" on="1"/>
        <pt x="421" y="264" on="0"/>
        <pt x="421" y="244" on="1"/>
        <pt x="421" y="233" on="0"/>
        <pt x="420" y="218" on="1"/>
      </contour>
    </TTGlyph>
    <TTGlyph name="eacute" xMin="51" yMin="-17" xMax="421" yMax="620">
      <component glyphName="e" x="0" y="0" flags="0x1004"/>
      <component glyphName="acute" x="30" y="0" flags="0x1004"/>
    </TTGlyph>
    <TTGlyph name="ebreve" xMin="51" yMin="-17" xMax="421" yMax="407">
      <component glyphName="e" x="0" y="0" flags="0x1004"/>
    </TTGlyph>
    <TTGlyph name="ecaron" xMin="51" yMin="-17" xMax="421" yMax="609">
      <component glyphName="caron" x="25" y="0" flags="0x1004"/>
      <component glyphName="e" x="0" y="0" flags="0x1004"/>
    </TTGlyph>
    <TTGlyph name="ecircumflex" xMin="51" yMin="-17" xMax="421" yMax="604">
      <component glyphName="asciicircum" x="25" y="0" flags="0x1004"/>
      <component glyphName="e" x="0" y="0" flags="0x1004"/>
    </TTGlyph>
    <TTGlyph name="edieresis" xMin="51" yMin="-17" xMax="421" yMax="559">
      <component glyphName="dieresis" x="36" y="0" flags="0x1004"/>
      <component glyphName="e" x="0" y="0" flags="0x1004"/>
    </TTGlyph>
    <TTGlyph name="edotaccent" xMin="51" yMin="-17" xMax="421" yMax="407">
      <component glyphName="e" x="0" y="0" flags="0x1004"/>
    </TTGlyph>
    <TTGlyph name="egrave" xMin="51" yMin="-17" xMax="421" yMax="621">
      <component glyphName="grave" x="0" y="0" flags="0x1004"/>
      <component glyphName="e" x="0" y="0" flags="0x1004"/>
    </TTGlyph>
    <TTGlyph name="eight" xMin="35" yMin="-18" xMax="467" yMax="582">
      <contour>
        <pt x="467" y="160" on="1"/>
        <pt x="467" y="-18" on="0"/>
        <pt x="248" y="-18" on="1"/>
        <pt x="157" y="-18" on="0"/>
        <pt x="35" y="69" on="0"/>
        <pt x="35" y="158" on="1"/>
        <pt x="35" y="224" on="0"/>
        <pt x="161" y="309" on="0"/>
        <pt x="217" y="315" on="1"/>
        <pt x="171" y="324" on="0"/>
        <pt x="85" y="397" on="0"/>
        <pt x="85" y="451" on="1"/>
        <pt x="85" y="496" on="0"/>
        <pt x="146" y="558" on="0"/>
        <pt x="221" y="582" on="0"/>
        <pt x="260" y="582" on="1"/>
        <pt x="300" y="582" on="0"/>
        <pt x="372" y="559" on="0"/>
        <pt x="427" y="497" on="0"/>
        <pt x="427" y="451" on="1"/>
        <pt x="427" y="394" on="0"/>
        <pt x="337" y="323" on="0"/>
        <pt x="287" y="317" on="1"/>
        <pt x="320" y="311" on="0"/>
        <pt x="398" y="274" on="0"/>
        <pt x="467" y="202" on="0"/>
      </contour>
      <contour>
        <pt x="353" y="449" on="1"/>
        <pt x="353" y="499" on="0"/>
        <pt x="298" y="567" on="0"/>
        <pt x="257" y="567" on="1"/>
        <pt x="217" y="567" on="0"/>
        <pt x="163" y="504" on="0"/>
        <pt x="161" y="455" on="1"/>
        <pt x="161" y="449" on="0"/>
        <pt x="161" y="443" on="1"/>
        <pt x="161" y="341" on="0"/>
        <pt x="252" y="322" on="1"/>
        <pt x="304" y="332" on="0"/>
        <pt x="353" y="401" on="0"/>
      </contour>
      <contour>
        <pt x="379" y="164" on="1"/>
        <pt x="379" y="234" on="0"/>
        <pt x="310" y="296" on="0"/>
        <pt x="253" y="307" on="1"/>
        <pt x="226" y="303" on="0"/>
        <pt x="191" y="292" on="0"/>
        <pt x="144" y="263" on="0"/>
        <pt x="120" y="205" on="0"/>
        <pt x="120" y="163" on="1"/>
        <pt x="120" y="103" on="0"/>
        <pt x="188" y="2" on="0"/>
        <pt x="248" y="2" on="1"/>
        <pt x="379" y="2" on="0"/>
      </contour>
    </TTGlyph>
    <TTGlyph name="ellipsis" xMin="60" yMin="-12" xMax="603" yMax="138">
      <contour>
        <pt x="525" y="138" on="1"/>
        <pt x="554" y="138" on="0"/>
        <pt x="603" y="103" on="0"/>
        <pt x="603" y="67" on="1"/>
        <pt x="603" y="-12" on="0"/>
        <pt x="528" y="-12" on="1"/>
        <pt x="494" y="-12" on="0"/>
        <pt x="452" y="33" on="0"/>
        <pt x="452" y="63" on="1"/>
        <pt x="452" y="97" on="0"/>
        <pt x="498" y="138" on="0"/>
      </contour>
      <contour>
        <pt x="134" y="138" on="1"/>
        <pt x="163" y="138" on="0"/>
        <pt x="212" y="103" on="0"/>
        <pt x="212" y="67" on="1"/>
        <pt x="212" y="-12" on="0"/>
        <pt x="137" y="-12" on="1"/>
        <pt x="103" y="-12" on="0"/>
        <pt x="60" y="33" on="0"/>
        <pt x="60" y="63" on="1"/>
        <pt x="60" y="97" on="0"/>
        <pt x="107" y="138" on="0"/>
      </contour>
      <contour>
        <pt x="331" y="138" on="1"/>
        <pt x="360" y="138" on="0"/>
        <pt x="409" y="103" on="0"/>
        <pt x="409" y="67" on="1"/>
        <pt x="409" y="-12" on="0"/>
        <pt x="334" y="-12" on="1"/>
        <pt x="300" y="-12" on="0"/>
        <pt x="257" y="33" on="0"/>
        <pt x="257" y="63" on="1"/>
        <pt x="257" y="97" on="0"/>
        <pt x="304" y="138" on="0"/>
      </contour>
    </TTGlyph>
    <TTGlyph name="emacron" xMin="51" yMin="-17" xMax="421" yMax="407">
      <component glyphName="e" x="0" y="0" flags="0x1004"/>
    </TTGlyph>
    <TTGlyph name="emdash" xMin="34" yMin="195" xMax="1010" yMax="248">
      <contour>
        <pt x="34" y="248" on="1"/>
        <pt x="1010" y="248" on="1"/>
        <pt x="1010" y="195" on="1"/>
        <pt x="34" y="195" on="1"/>
      </contour>
    </TTGlyph>
    <TTGlyph name="endash" xMin="35" yMin="193" xMax="498" yMax="246">
      <contour>
        <pt x="35" y="246" on="1"/>
        <pt x="498" y="246" on="1"/>
        <pt x="498" y="193" on="1"/>
        <pt x="35" y="193" on="1"/>
      </contour>
    </TTGlyph>
    <TTGlyph name="eogonek" xMin="51" yMin="-227" xMax="421" yMax="407">
      <contour>
        <pt x="115" y="-134" on="1"/>
        <pt x="115" y="-96" on="0"/>
        <pt x="174" y="-37" on="0"/>
        <pt x="204" y="-24" on="1"/>
        <pt x="248" y="-5" on="0"/>
        <pt x="283" y="-4" on="1"/>
        <pt x="291" y="-4" on="0"/>
        <pt x="298" y="-5" on="1"/>
        <pt x="292" y="-9" on="0"/>
        <pt x="268" y="-24" on="0"/>
        <pt x="239" y="-48" on="0"/>
        <pt x="212" y="-74" on="0"/>
        <pt x="194" y="-108" on="0"/>
        <pt x="194" y="-123" on="1"/>
        <pt x="194" y="-166" on="0"/>
        <pt x="227" y="-203" on="0"/>
        <pt x="251" y="-203" on="1"/>
        <pt x="276" y="-203" on="0"/>
        <pt x="324" y="-154" on="0"/>
        <pt x="325" y="-132" on="1"/>
        <pt x="326" y="-133" on="0"/>
        <pt x="346" y="-142" on="0"/>
        <pt x="349" y="-145" on="1"/>
        <pt x="338" y="-176" on="0"/>
        <pt x="278" y="-227" on="0"/>
        <pt x="233" y="-227" on="1"/>
        <pt x="179" y="-227" on="0"/>
        <pt x="115" y="-175" on="0"/>
      </contour>
      <contour>
        <pt x="151" y="232" on="1"/>
        <pt x="331" y="233" on="1"/>
        <pt x="332" y="250" on="0"/>
        <pt x="332" y="265" on="1"/>
        <pt x="332" y="296" on="0"/>
        <pt x="327" y="315" on="1"/>
        <pt x="319" y="347" on="0"/>
        <pt x="270" y="388" on="0"/>
        <pt x="234" y="388" on="1"/>
        <pt x="197" y="388" on="0"/>
        <pt x="155" y="304" on="0"/>
      </contour>
      <contour>
        <pt x="150" y="217" on="1"/>
        <pt x="150" y="195" on="1"/>
        <pt x="150" y="123" on="0"/>
        <pt x="203" y="7" on="0"/>
        <pt x="253" y="7" on="1"/>
        <pt x="311" y="7" on="0"/>
        <pt x="379" y="75" on="0"/>
        <pt x="392" y="112" on="1"/>
        <pt x="420" y="92" on="1"/>
        <pt x="405" y="54" on="0"/>
        <pt x="319" y="-17" on="0"/>
        <pt x="249" y="-17" on="1"/>
        <pt x="164" y="-17" on="0"/>
        <pt x="51" y="89" on="0"/>
        <pt x="51" y="190" on="1"/>
        <pt x="51" y="249" on="0"/>
        <pt x="90" y="338" on="0"/>
        <pt x="155" y="385" on="0"/>
        <pt x="221" y="407" on="0"/>
        <pt x="256" y="407" on="1"/>
        <pt x="310" y="407" on="0"/>
        <pt x="403" y="349" on="0"/>
        <pt x="417" y="284" on="1"/>
        <pt x="421" y="264" on="0"/>
        <pt x="421" y="244" on="1"/>
        <pt x="421" y="233" on="0"/>
        <pt x="420" y="218" on="1"/>
      </contour>
    </TTGlyph>
    <TTGlyph name="equal" xMin="46" yMin="124" xMax="475" yMax="339">
      <contour>
        <pt x="46" y="339" on="1"/>
        <pt x="475" y="339" on="1"/>
        <pt x="475" y="278" on="1"/>
        <pt x="46" y="278" on="1"/>
      </contour>
      <contour>
        <pt x="46" y="185" on="1"/>
        <pt x="475" y="185" on="1"/>
        <pt x="475" y="124" on="1"/>
        <pt x="46" y="124" on="1"/>
      </contour>
    </TTGlyph>
    <TTGlyph name="exclam" xMin="146" yMin="-12" xMax="283" yMax="598">
      <contour>
        <pt x="190" y="197" on="1"/>
        <pt x="159" y="569" on="0"/>
        <pt x="160" y="569" on="1"/>
        <pt x="160" y="598" on="0"/>
        <pt x="227" y="598" on="1"/>
        <pt x="259" y="598" on="0"/>
        <pt x="283" y="584" on="0"/>
        <pt x="283" y="570" on="1"/>
        <pt x="283" y="528" on="0"/>
        <pt x="227" y="198" on="1"/>
        <pt x="227" y="198" on="0"/>
        <pt x="227" y="197" on="1"/>
      </contour>
      <contour>
        <pt x="207" y="112" on="1"/>
        <pt x="236" y="112" on="0"/>
        <pt x="268" y="77" on="0"/>
        <pt x="268" y="50" on="1"/>
        <pt x="268" y="24" on="0"/>
        <pt x="234" y="-12" on="0"/>
        <pt x="210" y="-12" on="1"/>
        <pt x="182" y="-12" on="0"/>
        <pt x="146" y="16" on="0"/>
        <pt x="146" y="48" on="1"/>
        <pt x="147" y="112" on="0"/>
      </contour>
    </TTGlyph>
    <TTGlyph name="exclamdown" xMin="150" yMin="-12" xMax="283" yMax="598">
      <contour>
        <pt x="242" y="389" on="1"/>
        <pt x="242" y="389" on="0"/>
        <pt x="272" y="18" on="1"/>
        <pt x="272" y="17" on="0"/>
        <pt x="272" y="16" on="1"/>
        <pt x="272" y="-13" on="0"/>
        <pt x="205" y="-12" on="1"/>
        <pt x="173" y="-12" on="0"/>
        <pt x="150" y="1" on="0"/>
        <pt x="150" y="15" on="1"/>
        <pt x="150" y="62" on="0"/>
        <pt x="205" y="387" on="1"/>
        <pt x="205" y="387" on="0"/>
        <pt x="205" y="389" on="1"/>
      </contour>
      <contour>
        <pt x="225" y="474" on="1"/>
        <pt x="197" y="474" on="0"/>
        <pt x="164" y="514" on="0"/>
        <pt x="164" y="536" on="1"/>
        <pt x="164" y="556" on="0"/>
        <pt x="199" y="598" on="0"/>
        <pt x="222" y="598" on="1"/>
        <pt x="282" y="598" on="0"/>
        <pt x="283" y="536" on="1"/>
        <pt x="282" y="474" on="0"/>
      </contour>
    </TTGlyph>
    <TTGlyph name="f" xMin="75" yMin="0" xMax="481" yMax="671">
      <contour>
        <pt x="333" y="0" on="1"/>
        <pt x="274" y="4" on="0"/>
        <pt x="124" y="4" on="0"/>
        <pt x="75" y="0" on="1"/>
        <pt x="75" y="18" on="1"/>
        <pt x="160" y="18" on="0"/>
        <pt x="161" y="44" on="1"/>
        <pt x="165" y="378" on="1"/>
        <pt x="81" y="378" on="1"/>
        <pt x="81" y="400" on="1"/>
        <pt x="165" y="400" on="1"/>
        <pt x="165" y="411" on="0"/>
        <pt x="165" y="422" on="1"/>
        <pt x="165" y="671" on="0"/>
        <pt x="339" y="671" on="1"/>
        <pt x="385" y="671" on="0"/>
        <pt x="481" y="623" on="0"/>
        <pt x="481" y="584" on="1"/>
        <pt x="481" y="558" on="0"/>
        <pt x="453" y="515" on="0"/>
        <pt x="424" y="515" on="1"/>
        <pt x="404" y="515" on="0"/>
        <pt x="378" y="546" on="0"/>
        <pt x="378" y="563" on="1"/>
        <pt x="378" y="576" on="0"/>
        <pt x="396" y="600" on="0"/>
        <pt x="406" y="604" on="1"/>
        <pt x="415" y="609" on="1"/>
        <pt x="414" y="634" on="0"/>
        <pt x="366" y="655" on="0"/>
        <pt x="336" y="655" on="1"/>
        <pt x="292" y="655" on="0"/>
        <pt x="269" y="621" on="1"/>
        <pt x="245" y="584" on="0"/>
        <pt x="246" y="495" on="1"/>
        <pt x="246" y="453" on="0"/>
        <pt x="248" y="415" on="0"/>
        <pt x="248" y="400" on="1"/>
        <pt x="343" y="400" on="1"/>
        <pt x="343" y="378" on="1"/>
        <pt x="248" y="378" on="1"/>
        <pt x="254" y="44" on="1"/>
        <pt x="255" y="31" on="0"/>
        <pt x="285" y="17" on="0"/>
        <pt x="303" y="17" on="1"/>
        <pt x="313" y="17" on="0"/>
        <pt x="333" y="18" on="1"/>
      </contour>
    </TTGlyph>
    <TTGlyph name="fi" xMin="34" yMin="0" xMax="555" yMax="681">
      <contour>
        <pt x="492" y="584" on="1"/>
        <pt x="492" y="505" on="0"/>
        <pt x="434" y="505" on="1"/>
        <pt x="414" y="505" on="0"/>
        <pt x="378" y="542" on="0"/>
        <pt x="378" y="563" on="1"/>
        <pt x="378" y="576" on="0"/>
        <pt x="396" y="600" on="0"/>
        <pt x="406" y="604" on="1"/>
        <pt x="415" y="609" on="1"/>
        <pt x="414" y="634" on="0"/>
        <pt x="354" y="666" on="0"/>
        <pt x="326" y="666" on="1"/>
        <pt x="300" y="666" on="0"/>
        <pt x="260" y="652" on="0"/>
        <pt x="236" y="628" on="0"/>
        <pt x="218" y="596" on="0"/>
        <pt x="211" y="558" on="0"/>
        <pt x="206" y="518" on="0"/>
        <pt x="206" y="478" on="0"/>
        <pt x="205" y="460" on="1"/>
        <pt x="205" y="451" on="0"/>
        <pt x="207" y="414" on="0"/>
        <pt x="207" y="400" on="1"/>
        <pt x="361" y="400" on="1"/>
        <pt x="426" y="400" on="0"/>
        <pt x="487" y="422" on="1"/>
        <pt x="485" y="249" on="0"/>
        <pt x="485" y="41" on="1"/>
        <pt x="486" y="31" on="0"/>
        <pt x="538" y="16" on="0"/>
        <pt x="555" y="16" on="1"/>
        <pt x="555" y="0" on="1"/>
        <pt x="514" y="3" on="0"/>
        <pt x="446" y="3" on="1"/>
        <pt x="381" y="3" on="0"/>
        <pt x="342" y="0" on="1"/>
        <pt x="342" y="16" on="1"/>
        <pt x="403" y="18" on="0"/>
        <pt x="406" y="41" on="1"/>
        <pt x="406" y="373" on="1"/>
        <pt x="392" y="377" on="0"/>
        <pt x="389" y="378" on="1"/>
        <pt x="207" y="378" on="1"/>
        <pt x="213" y="47" on="1"/>
        <pt x="213" y="34" on="0"/>
        <pt x="266" y="18" on="0"/>
        <pt x="292" y="18" on="1"/>
        <pt x="292" y="0" on="1"/>
        <pt x="233" y="4" on="0"/>
        <pt x="83" y="4" on="0"/>
        <pt x="34" y="0" on="1"/>
        <pt x="34" y="18" on="1"/>
        <pt x="66" y="18" on="0"/>
        <pt x="120" y="35" on="0"/>
        <pt x="120" y="45" on="1"/>
        <pt x="124" y="378" on="1"/>
        <pt x="40" y="378" on="1"/>
        <pt x="40" y="400" on="1"/>
        <pt x="124" y="400" on="1"/>
        <pt x="124" y="408" on="0"/>
        <pt x="124" y="417" on="1"/>
        <pt x="124" y="681" on="0"/>
        <pt x="329" y="681" on="1"/>
        <pt x="357" y="681" on="0"/>
        <pt x="430" y="656" on="0"/>
        <pt x="492" y="611" on="0"/>
      </contour>
    </TTGlyph>
    <TTGlyph name="five" xMin="23" yMin="-221" xMax="492" yMax="459">
      <contour>
        <pt x="440" y="329" on="1"/>
        <pt x="180" y="330" on="1"/>
        <pt x="180" y="330" on="0"/>
        <pt x="115" y="139" on="1"/>
        <pt x="176" y="202" on="0"/>
        <pt x="265" y="203" on="1"/>
        <pt x="347" y="203" on="0"/>
        <pt x="444" y="97" on="0"/>
        <pt x="444" y="7" on="1"/>
        <pt x="444" y="-82" on="0"/>
        <pt x="294" y="-221" on="0"/>
        <pt x="206" y="-221" on="1"/>
        <pt x="132" y="-221" on="0"/>
        <pt x="23" y="-136" on="0"/>
        <pt x="23" y="-90" on="1"/>
        <pt x="23" y="-14" on="0"/>
        <pt x="86" y="-14" on="1"/>
        <pt x="112" y="-14" on="0"/>
        <pt x="137" y="-51" on="0"/>
        <pt x="137" y="-70" on="1"/>
        <pt x="137" y="-93" on="0"/>
        <pt x="103" y="-122" on="0"/>
        <pt x="83" y="-124" on="1"/>
        <pt x="87" y="-154" on="0"/>
        <pt x="169" y="-198" on="0"/>
        <pt x="208" y="-198" on="1"/>
        <pt x="258" y="-198" on="0"/>
        <pt x="344" y="-73" on="0"/>
        <pt x="344" y="-3" on="1"/>
        <pt x="344" y="70" on="0"/>
        <pt x="291" y="172" on="0"/>
        <pt x="241" y="172" on="1"/>
        <pt x="148" y="172" on="0"/>
        <pt x="105" y="90" on="1"/>
        <pt x="99" y="90" on="0"/>
        <pt x="86" y="98" on="1"/>
        <pt x="74" y="106" on="1"/>
        <pt x="171" y="396" on="1"/>
        <pt x="438" y="397" on="1"/>
        <pt x="466" y="459" on="1"/>
        <pt x="492" y="459" on="1"/>
      </contour>
    </TTGlyph>
    <TTGlyph name="fl" xMin="34" yMin="0" xMax="569" yMax="681">
      <contour>
        <pt x="410" y="614" on="1"/>
        <pt x="363" y="665" on="0"/>
        <pt x="315" y="666" on="1"/>
        <pt x="278" y="666" on="0"/>
        <pt x="230" y="624" on="0"/>
        <pt x="211" y="549" on="0"/>
        <pt x="206" y="496" on="0"/>
        <pt x="205" y="460" on="1"/>
        <pt x="205" y="451" on="0"/>
        <pt x="207" y="414" on="0"/>
        <pt x="207" y="400" on="1"/>
        <pt x="323" y="400" on="1"/>
        <pt x="323" y="378" on="1"/>
        <pt x="207" y="378" on="1"/>
        <pt x="213" y="48" on="1"/>
        <pt x="213" y="36" on="0"/>
        <pt x="268" y="18" on="0"/>
        <pt x="292" y="18" on="1"/>
        <pt x="292" y="0" on="1"/>
        <pt x="233" y="4" on="0"/>
        <pt x="83" y="4" on="0"/>
        <pt x="34" y="0" on="1"/>
        <pt x="34" y="18" on="1"/>
        <pt x="66" y="18" on="0"/>
        <pt x="119" y="36" on="0"/>
        <pt x="120" y="48" on="1"/>
        <pt x="124" y="378" on="1"/>
        <pt x="40" y="378" on="1"/>
        <pt x="40" y="400" on="1"/>
        <pt x="124" y="400" on="1"/>
        <pt x="124" y="407" on="0"/>
        <pt x="124" y="414" on="1"/>
        <pt x="124" y="453" on="0"/>
        <pt x="134" y="524" on="0"/>
        <pt x="162" y="596" on="0"/>
        <pt x="205" y="648" on="0"/>
        <pt x="274" y="681" on="0"/>
        <pt x="318" y="681" on="1"/>
        <pt x="342" y="681" on="0"/>
        <pt x="416" y="653" on="0"/>
        <pt x="439" y="636" on="1"/>
        <pt x="451" y="638" on="0"/>
        <pt x="485" y="653" on="0"/>
        <pt x="502" y="657" on="1"/>
        <pt x="498" y="567" on="0"/>
        <pt x="498" y="484" on="1"/>
        <pt x="498" y="457" on="0"/>
        <pt x="500" y="225" on="0"/>
        <pt x="500" y="115" on="1"/>
        <pt x="500" y="77" on="0"/>
        <pt x="500" y="37" on="1"/>
        <pt x="502" y="27" on="0"/>
        <pt x="552" y="17" on="0"/>
        <pt x="569" y="16" on="1"/>
        <pt x="569" y="0" on="1"/>
        <pt x="525" y="5" on="0"/>
        <pt x="464" y="5" on="1"/>
        <pt x="393" y="5" on="0"/>
        <pt x="348" y="0" on="1"/>
        <pt x="348" y="16" on="1"/>
        <pt x="370" y="17" on="0"/>
        <pt x="415" y="32" on="0"/>
        <pt x="416" y="43" on="1"/>
        <pt x="420" y="148" on="0"/>
        <pt x="420" y="312" on="1"/>
        <pt x="420" y="482" on="0"/>
        <pt x="416" y="588" on="1"/>
        <pt x="416" y="589" on="0"/>
      </contour>
    </TTGlyph>
    <TTGlyph name="four" xMin="9" yMin="-190" xMax="510" yMax="427">
      <contour>
        <pt x="364" y="-4" on="1"/>
        <pt x="364" y="-4" on="0"/>
        <pt x="365" y="-190" on="1"/>
        <pt x="281" y="-190" on="1"/>
        <pt x="282" y="-190" on="0"/>
        <pt x="282" y="-4" on="1"/>
        <pt x="41" y="-4" on="1"/>
        <pt x="9" y="26" on="1"/>
        <pt x="349" y="427" on="1"/>
        <pt x="371" y="410" on="1"/>
        <pt x="371" y="410" on="0"/>
        <pt x="367" y="268" on="1"/>
        <pt x="364" y="126" on="0"/>
        <pt x="364" y="44" on="1"/>
        <pt x="364" y="32" on="0"/>
        <pt x="364" y="20" on="1"/>
        <pt x="429" y="20" on="1"/>
        <pt x="457" y="56" on="1"/>
        <pt x="486" y="92" on="0"/>
        <pt x="495" y="109" on="1"/>
        <pt x="510" y="96" on="1"/>
        <pt x="505" y="86" on="0"/>
        <pt x="482" y="44" on="0"/>
        <pt x="466" y="12" on="0"/>
        <pt x="461" y="-5" on="1"/>
        <pt x="442" y="-5" on="0"/>
        <pt x="395" y="-4" on="0"/>
      </contour>
      <contour>
        <pt x="284" y="307" on="1"/>
        <pt x="278" y="299" on="0"/>
        <pt x="77" y="58" on="0"/>
        <pt x="55" y="22" on="1"/>
        <pt x="282" y="22" on="1"/>
        <pt x="282" y="269" on="0"/>
      </contour>
    </TTGlyph>
    <TTGlyph name="g" xMin="41" yMin="-234" xMax="472" yMax="417">
      <contour>
        <pt x="442" y="338" on="1"/>
        <pt x="430" y="338" on="0"/>
        <pt x="399" y="376" on="0"/>
        <pt x="395" y="376" on="1"/>
        <pt x="370" y="376" on="0"/>
        <pt x="357" y="360" on="1"/>
        <pt x="369" y="351" on="1"/>
        <pt x="379" y="342" on="0"/>
        <pt x="399" y="294" on="0"/>
        <pt x="399" y="263" on="1"/>
        <pt x="399" y="193" on="0"/>
        <pt x="296" y="112" on="0"/>
        <pt x="240" y="112" on="1"/>
        <pt x="213" y="112" on="0"/>
        <pt x="185" y="121" on="1"/>
        <pt x="158" y="129" on="1"/>
        <pt x="147" y="125" on="1"/>
        <pt x="137" y="120" on="0"/>
        <pt x="117" y="99" on="0"/>
        <pt x="116" y="89" on="1"/>
        <pt x="117" y="56" on="0"/>
        <pt x="181" y="56" on="1"/>
        <pt x="269" y="56" on="0"/>
        <pt x="305" y="49" on="1"/>
        <pt x="368" y="38" on="0"/>
        <pt x="434" y="-12" on="0"/>
        <pt x="434" y="-72" on="1"/>
        <pt x="434" y="-147" on="0"/>
        <pt x="303" y="-234" on="0"/>
        <pt x="205" y="-234" on="1"/>
        <pt x="122" y="-234" on="0"/>
        <pt x="41" y="-172" on="0"/>
        <pt x="41" y="-128" on="1"/>
        <pt x="41" y="-92" on="0"/>
        <pt x="100" y="-44" on="0"/>
        <pt x="157" y="-23" on="1"/>
        <pt x="156" y="-23" on="0"/>
        <pt x="148" y="-23" on="0"/>
        <pt x="147" y="-23" on="1"/>
        <pt x="118" y="-23" on="0"/>
        <pt x="66" y="19" on="0"/>
        <pt x="66" y="57" on="1"/>
        <pt x="66" y="77" on="0"/>
        <pt x="92" y="114" on="0"/>
        <pt x="117" y="129" on="0"/>
        <pt x="137" y="139" on="1"/>
        <pt x="133" y="142" on="0"/>
        <pt x="112" y="167" on="0"/>
        <pt x="89" y="194" on="0"/>
        <pt x="73" y="238" on="0"/>
        <pt x="73" y="260" on="1"/>
        <pt x="73" y="316" on="0"/>
        <pt x="163" y="404" on="0"/>
        <pt x="231" y="404" on="1"/>
        <pt x="264" y="404" on="0"/>
        <pt x="321" y="390" on="0"/>
        <pt x="333" y="383" on="1"/>
        <pt x="345" y="376" on="1"/>
        <pt x="391" y="417" on="0"/>
        <pt x="425" y="417" on="1"/>
        <pt x="472" y="417" on="0"/>
        <pt x="472" y="379" on="1"/>
        <pt x="472" y="338" on="0"/>
      </contour>
      <contour>
        <pt x="325" y="261" on="1"/>
        <pt x="325" y="320" on="0"/>
        <pt x="269" y="387" on="0"/>
        <pt x="236" y="387" on="1"/>
        <pt x="206" y="387" on="0"/>
        <pt x="152" y="315" on="0"/>
        <pt x="152" y="263" on="1"/>
        <pt x="152" y="207" on="0"/>
        <pt x="199" y="129" on="0"/>
        <pt x="239" y="129" on="1"/>
        <pt x="276" y="129" on="0"/>
        <pt x="325" y="193" on="0"/>
      </contour>
      <contour>
        <pt x="368" y="-118" on="1"/>
        <pt x="368" y="-61" on="0"/>
        <pt x="291" y="-25" on="0"/>
        <pt x="185" y="-25" on="1"/>
        <pt x="168" y="-33" on="1"/>
        <pt x="150" y="-40" on="0"/>
        <pt x="113" y="-88" on="0"/>
        <pt x="113" y="-121" on="1"/>
        <pt x="113" y="-157" on="0"/>
        <pt x="167" y="-217" on="0"/>
        <pt x="222" y="-217" on="1"/>
        <pt x="292" y="-217" on="0"/>
        <pt x="368" y="-158" on="0"/>
      </contour>
    </TTGlyph>
    <TTGlyph name="gbreve" xMin="41" yMin="-234" xMax="472" yMax="417">
      <component glyphName="g" x="0" y="0" flags="0x1004"/>
    </TTGlyph>
    <TTGlyph name="gcircumflex" xMin="41" yMin="-234" xMax="472" yMax="604">
      <component glyphName="asciicircum" x="29" y="0" flags="0x1004"/>
      <component glyphName="g" x="0" y="0" flags="0x1004"/>
    </TTGlyph>
    <TTGlyph name="gcommaaccent" xMin="41" yMin="-234" xMax="472" yMax="417">
      <component glyphName="g" x="0" y="0" flags="0x1004"/>
    </TTGlyph>
    <TTGlyph name="gdotaccent" xMin="41" yMin="-234" xMax="472" yMax="417">
      <component glyphName="g" x="0" y="0" flags="0x1004"/>
    </TTGlyph>
    <TTGlyph name="grave" xMin="101" yMin="462" xMax="287" yMax="621">
      <contour>
        <pt x="101" y="587" on="1"/>
        <pt x="130" y="621" on="1"/>
        <pt x="287" y="477" on="1"/>
        <pt x="264" y="462" on="1"/>
      </contour>
    </TTGlyph>
    <TTGlyph name="greater" xMin="62" yMin="-3" xMax="397" yMax="446">
      <contour>
        <pt x="62" y="446" on="1"/>
        <pt x="397" y="236" on="1"/>
        <pt x="397" y="203" on="1"/>
        <pt x="74" y="-3" on="1"/>
        <pt x="74" y="25" on="1"/>
        <pt x="286" y="208" on="1"/>
        <pt x="286" y="225" on="1"/>
        <pt x="62" y="425" on="1"/>
      </contour>
    </TTGlyph>
    <TTGlyph name="guillemotleft" xMin="58" yMin="20" xMax="458" yMax="380">
      <contour>
        <pt x="458" y="380" on="1"/>
        <pt x="458" y="362" on="1"/>
        <pt x="307" y="201" on="1"/>
        <pt x="307" y="187" on="1"/>
        <pt x="449" y="43" on="1"/>
        <pt x="449" y="20" on="1"/>
        <pt x="233" y="183" on="1"/>
        <pt x="233" y="209" on="1"/>
      </contour>
      <contour>
        <pt x="327" y="380" on="1"/>
        <pt x="327" y="362" on="1"/>
        <pt x="147" y="201" on="1"/>
        <pt x="147" y="187" on="1"/>
        <pt x="317" y="43" on="1"/>
        <pt x="317" y="20" on="1"/>
        <pt x="58" y="183" on="1"/>
        <pt x="58" y="209" on="1"/>
      </contour>
    </TTGlyph>
    <TTGlyph name="guillemotright" xMin="58" yMin="20" xMax="458" yMax="380">
      <contour>
        <pt x="58" y="380" on="1"/>
        <pt x="283" y="209" on="1"/>
        <pt x="283" y="183" on="1"/>
        <pt x="68" y="20" on="1"/>
        <pt x="68" y="43" on="1"/>
        <pt x="209" y="187" on="1"/>
        <pt x="209" y="201" on="1"/>
        <pt x="58" y="362" on="1"/>
      </contour>
      <contour>
        <pt x="189" y="380" on="1"/>
        <pt x="458" y="209" on="1"/>
        <pt x="458" y="183" on="1"/>
        <pt x="199" y="20" on="1"/>
        <pt x="199" y="43" on="1"/>
        <pt x="369" y="187" on="1"/>
        <pt x="369" y="201" on="1"/>
        <pt x="189" y="362" on="1"/>
      </contour>
    </TTGlyph>
    <TTGlyph name="h" xMin="61" yMin="0" xMax="543" yMax="657">
      <contour>
        <pt x="61" y="635" on="1"/>
        <pt x="62" y="635" on="1"/>
        <pt x="143" y="635" on="0"/>
        <pt x="207" y="657" on="1"/>
        <pt x="205" y="307" on="1"/>
        <pt x="220" y="332" on="0"/>
        <pt x="237" y="352" on="0"/>
        <pt x="271" y="389" on="0"/>
        <pt x="314" y="406" on="0"/>
        <pt x="342" y="406" on="1"/>
        <pt x="378" y="406" on="0"/>
        <pt x="434" y="372" on="0"/>
        <pt x="462" y="322" on="0"/>
        <pt x="475" y="275" on="0"/>
        <pt x="475" y="258" on="1"/>
        <pt x="475" y="228" on="0"/>
        <pt x="475" y="83" on="0"/>
        <pt x="475" y="61" on="1"/>
        <pt x="475" y="38" on="0"/>
        <pt x="475" y="37" on="1"/>
        <pt x="475" y="28" on="0"/>
        <pt x="503" y="18" on="0"/>
        <pt x="520" y="17" on="0"/>
        <pt x="543" y="16" on="1"/>
        <pt x="543" y="0" on="1"/>
        <pt x="501" y="4" on="0"/>
        <pt x="435" y="4" on="1"/>
        <pt x="366" y="4" on="0"/>
        <pt x="328" y="0" on="1"/>
        <pt x="328" y="16" on="1"/>
        <pt x="334" y="17" on="0"/>
        <pt x="351" y="17" on="0"/>
        <pt x="369" y="19" on="0"/>
        <pt x="384" y="24" on="0"/>
        <pt x="393" y="31" on="0"/>
        <pt x="393" y="36" on="1"/>
        <pt x="393" y="36" on="0"/>
        <pt x="393" y="37" on="1"/>
        <pt x="393" y="275" on="1"/>
        <pt x="393" y="367" on="0"/>
        <pt x="325" y="368" on="1"/>
        <pt x="284" y="368" on="0"/>
        <pt x="237" y="329" on="0"/>
        <pt x="205" y="282" on="1"/>
        <pt x="205" y="37" on="1"/>
        <pt x="205" y="27" on="0"/>
        <pt x="230" y="17" on="0"/>
        <pt x="261" y="17" on="0"/>
        <pt x="274" y="16" on="1"/>
        <pt x="274" y="0" on="1"/>
        <pt x="229" y="4" on="0"/>
        <pt x="163" y="4" on="1"/>
        <pt x="100" y="4" on="0"/>
        <pt x="61" y="0" on="1"/>
        <pt x="61" y="16" on="1"/>
        <pt x="79" y="16" on="0"/>
        <pt x="125" y="28" on="0"/>
        <pt x="125" y="37" on="1"/>
        <pt x="125" y="74" on="0"/>
        <pt x="128" y="310" on="0"/>
        <pt x="128" y="378" on="1"/>
        <pt x="128" y="521" on="0"/>
        <pt x="125" y="598" on="1"/>
        <pt x="118" y="605" on="0"/>
        <pt x="98" y="613" on="0"/>
        <pt x="83" y="615" on="0"/>
        <pt x="61" y="618" on="1"/>
      </contour>
    </TTGlyph>
    <TTGlyph name="hbar" xMin="61" yMin="0" xMax="543" yMax="657">
      <component glyphName="h" x="0" y="0" flags="0x1004"/>
    </TTGlyph>
    <TTGlyph name="hcircumflex" xMin="61" yMin="0" xMax="543" yMax="657">
      <component glyphName="h" x="0" y="0" flags="0x1004"/>
    </TTGlyph>
    <TTGlyph name="hungarumlaut" xMin="106" yMin="431" xMax="381" yMax="638">
      <contour>
        <pt x="106" y="444" on="1"/>
        <pt x="216" y="638" on="1"/>
        <pt x="262" y="604" on="1"/>
        <pt x="123" y="431" on="1"/>
      </contour>
      <contour>
        <pt x="225" y="444" on="1"/>
        <pt x="335" y="638" on="1"/>
        <pt x="381" y="604" on="1"/>
        <pt x="242" y="431" on="1"/>
      </contour>
    </TTGlyph>
    <TTGlyph name="hyphen" xMin="74" yMin="264" xMax="417" yMax="333">
      <contour>
        <pt x="82" y="333" on="1"/>
        <pt x="417" y="333" on="1"/>
        <pt x="412" y="264" on="1"/>
        <pt x="74" y="266" on="1"/>
      </contour>
    </TTGlyph>
    <TTGlyph name="i" xMin="71" yMin="0" xMax="284" yMax="641">
      <contour>
        <pt x="170" y="641" on="1"/>
        <pt x="193" y="641" on="0"/>
        <pt x="231" y="608" on="0"/>
        <pt x="231" y="586" on="1"/>
        <pt x="231" y="559" on="0"/>
        <pt x="196" y="524" on="0"/>
        <pt x="170" y="524" on="1"/>
        <pt x="151" y="524" on="0"/>
        <pt x="115" y="556" on="0"/>
        <pt x="115" y="580" on="1"/>
        <pt x="115" y="605" on="0"/>
        <pt x="150" y="641" on="0"/>
      </contour>
      <contour>
        <pt x="216" y="422" on="1"/>
        <pt x="214" y="249" on="0"/>
        <pt x="214" y="37" on="1"/>
        <pt x="218" y="17" on="0"/>
        <pt x="284" y="16" on="1"/>
        <pt x="284" y="0" on="1"/>
        <pt x="243" y="3" on="0"/>
        <pt x="175" y="3" on="1"/>
        <pt x="110" y="3" on="0"/>
        <pt x="71" y="0" on="1"/>
        <pt x="71" y="16" on="1"/>
        <pt x="131" y="18" on="0"/>
        <pt x="134" y="37" on="1"/>
        <pt x="134" y="373" on="1"/>
        <pt x="103" y="383" on="0"/>
        <pt x="71" y="383" on="1"/>
        <pt x="71" y="399" on="1"/>
        <pt x="161" y="404" on="0"/>
      </contour>
    </TTGlyph>
    <TTGlyph name="iacute" xMin="39" yMin="0" xMax="253" yMax="620">
      <component glyphName="dotlessi" x="0" y="0" flags="0x1004"/>
      <component glyphName="acute" x="-79" y="0" flags="0x1004"/>
    </TTGlyph>
    <TTGlyph name="ibreve" xMin="40" yMin="0" xMax="253" yMax="422">
      <component glyphName="dotlessi" x="0" y="0" flags="0x1004"/>
    </TTGlyph>
    <TTGlyph name="icircumflex" xMin="0" yMin="0" xMax="261" yMax="604">
      <component glyphName="asciicircum" x="-72" y="0" flags="0x1004"/>
      <component glyphName="dotlessi" x="0" y="0" flags="0x1004"/>
    </TTGlyph>
    <TTGlyph name="idieresis" xMin="20" yMin="0" xMax="253" yMax="559">
      <component glyphName="dieresis" x="-78" y="0" flags="0x1004"/>
      <component glyphName="dotlessi" x="0" y="0" flags="0x1004"/>
    </TTGlyph>
    <TTGlyph name="igrave" xMin="27" yMin="0" xMax="253" yMax="621">
      <component glyphName="grave" x="-74" y="0" flags="0x1004"/>
      <component glyphName="dotlessi" x="0" y="0" flags="0x1004"/>
    </TTGlyph>
    <TTGlyph name="ij" xMin="71" yMin="-209" xMax="460" yMax="641">
      <component glyphName="i" x="0" y="0" flags="0x1004"/>
      <component glyphName="j" x="216" y="0" flags="0x1004"/>
    </TTGlyph>
    <TTGlyph name="imacron" xMin="40" yMin="0" xMax="253" yMax="422">
      <component glyphName="dotlessi" x="0" y="0" flags="0x1004"/>
    </TTGlyph>
    <TTGlyph name="infinity" xMin="5" yMin="93" xMax="507" yMax="361">
      <contour>
        <pt x="371" y="348" on="1"/>
        <pt x="282" y="348" on="0"/>
        <pt x="282" y="248" on="1"/>
        <pt x="282" y="195" on="0"/>
        <pt x="335" y="106" on="0"/>
        <pt x="369" y="106" on="1"/>
        <pt x="404" y="106" on="0"/>
        <pt x="439" y="169" on="0"/>
        <pt x="439" y="221" on="1"/>
        <pt x="439" y="289" on="0"/>
        <pt x="407" y="348" on="0"/>
      </contour>
      <contour>
        <pt x="5" y="221" on="1"/>
        <pt x="5" y="284" on="0"/>
        <pt x="89" y="361" on="0"/>
        <pt x="146" y="361" on="1"/>
        <pt x="177" y="361" on="0"/>
        <pt x="242" y="313" on="0"/>
        <pt x="257" y="281" on="1"/>
        <pt x="273" y="317" on="0"/>
        <pt x="336" y="361" on="0"/>
        <pt x="371" y="361" on="1"/>
        <pt x="424" y="361" on="0"/>
        <pt x="507" y="290" on="0"/>
        <pt x="507" y="221" on="1"/>
        <pt x="507" y="168" on="0"/>
        <pt x="423" y="93" on="0"/>
        <pt x="369" y="93" on="1"/>
        <pt x="338" y="93" on="0"/>
        <pt x="274" y="141" on="0"/>
        <pt x="257" y="173" on="1"/>
        <pt x="246" y="141" on="0"/>
        <pt x="178" y="93" on="0"/>
        <pt x="144" y="93" on="1"/>
        <pt x="91" y="93" on="0"/>
        <pt x="5" y="167" on="0"/>
      </contour>
      <contour>
        <pt x="146" y="348" on="1"/>
        <pt x="73" y="348" on="0"/>
        <pt x="74" y="221" on="1"/>
        <pt x="74" y="168" on="0"/>
        <pt x="111" y="106" on="0"/>
        <pt x="144" y="106" on="1"/>
        <pt x="228" y="106" on="0"/>
        <pt x="228" y="198" on="1"/>
        <pt x="228" y="266" on="0"/>
        <pt x="183" y="348" on="0"/>
      </contour>
    </TTGlyph>
    <TTGlyph name="iogonek" xMin="36" yMin="-227" xMax="284" yMax="641">
      <contour>
        <pt x="36" y="-134" on="1"/>
        <pt x="36" y="-96" on="0"/>
        <pt x="95" y="-33" on="0"/>
        <pt x="123" y="-22" on="1"/>
        <pt x="174" y="-3" on="0"/>
        <pt x="181" y="0" on="1"/>
        <pt x="210" y="7" on="0"/>
        <pt x="231" y="7" on="1"/>
        <pt x="244" y="7" on="0"/>
        <pt x="246" y="4" on="1"/>
        <pt x="246" y="4" on="0"/>
        <pt x="231" y="-2" on="1"/>
        <pt x="216" y="-8" on="0"/>
        <pt x="185" y="-24" on="0"/>
        <pt x="173" y="-32" on="1"/>
        <pt x="115" y="-70" on="0"/>
        <pt x="115" y="-123" on="1"/>
        <pt x="115" y="-166" on="0"/>
        <pt x="148" y="-203" on="0"/>
        <pt x="172" y="-203" on="1"/>
        <pt x="197" y="-203" on="0"/>
        <pt x="245" y="-154" on="0"/>
        <pt x="246" y="-132" on="1"/>
        <pt x="247" y="-133" on="0"/>
        <pt x="267" y="-142" on="0"/>
        <pt x="270" y="-145" on="1"/>
        <pt x="259" y="-176" on="0"/>
        <pt x="199" y="-227" on="0"/>
        <pt x="155" y="-227" on="1"/>
        <pt x="101" y="-227" on="0"/>
        <pt x="36" y="-175" on="0"/>
      </contour>
      <contour>
        <pt x="216" y="422" on="1"/>
        <pt x="214" y="249" on="0"/>
        <pt x="214" y="37" on="1"/>
        <pt x="218" y="17" on="0"/>
        <pt x="284" y="16" on="1"/>
        <pt x="284" y="0" on="1"/>
        <pt x="243" y="3" on="0"/>
        <pt x="175" y="3" on="1"/>
        <pt x="110" y="3" on="0"/>
        <pt x="71" y="0" on="1"/>
        <pt x="71" y="16" on="1"/>
        <pt x="131" y="18" on="0"/>
        <pt x="134" y="37" on="1"/>
        <pt x="134" y="373" on="1"/>
        <pt x="103" y="383" on="0"/>
        <pt x="71" y="383" on="1"/>
        <pt x="71" y="399" on="1"/>
        <pt x="161" y="404" on="0"/>
      </contour>
      <contour>
        <pt x="170" y="641" on="1"/>
        <pt x="193" y="641" on="0"/>
        <pt x="231" y="608" on="0"/>
        <pt x="231" y="586" on="1"/>
        <pt x="231" y="559" on="0"/>
        <pt x="196" y="524" on="0"/>
        <pt x="170" y="524" on="1"/>
        <pt x="151" y="524" on="0"/>
        <pt x="115" y="556" on="0"/>
        <pt x="115" y="580" on="1"/>
        <pt x="115" y="605" on="0"/>
        <pt x="150" y="641" on="0"/>
      </contour>
    </TTGlyph>
    <TTGlyph name="itilde" xMin="6" yMin="0" xMax="253" yMax="568">
      <component glyphName="tilde" x="0" y="199" flags="0x1004"/>
      <component glyphName="dotlessi" x="0" y="0" flags="0x1004"/>
    </TTGlyph>
    <TTGlyph name="j" xMin="-32" yMin="-209" xMax="244" yMax="641">
      <contour>
        <pt x="223" y="422" on="1"/>
        <pt x="221" y="249" on="0"/>
        <pt x="221" y="-14" on="1"/>
        <pt x="221" y="-98" on="0"/>
        <pt x="118" y="-209" on="0"/>
        <pt x="68" y="-209" on="1"/>
        <pt x="35" y="-209" on="0"/>
        <pt x="-32" y="-169" on="0"/>
        <pt x="-32" y="-138" on="1"/>
        <pt x="-32" y="-99" on="0"/>
        <pt x="1" y="-62" on="0"/>
        <pt x="25" y="-62" on="1"/>
        <pt x="43" y="-62" on="0"/>
        <pt x="68" y="-90" on="0"/>
        <pt x="68" y="-108" on="1"/>
        <pt x="68" y="-147" on="0"/>
        <pt x="36" y="-155" on="1"/>
        <pt x="39" y="-166" on="0"/>
        <pt x="66" y="-179" on="0"/>
        <pt x="79" y="-179" on="1"/>
        <pt x="119" y="-179" on="0"/>
        <pt x="134" y="-151" on="1"/>
        <pt x="141" y="-138" on="0"/>
        <pt x="141" y="-14" on="1"/>
        <pt x="141" y="373" on="1"/>
        <pt x="131" y="377" on="0"/>
        <pt x="113" y="380" on="0"/>
        <pt x="87" y="382" on="0"/>
        <pt x="78" y="383" on="1"/>
        <pt x="78" y="399" on="1"/>
        <pt x="127" y="399" on="0"/>
      </contour>
      <contour>
        <pt x="193" y="641" on="1"/>
        <pt x="212" y="641" on="0"/>
        <pt x="244" y="604" on="0"/>
        <pt x="244" y="586" on="1"/>
        <pt x="244" y="567" on="0"/>
        <pt x="210" y="522" on="0"/>
        <pt x="190" y="522" on="1"/>
        <pt x="160" y="522" on="0"/>
        <pt x="125" y="554" on="0"/>
        <pt x="125" y="586" on="1"/>
        <pt x="125" y="611" on="0"/>
        <pt x="169" y="641" on="0"/>
      </contour>
    </TTGlyph>
    <TTGlyph name="jcircumflex" xMin="-62" yMin="-209" xMax="276" yMax="609">
      <contour>
        <pt x="193" y="422" on="1"/>
        <pt x="191" y="249" on="0"/>
        <pt x="190" y="-14" on="1"/>
        <pt x="190" y="-98" on="0"/>
        <pt x="87" y="-209" on="0"/>
        <pt x="37" y="-209" on="1"/>
        <pt x="4" y="-209" on="0"/>
        <pt x="-62" y="-169" on="0"/>
        <pt x="-62" y="-138" on="1"/>
        <pt x="-62" y="-99" on="0"/>
        <pt x="-30" y="-62" on="0"/>
        <pt x="-6" y="-62" on="1"/>
        <pt x="12" y="-62" on="0"/>
        <pt x="37" y="-90" on="0"/>
        <pt x="37" y="-108" on="1"/>
        <pt x="37" y="-147" on="0"/>
        <pt x="5" y="-155" on="1"/>
        <pt x="8" y="-166" on="0"/>
        <pt x="35" y="-179" on="0"/>
        <pt x="48" y="-179" on="1"/>
        <pt x="88" y="-179" on="0"/>
        <pt x="103" y="-151" on="1"/>
        <pt x="110" y="-138" on="0"/>
        <pt x="111" y="-14" on="1"/>
        <pt x="111" y="373" on="1"/>
        <pt x="101" y="377" on="0"/>
        <pt x="82" y="380" on="0"/>
        <pt x="56" y="382" on="0"/>
        <pt x="47" y="383" on="1"/>
        <pt x="47" y="399" on="1"/>
        <pt x="97" y="399" on="0"/>
      </contour>
      <contour>
        <pt x="15" y="458" on="1"/>
        <pt x="154" y="609" on="1"/>
        <pt x="276" y="461" on="1"/>
        <pt x="263" y="450" on="1"/>
        <pt x="151" y="553" on="1"/>
        <pt x="30" y="450" on="1"/>
      </contour>
    </TTGlyph>
    <TTGlyph name="k" xMin="31" yMin="-4" xMax="503" yMax="668">
      <contour>
        <pt x="199" y="197" on="1"/>
        <pt x="184" y="180" on="1"/>
        <pt x="182" y="148" on="0"/>
        <pt x="182" y="102" on="1"/>
        <pt x="182" y="73" on="0"/>
        <pt x="183" y="52" on="1"/>
        <pt x="184" y="40" on="0"/>
        <pt x="193" y="32" on="1"/>
        <pt x="201" y="24" on="0"/>
        <pt x="220" y="18" on="0"/>
        <pt x="254" y="16" on="1"/>
        <pt x="254" y="0" on="1"/>
        <pt x="216" y="3" on="0"/>
        <pt x="150" y="3" on="1"/>
        <pt x="79" y="3" on="0"/>
        <pt x="31" y="0" on="1"/>
        <pt x="31" y="16" on="1"/>
        <pt x="104" y="20" on="0"/>
        <pt x="104" y="37" on="1"/>
        <pt x="107" y="130" on="0"/>
        <pt x="108" y="340" on="1"/>
        <pt x="108" y="511" on="0"/>
        <pt x="104" y="608" on="1"/>
        <pt x="92" y="626" on="0"/>
        <pt x="31" y="629" on="1"/>
        <pt x="31" y="645" on="1"/>
        <pt x="33" y="645" on="0"/>
        <pt x="36" y="645" on="1"/>
        <pt x="90" y="645" on="0"/>
        <pt x="186" y="668" on="1"/>
        <pt x="183" y="206" on="1"/>
        <pt x="284" y="321" on="1"/>
        <pt x="298" y="338" on="0"/>
        <pt x="298" y="353" on="1"/>
        <pt x="298" y="370" on="0"/>
        <pt x="275" y="374" on="1"/>
        <pt x="275" y="377" on="0"/>
        <pt x="276" y="392" on="0"/>
        <pt x="276" y="395" on="1"/>
        <pt x="444" y="395" on="1"/>
        <pt x="444" y="376" on="1"/>
        <pt x="361" y="368" on="0"/>
        <pt x="328" y="336" on="1"/>
        <pt x="248" y="238" on="1"/>
        <pt x="281" y="204" on="0"/>
        <pt x="351" y="123" on="0"/>
        <pt x="390" y="83" on="1"/>
        <pt x="430" y="43" on="0"/>
        <pt x="477" y="12" on="0"/>
        <pt x="498" y="12" on="1"/>
        <pt x="500" y="12" on="0"/>
        <pt x="503" y="12" on="1"/>
        <pt x="503" y="-2" on="1"/>
        <pt x="365" y="-4" on="1"/>
        <pt x="353" y="19" on="0"/>
        <pt x="290" y="96" on="0"/>
        <pt x="228" y="164" on="0"/>
      </contour>
    </TTGlyph>
    <TTGlyph name="kcommaaccent" xMin="31" yMin="-260" xMax="503" yMax="668">
      <component glyphName="comma" x="96" y="-152" flags="0x1004"/>
      <component glyphName="k" x="0" y="0" flags="0x1004"/>
    </TTGlyph>
    <TTGlyph name="kgreenlandic" xMin="49" yMin="-4" xMax="521" yMax="410">
      <contour>
        <pt x="217" y="197" on="1"/>
        <pt x="203" y="180" on="1"/>
        <pt x="203" y="180" on="0"/>
        <pt x="203" y="40" on="1"/>
        <pt x="203" y="31" on="0"/>
        <pt x="253" y="17" on="0"/>
        <pt x="272" y="16" on="1"/>
        <pt x="272" y="0" on="1"/>
        <pt x="234" y="3" on="0"/>
        <pt x="168" y="3" on="1"/>
        <pt x="97" y="3" on="0"/>
        <pt x="49" y="0" on="1"/>
        <pt x="49" y="16" on="1"/>
        <pt x="66" y="17" on="0"/>
        <pt x="119" y="33" on="0"/>
        <pt x="121" y="40" on="1"/>
        <pt x="127" y="60" on="0"/>
        <pt x="127" y="187" on="1"/>
        <pt x="127" y="197" on="0"/>
        <pt x="126" y="207" on="1"/>
        <pt x="126" y="265" on="0"/>
        <pt x="123" y="362" on="1"/>
        <pt x="111" y="380" on="0"/>
        <pt x="49" y="383" on="1"/>
        <pt x="49" y="399" on="1"/>
        <pt x="162" y="399" on="0"/>
        <pt x="205" y="410" on="1"/>
        <pt x="202" y="206" on="1"/>
        <pt x="302" y="321" on="1"/>
        <pt x="316" y="338" on="0"/>
        <pt x="316" y="353" on="1"/>
        <pt x="316" y="370" on="0"/>
        <pt x="294" y="374" on="1"/>
        <pt x="294" y="382" on="1"/>
        <pt x="294" y="390" on="0"/>
        <pt x="295" y="395" on="1"/>
        <pt x="463" y="395" on="1"/>
        <pt x="463" y="376" on="1"/>
        <pt x="380" y="368" on="0"/>
        <pt x="346" y="336" on="1"/>
        <pt x="266" y="238" on="1"/>
        <pt x="304" y="199" on="0"/>
        <pt x="377" y="117" on="0"/>
        <pt x="409" y="83" on="1"/>
        <pt x="476" y="12" on="0"/>
        <pt x="521" y="12" on="1"/>
        <pt x="521" y="-2" on="1"/>
        <pt x="383" y="-4" on="1"/>
        <pt x="371" y="19" on="0"/>
        <pt x="308" y="96" on="0"/>
        <pt x="246" y="164" on="0"/>
      </contour>
    </TTGlyph>
    <TTGlyph name="l" xMin="41" yMin="0" xMax="262" yMax="657">
      <contour>
        <pt x="195" y="657" on="1"/>
        <pt x="191" y="561" on="0"/>
        <pt x="190" y="441" on="1"/>
        <pt x="190" y="393" on="0"/>
        <pt x="193" y="130" on="0"/>
        <pt x="193" y="37" on="1"/>
        <pt x="195" y="27" on="0"/>
        <pt x="245" y="17" on="0"/>
        <pt x="262" y="16" on="1"/>
        <pt x="262" y="0" on="1"/>
        <pt x="218" y="5" on="0"/>
        <pt x="157" y="5" on="1"/>
        <pt x="86" y="5" on="0"/>
        <pt x="41" y="0" on="1"/>
        <pt x="41" y="16" on="1"/>
        <pt x="107" y="19" on="0"/>
        <pt x="109" y="37" on="1"/>
        <pt x="112" y="132" on="0"/>
        <pt x="112" y="300" on="1"/>
        <pt x="112" y="479" on="0"/>
        <pt x="109" y="598" on="1"/>
        <pt x="84" y="618" on="0"/>
        <pt x="41" y="618" on="1"/>
        <pt x="41" y="635" on="1"/>
        <pt x="94" y="638" on="0"/>
      </contour>
    </TTGlyph>
    <TTGlyph name="lacute" xMin="41" yMin="0" xMax="262" yMax="657">
      <component glyphName="l" x="0" y="0" flags="0x1004"/>
    </TTGlyph>
    <TTGlyph name="lcaron" xMin="-8" yMin="0" xMax="262" yMax="846">
      <component glyphName="caron" x="-81" y="237" flags="0x1004"/>
      <component glyphName="l" x="0" y="0" flags="0x1004"/>
    </TTGlyph>
    <TTGlyph name="lcommaaccent" xMin="41" yMin="-255" xMax="262" yMax="657">
      <component glyphName="comma" x="-7" y="-147" flags="0x1004"/>
      <component glyphName="l" x="0" y="0" flags="0x1004"/>
    </TTGlyph>
    <TTGlyph name="ldot" xMin="41" yMin="0" xMax="262" yMax="657">
      <component glyphName="l" x="0" y="0" flags="0x1004"/>
    </TTGlyph>
    <TTGlyph name="less" xMin="62" yMin="-3" xMax="397" yMax="446">
      <contour>
        <pt x="397" y="446" on="1"/>
        <pt x="397" y="425" on="1"/>
        <pt x="174" y="236" on="1"/>
        <pt x="174" y="218" on="1"/>
        <pt x="386" y="25" on="1"/>
        <pt x="386" y="-3" on="1"/>
        <pt x="62" y="213" on="1"/>
        <pt x="62" y="246" on="1"/>
      </contour>
    </TTGlyph>
    <TTGlyph name="lslash" xMin="41" yMin="0" xMax="262" yMax="657">
      <component glyphName="l" x="0" y="0" flags="0x1004"/>
    </TTGlyph>
    <TTGlyph name="m" xMin="61" yMin="0" xMax="782" yMax="419">
      <contour>
        <pt x="327" y="406" on="1"/>
        <pt x="430" y="406" on="0"/>
        <pt x="453" y="309" on="1"/>
        <pt x="473" y="341" on="0"/>
        <pt x="502" y="376" on="0"/>
        <pt x="552" y="406" on="0"/>
        <pt x="583" y="406" on="1"/>
        <pt x="715" y="406" on="0"/>
        <pt x="715" y="247" on="1"/>
        <pt x="715" y="42" on="1"/>
        <pt x="715" y="29" on="0"/>
        <pt x="739" y="18" on="0"/>
        <pt x="778" y="17" on="0"/>
        <pt x="782" y="16" on="1"/>
        <pt x="782" y="0" on="1"/>
        <pt x="753" y="3" on="0"/>
        <pt x="689" y="3" on="1"/>
        <pt x="620" y="3" on="0"/>
        <pt x="567" y="0" on="1"/>
        <pt x="567" y="16" on="1"/>
        <pt x="633" y="22" on="0"/>
        <pt x="633" y="37" on="1"/>
        <pt x="634" y="37" on="0"/>
        <pt x="634" y="265" on="1"/>
        <pt x="634" y="320" on="0"/>
        <pt x="604" y="368" on="0"/>
        <pt x="565" y="368" on="1"/>
        <pt x="537" y="368" on="0"/>
        <pt x="485" y="330" on="0"/>
        <pt x="473" y="311" on="1"/>
        <pt x="461" y="292" on="1"/>
        <pt x="461" y="37" on="1"/>
        <pt x="461" y="29" on="0"/>
        <pt x="509" y="17" on="0"/>
        <pt x="530" y="16" on="1"/>
        <pt x="530" y="0" on="1"/>
        <pt x="488" y="3" on="0"/>
        <pt x="421" y="3" on="1"/>
        <pt x="348" y="3" on="0"/>
        <pt x="305" y="0" on="1"/>
        <pt x="305" y="16" on="1"/>
        <pt x="371" y="19" on="0"/>
        <pt x="371" y="37" on="1"/>
        <pt x="371" y="266" on="1"/>
        <pt x="371" y="322" on="0"/>
        <pt x="347" y="368" on="0"/>
        <pt x="309" y="368" on="1"/>
        <pt x="284" y="368" on="0"/>
        <pt x="219" y="311" on="0"/>
        <pt x="205" y="271" on="1"/>
        <pt x="205" y="37" on="1"/>
        <pt x="205" y="19" on="0"/>
        <pt x="274" y="16" on="1"/>
        <pt x="274" y="0" on="1"/>
        <pt x="218" y="3" on="0"/>
        <pt x="154" y="3" on="1"/>
        <pt x="97" y="3" on="0"/>
        <pt x="61" y="0" on="1"/>
        <pt x="61" y="16" on="1"/>
        <pt x="77" y="15" on="0"/>
        <pt x="125" y="22" on="0"/>
        <pt x="125" y="37" on="1"/>
        <pt x="128" y="170" on="0"/>
        <pt x="128" y="245" on="1"/>
        <pt x="128" y="328" on="0"/>
        <pt x="125" y="373" on="1"/>
        <pt x="124" y="384" on="0"/>
        <pt x="88" y="384" on="1"/>
        <pt x="75" y="384" on="0"/>
        <pt x="61" y="383" on="1"/>
        <pt x="61" y="399" on="1"/>
        <pt x="72" y="398" on="0"/>
        <pt x="84" y="398" on="1"/>
        <pt x="146" y="398" on="0"/>
        <pt x="196" y="419" on="1"/>
        <pt x="209" y="312" on="1"/>
        <pt x="218" y="325" on="0"/>
        <pt x="234" y="351" on="0"/>
        <pt x="256" y="376" on="0"/>
        <pt x="279" y="394" on="0"/>
        <pt x="310" y="406" on="0"/>
      </contour>
    </TTGlyph>
    <TTGlyph name="minus" xMin="46" yMin="206" xMax="475" yMax="267">
      <contour>
        <pt x="46" y="267" on="1"/>
        <pt x="475" y="267" on="1"/>
        <pt x="475" y="206" on="1"/>
        <pt x="46" y="206" on="1"/>
      </contour>
    </TTGlyph>
    <TTGlyph name="multiply" xMin="87" yMin="63" xMax="434" yMax="410">
      <contour>
        <pt x="390" y="63" on="1"/>
        <pt x="260" y="194" on="1"/>
        <pt x="131" y="63" on="1"/>
        <pt x="87" y="106" on="1"/>
        <pt x="217" y="237" on="1"/>
        <pt x="87" y="367" on="1"/>
        <pt x="131" y="410" on="1"/>
        <pt x="260" y="280" on="1"/>
        <pt x="390" y="410" on="1"/>
        <pt x="434" y="367" on="1"/>
        <pt x="304" y="237" on="1"/>
        <pt x="434" y="106" on="1"/>
      </contour>
    </TTGlyph>
    <TTGlyph name="n" xMin="66" yMin="0" xMax="555" yMax="408">
      <contour>
        <pt x="66" y="389" on="1"/>
        <pt x="75" y="388" on="0"/>
        <pt x="85" y="388" on="1"/>
        <pt x="141" y="388" on="0"/>
        <pt x="203" y="408" on="1"/>
        <pt x="211" y="309" on="1"/>
        <pt x="274" y="405" on="0"/>
        <pt x="346" y="406" on="1"/>
        <pt x="380" y="406" on="0"/>
        <pt x="433" y="384" on="0"/>
        <pt x="463" y="351" on="0"/>
        <pt x="482" y="307" on="0"/>
        <pt x="489" y="268" on="0"/>
        <pt x="489" y="248" on="1"/>
        <pt x="489" y="43" on="1"/>
        <pt x="489" y="33" on="0"/>
        <pt x="537" y="16" on="0"/>
        <pt x="555" y="16" on="1"/>
        <pt x="555" y="0" on="1"/>
        <pt x="454" y="4" on="0"/>
        <pt x="430" y="4" on="1"/>
        <pt x="379" y="4" on="0"/>
        <pt x="340" y="0" on="1"/>
        <pt x="340" y="16" on="1"/>
        <pt x="360" y="17" on="0"/>
        <pt x="406" y="33" on="0"/>
        <pt x="406" y="42" on="1"/>
        <pt x="407" y="42" on="0"/>
        <pt x="407" y="245" on="1"/>
        <pt x="407" y="300" on="0"/>
        <pt x="368" y="368" on="0"/>
        <pt x="329" y="368" on="1"/>
        <pt x="297" y="368" on="0"/>
        <pt x="223" y="306" on="0"/>
        <pt x="209" y="261" on="1"/>
        <pt x="209" y="38" on="1"/>
        <pt x="209" y="22" on="0"/>
        <pt x="279" y="16" on="1"/>
        <pt x="279" y="0" on="1"/>
        <pt x="238" y="3" on="0"/>
        <pt x="170" y="3" on="1"/>
        <pt x="105" y="3" on="0"/>
        <pt x="66" y="0" on="1"/>
        <pt x="66" y="16" on="1"/>
        <pt x="86" y="16" on="0"/>
        <pt x="129" y="32" on="0"/>
        <pt x="129" y="42" on="1"/>
        <pt x="131" y="103" on="0"/>
        <pt x="131" y="203" on="1"/>
        <pt x="131" y="298" on="0"/>
        <pt x="129" y="359" on="1"/>
        <pt x="110" y="369" on="0"/>
        <pt x="66" y="373" on="1"/>
      </contour>
    </TTGlyph>
    <TTGlyph name="nacute" xMin="66" yMin="0" xMax="555" yMax="619">
      <component glyphName="acute" x="74" y="-1" flags="0x1004"/>
      <component glyphName="n" x="0" y="0" flags="0x1004"/>
    </TTGlyph>
    <TTGlyph name="napostrophe" xMin="66" yMin="0" xMax="555" yMax="408">
      <component glyphName="n" x="0" y="0" flags="0x1004"/>
    </TTGlyph>
    <TTGlyph name="ncaron" xMin="66" yMin="0" xMax="555" yMax="609">
      <component glyphName="caron" x="106" y="0" flags="0x1004"/>
      <component glyphName="n" x="0" y="0" flags="0x1004"/>
    </TTGlyph>
    <TTGlyph name="ncommaaccent" xMin="66" yMin="-260" xMax="555" yMax="408">
      <component glyphName="comma" x="199" y="-152" flags="0x1004"/>
      <component glyphName="n" x="0" y="0" flags="0x1004"/>
    </TTGlyph>
    <TTGlyph name="nine" xMin="-41" yMin="-238" xMax="470" yMax="426">
      <contour>
        <pt x="366" y="193" on="1"/>
        <pt x="366" y="230" on="0"/>
        <pt x="364" y="271" on="0"/>
        <pt x="350" y="338" on="0"/>
        <pt x="326" y="375" on="0"/>
        <pt x="275" y="403" on="0"/>
        <pt x="240" y="403" on="1"/>
        <pt x="182" y="403" on="0"/>
        <pt x="127" y="313" on="0"/>
        <pt x="127" y="209" on="1"/>
        <pt x="127" y="132" on="0"/>
        <pt x="181" y="49" on="0"/>
        <pt x="229" y="49" on="1"/>
        <pt x="283" y="49" on="0"/>
        <pt x="366" y="127" on="0"/>
      </contour>
      <contour>
        <pt x="223" y="28" on="1"/>
        <pt x="150" y="28" on="0"/>
        <pt x="31" y="126" on="0"/>
        <pt x="31" y="210" on="1"/>
        <pt x="31" y="308" on="0"/>
        <pt x="146" y="426" on="0"/>
        <pt x="244" y="426" on="1"/>
        <pt x="282" y="426" on="0"/>
        <pt x="356" y="400" on="0"/>
        <pt x="427" y="344" on="0"/>
        <pt x="470" y="240" on="0"/>
        <pt x="470" y="169" on="1"/>
        <pt x="470" y="-4" on="0"/>
        <pt x="286" y="-238" on="0"/>
        <pt x="130" y="-238" on="1"/>
        <pt x="84" y="-238" on="0"/>
        <pt x="-15" y="-169" on="0"/>
        <pt x="-41" y="-127" on="1"/>
        <pt x="-17" y="-100" on="1"/>
        <pt x="7" y="-141" on="0"/>
        <pt x="103" y="-205" on="0"/>
        <pt x="152" y="-205" on="1"/>
        <pt x="205" y="-205" on="0"/>
        <pt x="285" y="-165" on="0"/>
        <pt x="331" y="-109" on="0"/>
        <pt x="360" y="-17" on="0"/>
        <pt x="373" y="58" on="0"/>
        <pt x="377" y="111" on="1"/>
        <pt x="355" y="79" on="0"/>
        <pt x="259" y="28" on="0"/>
      </contour>
    </TTGlyph>
    <TTGlyph name="ntilde" xMin="66" yMin="0" xMax="555" yMax="549">
      <component glyphName="n" x="0" y="0" flags="0x1004"/>
      <component glyphName="tilde" x="170" y="180" flags="0x1004"/>
    </TTGlyph>
    <TTGlyph name="numbersign" xMin="89" yMin="323" xMax="400" yMax="635">
      <contour>
        <pt x="286" y="538" on="1"/>
        <pt x="204" y="532" on="1"/>
        <pt x="204" y="420" on="1"/>
        <pt x="286" y="425" on="1"/>
      </contour>
      <contour>
        <pt x="89" y="544" on="1"/>
        <pt x="163" y="550" on="1"/>
        <pt x="163" y="623" on="1"/>
        <pt x="204" y="626" on="1"/>
        <pt x="204" y="553" on="1"/>
        <pt x="286" y="558" on="1"/>
        <pt x="286" y="632" on="1"/>
        <pt x="327" y="635" on="1"/>
        <pt x="327" y="561" on="1"/>
        <pt x="400" y="567" on="1"/>
        <pt x="400" y="547" on="1"/>
        <pt x="327" y="541" on="1"/>
        <pt x="327" y="428" on="1"/>
        <pt x="400" y="434" on="1"/>
        <pt x="400" y="414" on="1"/>
        <pt x="327" y="408" on="1"/>
        <pt x="327" y="335" on="1"/>
        <pt x="286" y="332" on="1"/>
        <pt x="286" y="404" on="1"/>
        <pt x="204" y="399" on="1"/>
        <pt x="204" y="326" on="1"/>
        <pt x="163" y="323" on="1"/>
        <pt x="163" y="396" on="1"/>
        <pt x="89" y="390" on="1"/>
        <pt x="89" y="411" on="1"/>
        <pt x="163" y="417" on="1"/>
        <pt x="163" y="529" on="1"/>
        <pt x="89" y="523" on="1"/>
      </contour>
    </TTGlyph>
    <TTGlyph name="o" xMin="51" yMin="-17" xMax="466" yMax="417">
      <contour>
        <pt x="264" y="8" on="1"/>
        <pt x="318" y="8" on="0"/>
        <pt x="378" y="108" on="0"/>
        <pt x="378" y="202" on="1"/>
        <pt x="378" y="280" on="0"/>
        <pt x="314" y="397" on="0"/>
        <pt x="262" y="397" on="1"/>
        <pt x="227" y="397" on="0"/>
        <pt x="177" y="359" on="0"/>
        <pt x="154" y="294" on="0"/>
        <pt x="143" y="230" on="0"/>
        <pt x="143" y="195" on="1"/>
        <pt x="143" y="112" on="0"/>
        <pt x="207" y="8" on="0"/>
      </contour>
      <contour>
        <pt x="253" y="417" on="1"/>
        <pt x="342" y="417" on="0"/>
        <pt x="466" y="293" on="0"/>
        <pt x="466" y="213" on="1"/>
        <pt x="466" y="116" on="0"/>
        <pt x="362" y="-17" on="0"/>
        <pt x="261" y="-17" on="1"/>
        <pt x="51" y="-17" on="0"/>
        <pt x="51" y="212" on="1"/>
        <pt x="51" y="301" on="0"/>
        <pt x="175" y="417" on="0"/>
      </contour>
    </TTGlyph>
    <TTGlyph name="oacute" xMin="51" yMin="-17" xMax="466" yMax="620">
      <component glyphName="o" x="0" y="0" flags="0x1004"/>
      <component glyphName="acute" x="56" y="0" flags="0x1004"/>
    </TTGlyph>
    <TTGlyph name="obreve" xMin="51" yMin="-17" xMax="466" yMax="417">
      <component glyphName="o" x="0" y="0" flags="0x1004"/>
    </TTGlyph>
    <TTGlyph name="ocircumflex" xMin="51" yMin="-17" xMax="466" yMax="604">
      <component glyphName="o" x="0" y="0" flags="0x1004"/>
      <component glyphName="asciicircum" x="72" y="0" flags="0x1004"/>
    </TTGlyph>
    <TTGlyph name="odieresis" xMin="51" yMin="-17" xMax="466" yMax="559">
      <component glyphName="o" x="0" y="0" flags="0x1004"/>
      <component glyphName="dieresis" x="69" y="0" flags="0x1004"/>
    </TTGlyph>
    <TTGlyph name="oe" xMin="41" yMin="-17" xMax="717" yMax="417">
      <contour>
        <pt x="399" y="75" on="1"/>
        <pt x="377" y="47" on="0"/>
        <pt x="344" y="13" on="0"/>
        <pt x="285" y="-17" on="0"/>
        <pt x="251" y="-17" on="1"/>
        <pt x="41" y="-17" on="0"/>
        <pt x="41" y="212" on="1"/>
        <pt x="41" y="301" on="0"/>
        <pt x="165" y="417" on="0"/>
        <pt x="243" y="417" on="1"/>
        <pt x="320" y="417" on="0"/>
        <pt x="401" y="315" on="1"/>
        <pt x="475" y="406" on="0"/>
        <pt x="552" y="407" on="1"/>
        <pt x="606" y="407" on="0"/>
        <pt x="699" y="349" on="0"/>
        <pt x="713" y="284" on="1"/>
        <pt x="717" y="264" on="0"/>
        <pt x="717" y="244" on="1"/>
        <pt x="717" y="233" on="0"/>
        <pt x="716" y="218" on="1"/>
        <pt x="445" y="217" on="1"/>
        <pt x="445" y="195" on="1"/>
        <pt x="445" y="123" on="0"/>
        <pt x="499" y="7" on="0"/>
        <pt x="549" y="7" on="1"/>
        <pt x="607" y="7" on="0"/>
        <pt x="675" y="75" on="0"/>
        <pt x="688" y="112" on="1"/>
        <pt x="716" y="92" on="1"/>
        <pt x="701" y="54" on="0"/>
        <pt x="615" y="-17" on="0"/>
        <pt x="545" y="-17" on="1"/>
        <pt x="470" y="-17" on="0"/>
      </contour>
      <contour>
        <pt x="627" y="233" on="1"/>
        <pt x="628" y="250" on="0"/>
        <pt x="628" y="265" on="1"/>
        <pt x="628" y="296" on="0"/>
        <pt x="623" y="315" on="1"/>
        <pt x="615" y="347" on="0"/>
        <pt x="566" y="388" on="0"/>
        <pt x="530" y="388" on="1"/>
        <pt x="493" y="388" on="0"/>
        <pt x="451" y="304" on="0"/>
        <pt x="446" y="232" on="1"/>
      </contour>
      <contour>
        <pt x="368" y="202" on="1"/>
        <pt x="368" y="280" on="0"/>
        <pt x="304" y="397" on="0"/>
        <pt x="252" y="397" on="1"/>
        <pt x="217" y="397" on="0"/>
        <pt x="167" y="359" on="0"/>
        <pt x="143" y="294" on="0"/>
        <pt x="133" y="230" on="0"/>
        <pt x="133" y="195" on="1"/>
        <pt x="133" y="112" on="0"/>
        <pt x="197" y="8" on="0"/>
        <pt x="254" y="8" on="1"/>
        <pt x="308" y="8" on="0"/>
        <pt x="368" y="108" on="0"/>
      </contour>
    </TTGlyph>
    <TTGlyph name="ograve" xMin="51" yMin="-17" xMax="466" yMax="621">
      <component glyphName="o" x="0" y="0" flags="0x1004"/>
      <component glyphName="grave" x="61" y="0" flags="0x1004"/>
    </TTGlyph>
    <TTGlyph name="ohungarumlaut" xMin="51" yMin="-17" xMax="466" yMax="638">
      <component glyphName="hungarumlaut" x="38" y="0" flags="0x1004"/>
      <component glyphName="o" x="0" y="0" flags="0x1004"/>
    </TTGlyph>
    <TTGlyph name="omacron" xMin="51" yMin="-17" xMax="466" yMax="417">
      <component glyphName="o" x="0" y="0" flags="0x1004"/>
    </TTGlyph>
    <TTGlyph name="one" xMin="90" yMin="-2" xMax="476" yMax="428">
      <contour>
        <pt x="108" y="25" on="1"/>
        <pt x="108" y="25" on="0"/>
        <pt x="244" y="36" on="1"/>
        <pt x="244" y="369" on="1"/>
        <pt x="98" y="319" on="1"/>
        <pt x="90" y="356" on="1"/>
        <pt x="336" y="428" on="1"/>
        <pt x="336" y="36" on="1"/>
        <pt x="349" y="31" on="0"/>
        <pt x="463" y="27" on="0"/>
        <pt x="476" y="25" on="1"/>
        <pt x="476" y="1" on="1"/>
        <pt x="416" y="5" on="0"/>
        <pt x="315" y="5" on="1"/>
        <pt x="173" y="5" on="0"/>
        <pt x="111" y="-2" on="1"/>
      </contour>
    </TTGlyph>
    <TTGlyph name="otilde" xMin="51" yMin="-17" xMax="466" yMax="547">
      <component glyphName="o" x="0" y="0" flags="0x1004"/>
      <component glyphName="tilde" x="170" y="178" flags="0x1004"/>
    </TTGlyph>
    <TTGlyph name="p" xMin="31" yMin="-219" xMax="489" yMax="417">
      <contour>
        <pt x="197" y="292" on="1"/>
        <pt x="188" y="188" on="1"/>
        <pt x="189" y="67" on="1"/>
        <pt x="229" y="22" on="0"/>
        <pt x="297" y="22" on="1"/>
        <pt x="339" y="22" on="0"/>
        <pt x="383" y="113" on="0"/>
        <pt x="383" y="194" on="1"/>
        <pt x="383" y="276" on="0"/>
        <pt x="341" y="371" on="0"/>
        <pt x="303" y="371" on="1"/>
        <pt x="236" y="371" on="0"/>
      </contour>
      <contour>
        <pt x="31" y="398" on="1"/>
        <pt x="109" y="398" on="0"/>
        <pt x="181" y="417" on="1"/>
        <pt x="195" y="325" on="1"/>
        <pt x="222" y="368" on="0"/>
        <pt x="282" y="416" on="0"/>
        <pt x="327" y="416" on="1"/>
        <pt x="392" y="416" on="0"/>
        <pt x="489" y="293" on="0"/>
        <pt x="489" y="212" on="1"/>
        <pt x="489" y="124" on="0"/>
        <pt x="387" y="-6" on="0"/>
        <pt x="291" y="-6" on="1"/>
        <pt x="232" y="-6" on="0"/>
        <pt x="188" y="40" on="1"/>
        <pt x="189" y="-180" on="1"/>
        <pt x="196" y="-191" on="0"/>
        <pt x="254" y="-205" on="0"/>
        <pt x="278" y="-205" on="1"/>
        <pt x="276" y="-219" on="1"/>
        <pt x="226" y="-216" on="0"/>
        <pt x="72" y="-216" on="0"/>
        <pt x="33" y="-219" on="1"/>
        <pt x="33" y="-205" on="1"/>
        <pt x="103" y="-203" on="0"/>
        <pt x="103" y="-180" on="1"/>
        <pt x="107" y="-61" on="0"/>
        <pt x="108" y="140" on="1"/>
        <pt x="108" y="280" on="0"/>
        <pt x="105" y="362" on="1"/>
        <pt x="64" y="381" on="0"/>
        <pt x="31" y="383" on="1"/>
      </contour>
    </TTGlyph>
    <TTGlyph name="parenleft" xMin="50" yMin="-211" xMax="345" yMax="733">
      <contour>
        <pt x="318" y="733" on="1"/>
        <pt x="345" y="701" on="1"/>
        <pt x="333" y="689" on="0"/>
        <pt x="254" y="621" on="0"/>
        <pt x="199" y="560" on="0"/>
        <pt x="181" y="525" on="1"/>
        <pt x="155" y="476" on="0"/>
        <pt x="138" y="378" on="0"/>
        <pt x="138" y="290" on="1"/>
        <pt x="138" y="88" on="0"/>
        <pt x="170" y="8" on="1"/>
        <pt x="194" y="-50" on="0"/>
        <pt x="275" y="-146" on="0"/>
        <pt x="310" y="-173" on="1"/>
        <pt x="282" y="-211" on="1"/>
        <pt x="205" y="-159" on="0"/>
        <pt x="50" y="111" on="0"/>
        <pt x="50" y="260" on="1"/>
        <pt x="50" y="325" on="0"/>
        <pt x="94" y="457" on="0"/>
        <pt x="147" y="549" on="0"/>
        <pt x="236" y="654" on="0"/>
        <pt x="281" y="699" on="0"/>
      </contour>
    </TTGlyph>
    <TTGlyph name="parenright" xMin="-41" yMin="-211" xMax="254" yMax="733">
      <contour>
        <pt x="-14" y="733" on="1"/>
        <pt x="23" y="699" on="0"/>
        <pt x="69" y="654" on="0"/>
        <pt x="157" y="549" on="0"/>
        <pt x="210" y="457" on="0"/>
        <pt x="254" y="325" on="0"/>
        <pt x="254" y="260" on="1"/>
        <pt x="254" y="110" on="0"/>
        <pt x="99" y="-159" on="0"/>
        <pt x="23" y="-211" on="1"/>
        <pt x="-6" y="-173" on="1"/>
        <pt x="29" y="-146" on="0"/>
        <pt x="111" y="-50" on="0"/>
        <pt x="134" y="8" on="1"/>
        <pt x="166" y="87" on="0"/>
        <pt x="166" y="290" on="1"/>
        <pt x="166" y="378" on="0"/>
        <pt x="148" y="476" on="0"/>
        <pt x="123" y="525" on="1"/>
        <pt x="106" y="560" on="0"/>
        <pt x="50" y="621" on="0"/>
        <pt x="-29" y="689" on="0"/>
        <pt x="-41" y="701" on="1"/>
      </contour>
    </TTGlyph>
    <TTGlyph name="partialdiff" xMin="34" yMin="0" xMax="805" yMax="681">
      <contour>
        <pt x="551" y="666" on="1"/>
        <pt x="522" y="666" on="0"/>
        <pt x="475" y="627" on="0"/>
        <pt x="465" y="602" on="1"/>
        <pt x="451" y="569" on="0"/>
        <pt x="451" y="484" on="1"/>
        <pt x="451" y="479" on="0"/>
        <pt x="451" y="463" on="0"/>
        <pt x="451" y="460" on="1"/>
        <pt x="451" y="451" on="0"/>
        <pt x="453" y="414" on="0"/>
        <pt x="453" y="400" on="1"/>
        <pt x="579" y="400" on="1"/>
        <pt x="579" y="378" on="1"/>
        <pt x="453" y="378" on="1"/>
        <pt x="459" y="47" on="1"/>
        <pt x="459" y="39" on="0"/>
        <pt x="476" y="28" on="0"/>
        <pt x="501" y="23" on="0"/>
        <pt x="527" y="19" on="0"/>
        <pt x="538" y="18" on="1"/>
        <pt x="538" y="0" on="1"/>
        <pt x="407" y="4" on="0"/>
        <pt x="259" y="4" on="1"/>
        <pt x="121" y="4" on="0"/>
        <pt x="34" y="0" on="1"/>
        <pt x="34" y="18" on="1"/>
        <pt x="68" y="18" on="0"/>
        <pt x="120" y="33" on="0"/>
        <pt x="120" y="45" on="1"/>
        <pt x="124" y="378" on="1"/>
        <pt x="40" y="378" on="1"/>
        <pt x="40" y="400" on="1"/>
        <pt x="124" y="400" on="1"/>
        <pt x="124" y="408" on="0"/>
        <pt x="124" y="417" on="1"/>
        <pt x="124" y="472" on="0"/>
        <pt x="140" y="565" on="0"/>
        <pt x="153" y="587" on="1"/>
        <pt x="208" y="681" on="0"/>
        <pt x="308" y="681" on="1"/>
        <pt x="336" y="681" on="0"/>
        <pt x="399" y="649" on="0"/>
        <pt x="423" y="621" on="1"/>
        <pt x="478" y="681" on="0"/>
        <pt x="554" y="681" on="1"/>
        <pt x="621" y="681" on="0"/>
        <pt x="666" y="641" on="1"/>
        <pt x="714" y="650" on="0"/>
        <pt x="737" y="657" on="1"/>
        <pt x="733" y="561" on="0"/>
        <pt x="733" y="441" on="1"/>
        <pt x="733" y="393" on="0"/>
        <pt x="735" y="130" on="0"/>
        <pt x="735" y="37" on="1"/>
        <pt x="737" y="27" on="0"/>
        <pt x="787" y="17" on="0"/>
        <pt x="805" y="16" on="1"/>
        <pt x="805" y="0" on="1"/>
        <pt x="761" y="5" on="0"/>
        <pt x="699" y="5" on="1"/>
        <pt x="628" y="5" on="0"/>
        <pt x="584" y="0" on="1"/>
        <pt x="584" y="16" on="1"/>
        <pt x="650" y="19" on="0"/>
        <pt x="651" y="37" on="1"/>
        <pt x="654" y="132" on="0"/>
        <pt x="654" y="300" on="1"/>
        <pt x="654" y="479" on="0"/>
        <pt x="651" y="598" on="1"/>
        <pt x="642" y="626" on="0"/>
        <pt x="578" y="666" on="0"/>
      </contour>
      <contour>
        <pt x="412" y="607" on="1"/>
        <pt x="404" y="629" on="0"/>
        <pt x="330" y="666" on="0"/>
        <pt x="305" y="666" on="1"/>
        <pt x="276" y="666" on="0"/>
        <pt x="229" y="627" on="0"/>
        <pt x="219" y="602" on="1"/>
        <pt x="205" y="569" on="0"/>
        <pt x="205" y="486" on="1"/>
        <pt x="205" y="481" on="0"/>
        <pt x="205" y="464" on="0"/>
        <pt x="205" y="460" on="1"/>
        <pt x="205" y="451" on="0"/>
        <pt x="207" y="414" on="0"/>
        <pt x="207" y="400" on="1"/>
        <pt x="370" y="400" on="1"/>
        <pt x="370" y="408" on="0"/>
        <pt x="370" y="417" on="1"/>
        <pt x="370" y="472" on="0"/>
        <pt x="386" y="565" on="0"/>
        <pt x="398" y="587" on="1"/>
        <pt x="402" y="593" on="0"/>
      </contour>
      <contour>
        <pt x="370" y="378" on="1"/>
        <pt x="207" y="378" on="1"/>
        <pt x="213" y="45" on="1"/>
        <pt x="213" y="33" on="0"/>
        <pt x="257" y="17" on="0"/>
        <pt x="280" y="17" on="1"/>
        <pt x="306" y="17" on="0"/>
        <pt x="366" y="30" on="0"/>
        <pt x="366" y="44" on="1"/>
      </contour>
    </TTGlyph>
    <TTGlyph name="percent" xMin="8" yMin="-90" xMax="502" yMax="485">
      <contour>
        <pt x="8" y="340" on="1"/>
        <pt x="8" y="394" on="0"/>
        <pt x="79" y="458" on="0"/>
        <pt x="127" y="458" on="1"/>
        <pt x="172" y="458" on="0"/>
        <pt x="243" y="397" on="0"/>
        <pt x="243" y="340" on="1"/>
        <pt x="243" y="295" on="0"/>
        <pt x="171" y="233" on="0"/>
        <pt x="81" y="233" on="0"/>
        <pt x="8" y="295" on="0"/>
      </contour>
      <contour>
        <pt x="127" y="447" on="1"/>
        <pt x="95" y="447" on="0"/>
        <pt x="58" y="388" on="0"/>
        <pt x="58" y="340" on="1"/>
        <pt x="58" y="297" on="0"/>
        <pt x="96" y="245" on="0"/>
        <pt x="156" y="245" on="0"/>
        <pt x="194" y="298" on="0"/>
        <pt x="194" y="340" on="1"/>
        <pt x="194" y="447" on="0"/>
      </contour>
      <contour>
        <pt x="267" y="67" on="1"/>
        <pt x="267" y="121" on="0"/>
        <pt x="338" y="184" on="0"/>
        <pt x="386" y="184" on="1"/>
        <pt x="431" y="184" on="0"/>
        <pt x="502" y="124" on="0"/>
        <pt x="502" y="67" on="1"/>
        <pt x="502" y="22" on="0"/>
        <pt x="430" y="-41" on="0"/>
        <pt x="340" y="-41" on="0"/>
        <pt x="267" y="21" on="0"/>
      </contour>
      <contour>
        <pt x="386" y="174" on="1"/>
        <pt x="354" y="174" on="0"/>
        <pt x="317" y="115" on="0"/>
        <pt x="317" y="67" on="1"/>
        <pt x="317" y="24" on="0"/>
        <pt x="355" y="-29" on="0"/>
        <pt x="415" y="-29" on="0"/>
        <pt x="453" y="25" on="0"/>
        <pt x="453" y="67" on="1"/>
        <pt x="453" y="174" on="0"/>
      </contour>
      <contour>
        <pt x="432" y="485" on="1"/>
        <pt x="464" y="463" on="1"/>
        <pt x="69" y="-90" on="1"/>
        <pt x="37" y="-68" on="1"/>
      </contour>
    </TTGlyph>
    <TTGlyph name="period" xMin="61" yMin="-4" xMax="196" yMax="131">
      <contour>
        <pt x="127" y="131" on="1"/>
        <pt x="153" y="131" on="0"/>
        <pt x="196" y="98" on="0"/>
        <pt x="196" y="65" on="1"/>
        <pt x="196" y="29" on="0"/>
        <pt x="157" y="-4" on="0"/>
        <pt x="127" y="-4" on="1"/>
        <pt x="102" y="-4" on="0"/>
        <pt x="61" y="38" on="0"/>
        <pt x="61" y="65" on="1"/>
        <pt x="61" y="96" on="0"/>
        <pt x="103" y="131" on="0"/>
      </contour>
    </TTGlyph>
    <TTGlyph name="pi" xMin="14" yMin="-32" xMax="494" yMax="447">
      <contour>
        <pt x="155" y="447" on="0"/>
        <pt x="353" y="447" on="0"/>
        <pt x="494" y="307" on="0"/>
        <pt x="494" y="109" on="0"/>
        <pt x="353" y="-32" on="0"/>
        <pt x="155" y="-32" on="0"/>
        <pt x="14" y="109" on="0"/>
        <pt x="14" y="307" on="0"/>
      </contour>
      <contour>
        <pt x="343" y="423" on="0"/>
        <pt x="165" y="423" on="0"/>
        <pt x="39" y="297" on="0"/>
        <pt x="39" y="119" on="0"/>
        <pt x="165" y="-7" on="0"/>
        <pt x="343" y="-7" on="0"/>
        <pt x="469" y="119" on="0"/>
        <pt x="469" y="297" on="0"/>
      </contour>
      <contour>
        <pt x="390" y="275" on="1"/>
        <pt x="390" y="238" on="0"/>
        <pt x="335" y="190" on="0"/>
        <pt x="288" y="190" on="1"/>
        <pt x="272" y="190" on="0"/>
        <pt x="262" y="193" on="1"/>
        <pt x="252" y="196" on="1"/>
        <pt x="252" y="160" on="0"/>
        <pt x="252" y="117" on="0"/>
        <pt x="252" y="101" on="0"/>
        <pt x="252" y="99" on="1"/>
        <pt x="252" y="91" on="0"/>
        <pt x="274" y="78" on="0"/>
        <pt x="294" y="78" on="1"/>
        <pt x="294" y="59" on="1"/>
        <pt x="163" y="59" on="1"/>
        <pt x="163" y="80" on="1"/>
        <pt x="182" y="84" on="1"/>
        <pt x="201" y="88" on="0"/>
        <pt x="204" y="104" on="0"/>
        <pt x="204" y="154" on="1"/>
        <pt x="204" y="192" on="0"/>
        <pt x="203" y="319" on="0"/>
        <pt x="203" y="322" on="1"/>
        <pt x="202" y="328" on="0"/>
        <pt x="185" y="333" on="1"/>
        <pt x="169" y="338" on="1"/>
        <pt x="169" y="353" on="1"/>
        <pt x="198" y="353" on="0"/>
        <pt x="287" y="352" on="0"/>
        <pt x="299" y="352" on="1"/>
        <pt x="333" y="352" on="0"/>
        <pt x="390" y="313" on="0"/>
      </contour>
      <contour>
        <pt x="342" y="275" on="1"/>
        <pt x="342" y="304" on="0"/>
        <pt x="325" y="333" on="0"/>
        <pt x="298" y="333" on="1"/>
        <pt x="291" y="333" on="0"/>
        <pt x="260" y="334" on="0"/>
        <pt x="252" y="334" on="1"/>
        <pt x="252" y="209" on="1"/>
        <pt x="252" y="207" on="0"/>
        <pt x="285" y="207" on="1"/>
        <pt x="313" y="207" on="0"/>
        <pt x="341" y="247" on="0"/>
      </contour>
    </TTGlyph>
    <TTGlyph name="plus" xMin="46" yMin="23" xMax="475" yMax="452">
      <contour>
        <pt x="230" y="23" on="1"/>
        <pt x="230" y="206" on="1"/>
        <pt x="46" y="206" on="1"/>
        <pt x="46" y="267" on="1"/>
        <pt x="229" y="267" on="1"/>
        <pt x="229" y="452" on="1"/>
        <pt x="291" y="452" on="1"/>
        <pt x="291" y="267" on="1"/>
        <pt x="475" y="267" on="1"/>
        <pt x="475" y="206" on="1"/>
        <pt x="292" y="206" on="1"/>
        <pt x="292" y="23" on="1"/>
      </contour>
    </TTGlyph>
</ttFont>
